SplineFontDB: 3.0
FontName: GoudyStMTT
FullName: Sorts Mill Goudy TT
FamilyName: Sorts Mill Goudy TT
Weight: Medium
Copyright: Copyright (c) 2009 Barry Schwartz
Version: 003.001
ItalicAngle: 0
UnderlinePosition: -99
UnderlineWidth: 49
Ascent: 777
Descent: 223
sfntRevision: 0x00030041
LayerCount: 2
Layer: 0 1 "Back"  1
Layer: 1 1 "Fore"  0
NeedsXUIDChange: 1
XUID: [1021 80 2080662067 12688680]
FSType: 0
OS2Version: 4
OS2_WeightWidthSlopeOnly: 0
OS2_UseTypoMetrics: 1
CreationTime: 1245830276
ModificationTime: 1332097715
PfmFamily: 17
TTFWeight: 500
TTFWidth: 5
LineGap: 90
VLineGap: 0
Panose: 2 0 5 3 0 0 0 0 0 0
OS2TypoAscent: 0
OS2TypoAOffset: 1
OS2TypoDescent: 0
OS2TypoDOffset: 1
OS2TypoLinegap: 90
OS2WinAscent: 0
OS2WinAOffset: 1
OS2WinDescent: 0
OS2WinDOffset: 1
HheadAscent: 0
HheadAOffset: 1
HheadDescent: 0
HheadDOffset: 1
OS2SubXSize: 650
OS2SubYSize: 700
OS2SubXOff: 0
OS2SubYOff: 140
OS2SupXSize: 650
OS2SupYSize: 700
OS2SupXOff: 0
OS2SupYOff: 480
OS2StrikeYSize: 49
OS2StrikeYPos: 258
OS2Vendor: 'PfEd'
OS2CodePages: 00000093.00000000
OS2UnicodeRanges: 8000006f.00000042.00000000.00000000
Lookup: 3 0 0 "'aalt' Access All Alternates lookup 0"  {"'aalt' Access All Alternates lookup 0 subtable"  } ['aalt' ('DFLT' <'dflt' > ) ]
Lookup: 3 0 0 "'aalt' Access All Alternates in Latin lookup 1"  {"'aalt' Access All Alternates in Latin lookup 1 subtable"  } ['aalt' ('latn' <'AZE ' 'CRT ' 'TRK ' 'dflt' > ) ]
Lookup: 1 0 0 "'locl' Localized Forms in Latin lookup 2"  {"'locl' Localized Forms in Latin lookup 2 subtable"  } ['locl' ('latn' <'AZE ' 'CRT ' 'TRK ' > ) ]
Lookup: 1 0 0 "'numr' Numerators in Latin lookup 3"  {"'numr' Numerators in Latin lookup 3 subtable"  } ['frac' ('DFLT' <'dflt' > 'latn' <'AZE ' 'CRT ' 'TRK ' 'dflt' > ) 'numr' ('DFLT' <'dflt' > 'latn' <'AZE ' 'CRT ' 'TRK ' 'dflt' > ) ]
Lookup: 1 0 0 "'dnom' Denominators in Latin lookup 4"  {"'dnom' Denominators in Latin lookup 4 subtable"  } ['dnom' ('DFLT' <'dflt' > 'latn' <'AZE ' 'CRT ' 'TRK ' 'dflt' > ) ]

StartChar: .notdef
Encoding: 65536 -1 0
Width: 344
Flags: HW
LayerCount: 2
Fore
SplineSet
-9.40039 -79 m 1,0,-1
 -9.40039 725 l 1,1,-1
 324.9 725 l 1,2,-1
 324.9 -79 l 1,3,-1
 -9.40039 -79 l 1,0,-1
98.7109 639.058 m 1,4,5
 110.361 643 110.361 643 121.6 643 c 0,6,7
 147.775 643 147.775 643 172.764 620.13 c 0,8,9
 200 595.204 200 595.204 200 548 c 0,10,11
 200 514.828 200 514.828 166.902 407.932 c 0,12,13
 135.6 306.834 135.6 306.834 135.6 274 c 0,14,15
 135.6 255.673 135.6 255.673 139.886 233.34 c 1,16,17
 139.1 243.396 139.1 243.396 139.1 251 c 0,18,19
 139.1 289.541 139.1 289.541 155.608 336.708 c 0,20,21
 171.453 381.98 171.453 381.98 190.26 417.112 c 0,22,23
 209.206 450.094 209.206 450.094 230.613 490.96 c 0,24,25
 250.9 529.69 250.9 529.69 250.9 559 c 0,26,27
 250.9 606 250.9 606 216.9 631 c 0,28,29
 188.1 658 188.1 658 153.8 658 c 0,30,31
 126.709 658 126.709 658 98.7109 639.058 c 1,4,5
95.4854 58.8184 m 1,32,33
 98.3652 55.1973 98.3652 55.1973 103.97 50.7129 c 0,34,35
 119.619 38.1943 119.619 38.1943 123.207 34.6064 c 2,36,-1
 123.736 34.0771 l 1,37,-1
 124.209 33.499 l 2,38,39
 132.432 23.4492 132.432 23.4492 141.486 13.2607 c 0,40,41
 145.13 8.68066 145.13 8.68066 147.806 6.40723 c 0,42,43
 148.331 6.93652 148.331 6.93652 148.805 7.55762 c 0,44,45
 152.285 12.1152 152.285 12.1152 156.95 21 c 0,46,47
 162.648 31.8535 162.648 31.8535 165.976 36.6064 c 0,48,49
 168.854 40.7188 168.854 40.7188 176.777 48.0771 c 0,50,51
 182.66 53.5391 182.66 53.5391 185.61 58.1357 c 0,52,53
 186.248 59.1318 186.248 59.1318 186.501 60.124 c 0,54,55
 185.683 61.6445 185.683 61.6445 184.624 63.2656 c 0,56,57
 180.245 69.9678 180.245 69.9678 173.841 77.2871 c 2,58,-1
 165.663 86.6328 l 1,59,-1
 160.09 98.0068 l 2,60,61
 154.947 107.09 154.947 107.09 150.119 113.557 c 2,62,-1
 147.85 116.369 l 1,63,64
 147.091 115.703 147.091 115.703 146.552 115.111 c 0,65,66
 142.901 111.099 142.901 111.099 138.032 102.838 c 0,67,68
 130.589 92.7627 130.589 92.7627 124.977 88.2812 c 0,69,70
 102.224 68.5732 102.224 68.5732 95.4854 58.8184 c 1,32,33
EndSplineSet
Validated: 524289
EndChar

StartChar: exclam
Encoding: 33 33 4
Width: 248
GlyphClass: 2
Flags: HW
LayerCount: 2
Fore
SplineSet
22.0996 63 m 0,0,1
 22.0996 67.2178 22.0996 67.2178 23.5576 71.3066 c 256,2,3
 25.0156 75.3955 25.0156 75.3955 26.7129 78.3105 c 256,4,5
 28.4092 81.2246 28.4092 81.2246 32.542 85.4434 c 256,6,7
 36.6748 89.6602 36.6748 89.6602 39.1201 91.8242 c 256,8,9
 41.5654 93.9873 41.5654 93.9873 47.6191 99.0391 c 256,10,11
 53.6729 104.091 53.6729 104.091 56.3057 106.361 c 2,12,-1
 56.6924 106.694 l 2,13,14
 59.7705 109.165 59.7705 109.165 66.7305 118.172 c 0,15,16
 76.293 130.546 76.293 130.546 85.6406 138.142 c 0,17,18
 97.7744 148 97.7744 148 111.1 148 c 0,19,20
 119.642 148 119.642 148 126.42 143.481 c 0,21,22
 130.909 140.489 130.909 140.489 138.122 132.674 c 0,23,24
 143.92 126.394 143.92 126.394 144.938 125.376 c 0,25,26
 155.32 114.049 155.32 114.049 165.845 105.813 c 0,27,28
 177.136 96.9756 177.136 96.9756 182.423 93.1309 c 0,29,30
 189.234 88.1777 189.234 88.1777 194.311 82.4658 c 0,31,32
 202.1 73.7031 202.1 73.7031 202.1 62 c 0,33,34
 202.1 48.1094 202.1 48.1094 191.592 36.793 c 0,35,36
 183.944 28.5566 183.944 28.5566 171.55 20.1064 c 0,37,38
 161.712 13.3994 161.712 13.3994 159.707 11.3936 c 0,39,40
 156.635 8.32227 156.635 8.32227 150.388 -0.601562 c 0,41,42
 142.274 -12.1943 142.274 -12.1943 134.289 -18.9512 c 0,43,44
 123.595 -28 123.595 -28 112.1 -28 c 256,45,46
 100.729 -28 100.729 -28 82.5791 -13.0908 c 0,47,48
 67.0967 -0.374023 67.0967 -0.374023 58.0342 12.0879 c 0,49,50
 56.1514 14.5986 56.1514 14.5986 48.4971 20.9766 c 0,51,52
 38.333 29.4463 38.333 29.4463 31.3867 38.1299 c 0,53,54
 22.0996 49.7383 22.0996 49.7383 22.0996 63 c 0,0,1
52.0996 651 m 0,55,56
 52.0996 677 52.0996 677 69.5996 690.5 c 256,57,58
 87.0996 704 87.0996 704 116.1 704 c 0,59,60
 144.468 704 144.468 704 159.153 694.655 c 0,61,62
 177.1 683.234 177.1 683.234 177.1 657 c 0,63,64
 177.1 653.066 177.1 653.066 176.484 648.139 c 0,65,66
 175.954 643.9 175.954 643.9 174.416 634.161 c 0,67,68
 172.97 624.999 172.97 624.999 172.003 616.294 c 0,69,70
 168.045 582.648 168.045 582.648 160.071 455.561 c 0,71,72
 152.043 327.62 152.043 327.62 136.982 208.124 c 0,73,-1
 136.858 207.317 l 2,74,75
 134.958 196.867 134.958 196.867 126.767 190.433 c 256,76,77
 118.576 184 118.576 184 108.1 184 c 256,78,79
 97.6416 184 97.6416 184 89.7432 190.207 c 256,80,81
 81.8447 196.414 81.8447 196.414 80.9854 208.664 c 0,82,83
 72.1191 310.209 72.1191 310.209 68.1328 370.51 c 0,84,85
 64.1162 431.256 64.1162 431.256 63.6084 446.5 c 0,86,87
 63.1084 461.492 63.1084 461.492 62.6094 475.983 c 0,88,89
 62.1162 490.273 62.1162 490.273 61.1338 505.997 c 0,90,91
 52.0996 632.473 52.0996 632.473 52.0996 651 c 0,55,56
EndSplineSet
Validated: 524289
Position2: "'cpsp' Capital Spacing in Latin lookup 0 subtable" dx=10 dy=0 dh=20 dv=0
EndChar

StartChar: numbersign
Encoding: 35 35 6
Width: 464
GlyphClass: 2
Flags: HW
LayerCount: 2
Fore
SplineSet
15.7998 139 m 2,0,-1
 15.7998 142 l 2,1,2
 15.7998 157.183 15.7998 157.183 19.0928 164.592 c 0,3,4
 25.0518 178 25.0518 178 44.7998 178 c 2,5,-1
 116.246 178 l 1,6,7
 118.381 194.844 118.381 194.844 121.96 219.182 c 0,8,9
 126.961 253.192 126.961 253.192 130.464 276.71 c 0,10,11
 131.579 284.195 131.579 284.195 132.41 290 c 1,12,-1
 46.7998 290 l 2,13,14
 31.5869 290 31.5869 290 23.6934 297.893 c 256,15,16
 15.7998 305.787 15.7998 305.787 15.7998 325 c 0,17,18
 15.7998 340 15.7998 340 23.7998 351 c 256,19,20
 31.7998 362 31.7998 362 46.7998 362 c 2,21,-1
 141.381 362 l 1,22,23
 150.783 458.29 150.783 458.29 156.193 523.002 c 0,24,25
 158.563 545.58 158.563 545.58 160.009 549.708 c 2,26,-1
 160.377 550.761 l 1,27,-1
 160.855 551.719 l 2,28,29
 167.497 565 167.497 565 184.8 565 c 0,30,31
 209.3 565 209.3 565 209.3 538 c 0,32,33
 209.3 533.922 209.3 533.922 200.092 442.856 c 0,34,35
 194.131 383.897 194.131 383.897 192.049 362 c 1,36,-1
 249.875 362 l 1,37,38
 252.908 393.285 252.908 393.285 256.021 428.052 c 256,39,40
 259.133 462.819 259.133 462.819 260.694 480.501 c 256,41,42
 262.257 498.182 262.257 498.182 264.071 515.47 c 256,43,44
 265.888 532.759 265.888 532.759 267.479 541.062 c 256,45,46
 269.073 549.365 269.073 549.365 271.095 553.398 c 0,47,48
 277.58 565 277.58 565 302 565 c 0,49,50
 333 565 333 565 333 540 c 0,51,52
 333 534.959 333 534.959 320.357 443.936 c 0,53,54
 311.999 383.757 311.999 383.757 309.227 362 c 1,55,-1
 367 362 l 2,56,57
 383 362 383 362 391.5 350 c 256,58,59
 400 338 400 338 400 322 c 0,60,61
 400 309 400 309 391.5 299.5 c 256,62,63
 383 290 383 290 370 290 c 2,64,-1
 297.89 290 l 1,65,66
 285.887 203.949 285.887 203.949 303.083 178 c 1,67,-1
 388.75 178 l 2,68,69
 397.184 178 397.184 178 402.493 176.23 c 0,70,71
 411.029 173.385 411.029 173.385 416.362 163.785 c 0,72,73
 420.75 155.887 420.75 155.887 420.75 143 c 0,74,75
 420.75 122.045 420.75 122.045 408.463 112.366 c 0,76,77
 400.381 106 400.381 106 388.75 106 c 2,78,-1
 296.156 106 l 1,79,80
 292.723 71.5684 292.723 71.5684 288.056 22.9951 c 0,81,82
 281.62 -46.4795 281.62 -46.4795 278.467 -59.4277 c 0,83,84
 270.964 -81 270.964 -81 243.3 -81 c 0,85,86
 230.3 -81 230.3 -81 219.8 -74 c 256,87,88
 209.3 -67 209.3 -67 209.3 -53 c 0,89,90
 209.3 -48.9531 209.3 -48.9531 220.947 33.5957 c 0,91,92
 228.35 86.0615 228.35 86.0615 231.044 106 c 1,93,-1
 184.8 106 l 2,94,95
 172.082 106 172.082 106 166.359 105.092 c 0,96,97
 165.836 105.009 165.836 105.009 162.25 65.6592 c 256,98,99
 158.663 26.3086 158.663 26.3086 154.604 -15.9561 c 256,100,101
 150.547 -58.2207 150.547 -58.2207 149.049 -63.5713 c 2,102,-1
 148.701 -64.8145 l 1,103,-1
 148.204 -65.9502 l 2,104,105
 141.62 -81 141.62 -81 117.8 -81 c 0,106,107
 104.8 -81 104.8 -81 94.7998 -74 c 256,108,109
 84.7998 -67 84.7998 -67 84.7998 -53 c 0,110,111
 84.7998 -48.9414 84.7998 -48.9414 96.4492 33.1084 c 0,112,113
 104.064 86.7432 104.064 86.7432 106.671 106 c 1,114,-1
 44.7998 106 l 2,115,116
 30.7998 106 30.7998 106 23.2998 116 c 256,117,118
 15.7998 126 15.7998 126 15.7998 139 c 2,0,-1
173.229 178 m 1,119,-1
 240.136 178 l 1,120,121
 232.795 200.845 232.795 200.845 234.97 221.257 c 0,122,123
 237.429 244.343 237.429 244.343 238.832 256.87 c 256,124,125
 240.216 269.233 240.216 269.233 241.256 279.621 c 0,126,127
 241.873 285.797 241.873 285.797 242.24 290 c 1,128,-1
 184.12 290 l 1,129,130
 175.852 205.317 175.852 205.317 173.229 178 c 1,119,-1
EndSplineSet
Validated: 524321
EndChar

StartChar: dollar
Encoding: 36 36 7
Width: 529
GlyphClass: 2
Flags: HW
LayerCount: 2
Fore
SplineSet
44.2588 58.749 m 0,0,1
 29.7998 75.2842 29.7998 75.2842 29.7998 102.855 c 0,2,3
 29.7998 109.465 29.7998 109.465 31.3916 123.326 c 0,4,5
 33.04 137.679 33.04 137.679 38.9219 156.822 c 0,6,7
 47.6104 185.102 47.6104 185.102 67.7998 185.102 c 0,8,9
 84.7568 185.102 84.7568 185.102 94.751 173.673 c 0,10,11
 101.545 165.903 101.545 165.903 112.893 142.375 c 0,12,13
 123.018 121.382 123.018 121.382 128.088 111.53 c 0,14,15
 142.494 86.7334 142.494 86.7334 174.944 68.6553 c 0,16,17
 204.494 52.6973 204.494 52.6973 229.613 50.8008 c 1,18,19
 229.625 113.229 229.625 113.229 231.327 190.693 c 0,20,21
 233.009 267.314 233.009 267.314 233.034 322.312 c 1,22,23
 226.658 327.926 226.658 327.926 203.97 333.809 c 0,24,25
 134.808 353.283 134.808 353.283 94.7646 391.512 c 0,26,27
 52.7998 431.574 52.7998 431.574 52.7998 506.271 c 128,-1,28
 52.7998 580.968 52.7998 580.968 106.087 633.582 c 0,29,30
 159.499 685.143 159.499 685.143 241.681 694.842 c 1,31,32
 242.155 698.333 242.155 698.333 242.155 702.766 c 0,33,34
 242.155 708.118 242.155 708.118 241.618 715.407 c 0,35,36
 241.015 723.6 241.015 723.6 241.015 728.891 c 0,37,38
 241.015 745.34 241.015 745.34 252.417 755.5 c 0,39,40
 263.819 766 263.819 766 283.202 766 c 0,41,42
 307.79 766 307.79 766 314.161 756.878 c 0,43,44
 319.916 748.904 319.916 748.904 319.916 733.777 c 2,45,-1
 319.916 712.492 l 2,46,47
 319.916 702.215 319.916 702.215 319.476 695.808 c 0,48,49
 319.467 695.68 319.467 695.68 329.48 692.439 c 128,-1,50
 339.495 689.199 339.495 689.199 350.28 685.694 c 128,-1,51
 361.066 682.189 361.066 682.189 362.385 681.598 c 0,52,53
 383.328 671.219 383.328 671.219 397.674 659.375 c 0,54,55
 413.877 647.879 413.877 647.879 425.381 635.689 c 0,56,57
 437.151 623.217 437.151 623.217 442.039 614.352 c 0,58,59
 447.804 603.895 447.804 603.895 447.804 597.364 c 0,60,61
 447.804 579.873 447.804 579.873 436.091 553.433 c 0,62,63
 431.564 543.215 431.564 543.215 428.651 537.919 c 128,-1,64
 425.738 532.623 425.738 532.623 418.689 526.779 c 128,-1,65
 411.642 520.935 411.642 520.935 402.804 520.935 c 0,66,67
 385.554 520.935 385.554 520.935 379.729 540.73 c 1,68,69
 368.561 573.969 368.561 573.969 347.156 601.393 c 0,70,71
 330.451 622.689 330.451 622.689 316.01 625.85 c 1,72,73
 315.926 624.191 315.926 624.191 315.926 622.519 c 0,74,75
 315.926 540.863 315.926 540.863 313.912 495.96 c 0,76,77
 311.935 451.844 311.935 451.844 311.935 432.896 c 0,78,79
 311.935 424.9 311.935 424.9 312.399 420.117 c 1,80,-1
 313.241 419.891 l 1,81,-1
 313.543 419.789 l 2,82,83
 386.144 394.479 386.144 394.479 431.419 344.926 c 0,84,85
 478.804 294.339 478.804 294.339 478.804 211.346 c 0,86,87
 478.804 160.099 478.804 160.099 461.17 118.74 c 0,88,89
 443.299 76.8242 443.299 76.8242 412.565 51.3379 c 0,90,91
 384.942 27.0586 384.942 27.0586 364.209 12.2715 c 0,92,93
 341.39 -2.3125 341.39 -2.3125 315.334 -10.584 c 0,94,95
 312.354 -11.7324 312.354 -11.7324 309.251 -12.6729 c 0,96,97
 308.354 -12.9453 308.354 -12.9453 307.165 -13.3857 c 1,98,99
 307.146 -14.541 307.146 -14.541 307.146 -15.041 c 2,100,-1
 307.146 -94.373 l 2,101,102
 307.146 -124.515 307.146 -124.515 299.578 -135.218 c 0,103,104
 289.465 -150 289.465 -150 264.959 -150 c 0,105,106
 245.903 -150 245.903 -150 234.908 -140.356 c 0,107,108
 223.912 -131.025 223.912 -131.025 223.912 -114.854 c 0,109,110
 223.912 -97.1182 223.912 -97.1182 225.638 -63.4248 c 0,111,112
 227.333 -30.3613 227.333 -30.3613 227.333 -20.0293 c 2,113,-1
 227.221 -15.9727 l 1,114,115
 174.321 -13.8828 174.321 -13.8828 122.745 6.84668 c 0,116,117
 68.4482 30.0254 68.4482 30.0254 44.2588 58.749 c 0,0,1
179.065 610.627 m 0,118,119
 141.8 584.632 141.8 584.632 141.8 539 c 0,120,121
 141.8 469.831 141.8 469.831 238.735 444.642 c 1,122,123
 238.735 489.092 238.735 489.092 239.306 544.137 c 0,124,125
 239.851 596.763 239.851 596.763 239.874 637.771 c 1,126,127
 215.582 635.356 215.582 635.356 179.065 610.627 c 0,118,119
309.536 172.625 m 0,128,129
 307.992 95.2412 307.992 95.2412 307.944 42.8574 c 1,130,131
 310.129 43.2891 310.129 43.2891 312.188 43.7578 c 0,132,133
 319.343 45.3877 319.343 45.3877 334.189 54.4619 c 128,-1,134
 349.037 63.5361 349.037 63.5361 361.334 77.584 c 0,135,136
 372.317 90.8545 372.317 90.8545 380.521 118.801 c 0,137,138
 388.804 147.019 388.804 147.019 388.804 185 c 0,139,140
 388.804 212.459 388.804 212.459 381.162 234.292 c 0,141,142
 373.443 256.345 373.443 256.345 362.32 268.287 c 0,143,144
 349.341 281.296 349.341 281.296 335.313 290.084 c 0,145,146
 321.051 299.019 321.051 299.019 312.839 302.15 c 2,147,-1
 311.135 302.791 l 1,148,149
 311.088 250.366 311.088 250.366 309.536 172.625 c 0,128,129
EndSplineSet
Validated: 524289
Substitution2: "'lnum' Lining Figures in Latin lookup 11 subtable" dollar.lining
Substitution2: "'subs' Subscript in Latin lookup 10 subtable" dollar.lining.sub
Substitution2: "'sups' Superscript in Latin lookup 9 subtable" dollar.lining.sup
AlternateSubs2: "'aalt' Access All Alternates in Latin lookup 1 subtable" dollar.lining dollar.lining.sub dollar.lining.sup
AlternateSubs2: "'aalt' Access All Alternates lookup 0 subtable" dollar.lining dollar.lining.sub dollar.lining.sup
EndChar

StartChar: percent
Encoding: 37 37 8
Width: 800
GlyphClass: 2
Flags: HW
LayerCount: 2
Fore
SplineSet
68.9756 239.942 m 0,0,1
 26.2998 275.678 26.2998 275.678 26.2998 339.302 c 0,2,3
 26.2998 422.428 26.2998 422.428 86.8379 499.738 c 0,4,5
 142.804 578.918 142.804 578.918 211.367 578.918 c 0,6,7
 243.074 578.918 243.074 578.918 273.5 559.311 c 0,8,9
 299.996 542.234 299.996 542.234 323.781 525.651 c 0,10,11
 346.497 512.251 346.497 512.251 374.03 512.251 c 0,12,13
 396.634 512.251 396.634 512.251 424.999 519.564 c 0,14,15
 455.48 527.424 455.48 527.424 479.799 536.595 c 0,16,17
 503.845 545.662 503.845 545.662 534.998 562.77 c 0,18,19
 567.131 580.414 567.131 580.414 582.812 589.928 c 128,-1,20
 598.495 599.442 598.495 599.442 625.598 616.621 c 2,21,-1
 649.797 633.749 l 2,22,23
 662.771 646 662.771 646 678.985 646 c 0,24,25
 688.985 646 688.985 646 695.985 639 c 0,26,27
 702.985 632.282 702.985 632.282 702.985 622.685 c 0,28,29
 702.985 610.932 702.985 610.932 692.609 594.75 c 0,30,31
 356.656 178.886 356.656 178.886 201.596 -41.5381 c 0,32,33
 197.625 -47.0117 197.625 -47.0117 191.835 -55.3867 c 128,-1,34
 186.044 -63.7627 186.044 -63.7627 183.266 -67.5547 c 128,-1,35
 180.488 -71.3457 180.488 -71.3457 176.448 -76.2041 c 128,-1,36
 172.409 -81.0625 172.409 -81.0625 168.784 -83.6865 c 128,-1,37
 165.16 -86.3105 165.16 -86.3105 160.834 -87.9268 c 2,38,-1
 160.395 -88.0908 l 2,39,40
 151.049 -91 151.049 -91 144.3 -91 c 0,41,42
 127.237 -91 127.237 -91 112.709 -79.9316 c 0,43,44
 96.2998 -68.0547 96.2998 -68.0547 96.2998 -53.3965 c 0,45,46
 96.2998 -37.6406 96.2998 -37.6406 127.863 6.82031 c 2,47,-1
 128.148 7.21973 l 2,48,49
 135.123 15.7402 135.123 15.7402 138.903 21.126 c 2,50,-1
 271.835 248.534 l 2,51,52
 328.714 325.697 328.714 325.697 402.286 398.867 c 0,53,54
 465.734 461.374 465.734 461.374 496.207 491.649 c 1,55,56
 479.979 486.254 479.979 486.254 461.148 481.006 c 0,57,58
 448.407 477.455 448.407 477.455 435.817 474.955 c 0,59,60
 405.85 469 405.85 469 376.801 469 c 0,61,62
 359.235 469 359.235 469 341.727 471.873 c 0,63,64
 336.672 472.702 336.672 472.702 331.097 473.72 c 1,65,66
 330.979 414.562 330.979 414.562 319.801 376.985 c 0,67,68
 308.372 338.565 308.372 338.565 273.688 291.551 c 0,69,70
 216.594 205 216.594 205 144.648 205 c 0,71,72
 110.704 205 110.704 205 68.9756 239.942 c 0,0,1
149.597 484.195 m 0,73,74
 128.3 431.102 128.3 431.102 128.3 364 c 0,75,76
 128.3 312.642 128.3 312.642 138.33 284.88 c 0,77,78
 147.001 262 147.001 262 161.141 262 c 0,79,80
 189.782 262 189.782 262 208.569 319.034 c 0,81,82
 229.358 382.151 229.358 382.151 229.358 456 c 0,83,84
 229.358 492.459 229.358 492.459 220.8 515.292 c 0,85,86
 214.163 533 214.163 533 205.369 533 c 0,87,88
 169.995 533 169.995 533 149.597 484.195 c 0,73,74
404.487 -33.3525 m 0,89,90
 367.981 9.5166 367.981 9.5166 367.981 73.127 c 0,91,92
 367.981 159.829 367.981 159.829 403.227 233.02 c 0,93,94
 485.636 308 485.636 308 617.791 308 c 0,95,96
 687.227 308 687.227 308 718.732 269.812 c 0,97,98
 748.985 233.141 748.985 233.141 675.153 175.162 c 0,99,100
 675.153 86.9531 675.153 86.9531 617.538 5.78223 c 0,101,102
 564.396 -78 564.396 -78 502.382 -78 c 0,103,104
 442.508 -78 442.508 -78 404.487 -33.3525 c 0,89,90
503.815 199.119 m 0,105,106
 476.144 146.925 476.144 146.925 476.144 82.3887 c 0,107,108
 476.144 33.707 476.144 33.707 486.95 6.42871 c 0,109,110
 495.838 -16 495.838 -16 509.878 -16 c 0,111,112
 536.477 -16 536.477 -16 557.427 40.1826 c 0,113,114
 579.153 101.646 579.153 101.646 579.153 169.425 c 0,115,116
 652.985 203.862 652.985 203.862 636.342 227.794 c 0,117,118
 622.984 247 622.984 247 606.711 247 c 0,119,120
 541.56 247 541.56 247 503.815 199.119 c 0,105,106
EndSplineSet
Validated: 524325
EndChar

StartChar: ampersand
Encoding: 38 38 9
Width: 725
GlyphClass: 2
Flags: HW
LayerCount: 2
Fore
SplineSet
15.7998 242 m 0,0,1
 15.7998 278.308 15.7998 278.308 27.9932 317.008 c 0,2,3
 40.2969 356.057 40.2969 356.057 59.084 380.37 c 1,4,5
 85.165 411.885 85.165 411.885 116.372 429.283 c 0,6,7
 137.653 445.231 137.653 445.231 151.866 450.185 c 1,8,9
 142.394 466.874 142.394 466.874 133.574 497.848 c 0,10,11
 124.4 530.066 124.4 530.066 124.4 571 c 0,12,13
 124.4 645.656 124.4 645.656 170.249 683.489 c 0,14,15
 213.283 719 213.283 719 266.5 719 c 0,16,17
 292.883 719 292.883 719 316.352 706.562 c 0,18,19
 332.715 697.892 332.715 697.892 337.802 696.035 c 0,20,21
 339.682 696.289 339.682 696.289 342.188 697.116 c 0,22,23
 347.904 699 347.904 699 352.6 699 c 0,24,25
 363.345 699 363.345 699 368.723 687.764 c 256,26,27
 374.1 676.529 374.1 676.529 374.311 660.994 c 0,28,29
 374.385 659.078 374.385 659.078 374.967 648.696 c 0,30,31
 375.673 636.086 375.673 636.086 376.38 619.936 c 0,32,33
 377.1 603.468 377.1 603.468 377.1 593 c 0,34,35
 377.1 562.153 377.1 562.153 375.736 554.362 c 0,36,37
 372.697 537 372.697 537 358.9 537 c 0,38,39
 356.311 537 356.311 537 353.818 538.192 c 256,40,41
 351.327 539.383 351.327 539.383 349.841 540.3 c 256,42,43
 348.355 541.217 348.355 541.217 345.846 544.692 c 256,44,45
 343.336 548.167 343.336 548.167 342.73 549.046 c 256,46,47
 342.124 549.924 342.124 549.924 339.238 554.973 c 256,48,49
 336.353 560.021 336.353 560.021 336.134 560.396 c 0,50,51
 325.543 578.554 325.543 578.554 313.563 600.196 c 0,52,53
 302.776 619.686 302.776 619.686 284.343 636.318 c 0,54,55
 266.962 652 266.962 652 249 652 c 0,56,57
 220.646 652 220.646 652 207.655 632.233 c 0,58,59
 194.4 612.062 194.4 612.062 194.4 590 c 0,60,61
 194.4 569.706 194.4 569.706 211.767 534.071 c 0,62,63
 230.564 495.502 230.564 495.502 249.963 466.331 c 0,64,65
 269.817 436.474 269.817 436.474 306.125 384.607 c 0,66,67
 358.35 310 358.35 310 407.033 250.389 c 0,68,69
 442.706 206.709 442.706 206.709 455.064 195.63 c 1,70,71
 458.24 202.056 458.24 202.056 460.604 218.942 c 0,72,73
 463.2 237.487 463.2 237.487 463.2 263 c 0,74,75
 463.2 296.673 463.2 296.673 456.835 316.157 c 0,76,77
 450.693 334.955 450.693 334.955 447.451 338.139 c 0,78,79
 442.619 342.885 442.619 342.885 429.417 352.361 c 0,80,81
 425.986 354.328 425.986 354.328 420.555 355.068 c 0,82,83
 411.255 356.333 411.255 356.333 406.004 360.084 c 0,84,85
 396.7 366.729 396.7 366.729 396.7 384 c 0,86,87
 396.7 400.748 396.7 400.748 406.086 406.707 c 0,88,89
 411.271 410 411.271 410 424.7 410 c 0,90,91
 439.605 410 439.605 410 457.661 408.988 c 0,92,93
 475.306 408 475.306 408 529 408 c 0,94,95
 538.1 408 538.1 408 545.45 401 c 256,96,97
 552.8 394 552.8 394 552.8 380 c 0,98,99
 552.8 364.765 552.8 364.765 544.087 356.845 c 0,100,101
 538.87 352.103 538.87 352.103 532.056 349.506 c 0,102,103
 530.677 348.932 530.677 348.932 528.354 343.825 c 0,104,105
 525.328 337.177 525.328 337.177 524.775 322.962 c 0,106,107
 524.057 310.63 524.057 310.63 522.998 295.507 c 256,108,109
 521.933 280.286 521.933 280.286 520.514 264.58 c 256,110,111
 519.087 248.793 519.087 248.793 518.365 242.601 c 0,112,113
 516.081 221.935 516.081 221.935 509.318 198.321 c 0,114,115
 502.866 175.792 502.866 175.792 497.441 160.292 c 0,116,117
 495.608 155.055 495.608 155.055 494.369 151.099 c 1,118,119
 502.791 139.732 502.791 139.732 530.049 115.19 c 0,120,121
 571.233 78.1104 571.233 78.1104 619.362 48.4395 c 0,122,123
 636.241 40 636.241 40 655.7 40 c 0,124,125
 661.766 40 661.766 40 672.839 41.3838 c 0,126,127
 685.766 43 685.766 43 691.7 43 c 0,128,129
 701.7 43 701.7 43 710.7 37 c 256,130,131
 719.7 31 719.7 31 719.7 19 c 0,132,133
 719.7 -7.28906 719.7 -7.28906 681.601 -21.9941 c 0,134,135
 650.494 -34 650.494 -34 607.7 -34 c 0,136,137
 576.501 -34 576.501 -34 549.86 -22.9004 c 0,138,139
 523.438 -11.8906 523.438 -11.8906 504.832 3.52441 c 0,140,141
 486.686 18.5596 486.686 18.5596 472.794 34.2266 c 0,142,143
 459.2 49.5576 459.2 49.5576 450.87 60.4229 c 0,144,145
 449.524 62.1777 449.524 62.1777 447.837 64.2998 c 1,146,147
 446.254 62.4102 446.254 62.4102 444.729 60.4229 c 0,148,149
 436.469 49.6484 436.469 49.6484 422.938 33.877 c 0,150,151
 408.974 17.6035 408.974 17.6035 389.327 1.49121 c 0,152,153
 369.089 -15.1064 369.089 -15.1064 336.086 -26.1074 c 0,154,155
 303.409 -37 303.409 -37 264.4 -37 c 0,156,157
 241.266 -37 241.266 -37 218.138 -32.3535 c 0,158,159
 194.666 -27.6387 194.666 -27.6387 162.497 -11.1152 c 0,160,161
 129.686 5.73828 129.686 5.73828 101.887 34.3213 c 0,162,163
 65.6484 63.5283 65.6484 63.5283 40.6768 117.723 c 0,164,165
 15.7998 171.71 15.7998 171.71 15.7998 242 c 0,0,1
111.8 276 m 0,166,167
 111.8 244.202 111.8 244.202 122.784 209.125 c 0,168,169
 134.022 173.242 134.022 173.242 155.692 138.475 c 0,170,171
 176.813 104.588 176.813 104.588 215.144 82.4023 c 0,172,173
 253.847 60 253.847 60 302.2 60 c 0,174,175
 330.519 60 330.519 60 357.887 73.6602 c 0,176,177
 385.6 87.4932 385.6 87.4932 399.134 100.843 c 0,178,179
 403.207 104.861 403.207 104.861 406.165 108.296 c 1,180,181
 401.826 113.508 401.826 113.508 395.3 120.5 c 0,182,183
 376.842 140.277 376.842 140.277 334.6 191.571 c 256,184,185
 292.273 242.968 292.273 242.968 248.575 305.394 c 2,186,-1
 191.875 386.393 l 2,187,188
 188.184 391.666 188.184 391.666 184.845 396.966 c 0,189,190
 182.578 400.565 182.578 400.565 181.576 401.519 c 0,191,192
 179.516 403.481 179.516 403.481 177.241 405.996 c 1,193,194
 158.918 405.619 158.918 405.619 135.687 368.936 c 0,195,196
 111.8 331.221 111.8 331.221 111.8 276 c 0,166,167
EndSplineSet
Validated: 524289
Substitution2: "'c2sc' Capitals to Small Capitals in Latin lookup 13 subtable" ampersand.sc
AlternateSubs2: "'aalt' Access All Alternates in Latin lookup 1 subtable" ampersand.sc
AlternateSubs2: "'aalt' Access All Alternates lookup 0 subtable" ampersand.sc
Position2: "'cpsp' Capital Spacing in Latin lookup 0 subtable" dx=10 dy=0 dh=20 dv=0
EndChar

StartChar: parenleft
Encoding: 40 40 11
Width: 312
GlyphClass: 2
Flags: W
VStem: 25.5996 75<110.118 453.988>
LayerCount: 2
Fore
SplineSet
25.5996 278 m 0,0,1
 25.5996 368.869 25.5996 368.869 47.0586 453.679 c 256,2,3
 68.5098 538.466 68.5098 538.466 99.3779 596.083 c 0,4,5
 129.93 653.113 129.93 653.113 163.133 697.044 c 0,6,7
 196.569 741.283 196.569 741.283 221.239 762.804 c 0,8,9
 222.348 763.775 222.348 763.775 224.482 765.642 c 0,10,11
 248.83 787 248.83 787 262.6 787 c 0,12,13
 279.313 787 279.313 787 288.957 777.357 c 256,14,15
 298.6 767.713 298.6 767.713 298.6 751 c 0,16,17
 298.6 747.283 298.6 747.283 297.509 743.71 c 256,18,19
 296.417 740.138 296.417 740.138 295.169 737.633 c 256,20,21
 293.921 735.127 293.921 735.127 290.851 731.541 c 256,22,23
 287.781 727.955 287.781 727.955 286.03 726.191 c 256,24,25
 284.279 724.427 284.279 724.427 279.829 720.224 c 256,26,27
 275.378 716.021 275.378 716.021 273.575 714.263 c 0,28,29
 253.65 694.825 253.65 694.825 225.15 660.43 c 0,30,31
 196.906 626.342 196.906 626.342 168.509 578.36 c 0,32,33
 140.617 531.232 140.617 531.232 120.647 451.841 c 0,34,35
 100.6 372.145 100.6 372.145 100.6 277 c 0,36,37
 100.6 189.881 100.6 189.881 120.136 113.203 c 256,38,39
 139.643 36.6367 139.643 36.6367 167.163 -12.1279 c 0,40,41
 195.128 -61.6797 195.128 -61.6797 223.466 -98.3242 c 0,42,43
 252.097 -135.347 252.097 -135.347 271.699 -156.91 c 0,44,45
 273.58 -158.978 273.58 -158.978 277.843 -163.526 c 256,46,47
 282.106 -168.075 282.106 -168.075 283.805 -169.991 c 256,48,49
 285.504 -171.908 285.504 -171.908 288.384 -175.632 c 256,50,51
 291.263 -179.355 291.263 -179.355 292.427 -181.872 c 256,52,53
 293.59 -184.389 293.59 -184.389 294.595 -187.9 c 256,54,55
 295.6 -191.411 295.6 -191.411 295.6 -195 c 0,56,57
 295.6 -211.719 295.6 -211.719 282.319 -221.206 c 0,58,59
 271.407 -229 271.407 -229 260.6 -229 c 0,60,61
 243.477 -229 243.477 -229 214.603 -200.715 c 0,62,63
 189.053 -175.686 189.053 -175.686 156.724 -128.475 c 0,64,65
 124.642 -81.626 124.642 -81.626 95.1836 -22.708 c 0,66,67
 65.4424 36.7744 65.4424 36.7744 45.542 116.884 c 256,68,69
 25.5996 197.165 25.5996 197.165 25.5996 278 c 0,0,1
EndSplineSet
Validated: 524289
Substitution2: "'case' Case-Sensitive Forms in Latin lookup 15 subtable" parenleft.uppercase
Substitution2: "'subs' Subscript in Latin lookup 10 subtable" parenleft.sub
Substitution2: "'sups' Superscript in Latin lookup 9 subtable" parenleft.sup
AlternateSubs2: "'aalt' Access All Alternates in Latin lookup 1 subtable" parenleft.uppercase parenleft.sub parenleft.sup
AlternateSubs2: "'aalt' Access All Alternates lookup 0 subtable" parenleft.uppercase parenleft.sub parenleft.sup
EndChar

StartChar: parenright
Encoding: 41 41 12
Width: 293
GlyphClass: 2
Flags: HW
LayerCount: 2
Fore
SplineSet
-18.5 -192 m 0,0,1
 -18.5 -188.283 -18.5 -188.283 -17.4082 -184.711 c 256,2,3
 -16.3174 -181.138 -16.3174 -181.138 -15.0693 -178.632 c 256,4,5
 -13.8213 -176.126 -13.8213 -176.126 -10.751 -172.541 c 256,6,7
 -7.68164 -168.956 -7.68164 -168.956 -5.92969 -167.191 c 256,8,9
 -4.17871 -165.425 -4.17871 -165.425 0.271484 -161.224 c 256,10,11
 4.72168 -157.023 4.72168 -157.023 6.52539 -155.263 c 0,12,13
 26.4932 -135.782 26.4932 -135.782 55.0176 -101.848 c 0,14,15
 83.2207 -68.2959 83.2207 -68.2959 111.591 -20.3604 c 0,16,17
 139.483 26.7666 139.483 26.7666 159.453 106.159 c 0,18,19
 179.5 185.856 179.5 185.856 179.5 281 c 0,20,21
 179.5 368.117 179.5 368.117 159.964 444.797 c 256,22,23
 140.458 521.36 140.458 521.36 112.937 570.128 c 0,24,25
 84.9766 619.674 84.9766 619.674 56.6338 656.324 c 0,26,27
 28.0029 693.347 28.0029 693.347 8.40137 714.91 c 0,28,29
 6.52148 716.98 6.52148 716.98 2.25684 721.526 c 256,30,31
 -2.00684 726.073 -2.00684 726.073 -3.70508 727.991 c 256,32,33
 -5.40332 729.909 -5.40332 729.909 -8.2832 733.632 c 256,34,35
 -11.1641 737.355 -11.1641 737.355 -12.3262 739.872 c 256,36,37
 -13.4893 742.39 -13.4893 742.39 -14.4951 745.9 c 256,38,39
 -15.5 749.411 -15.5 749.411 -15.5 753 c 0,40,41
 -15.5 769.719 -15.5 769.719 -2.21875 779.206 c 0,42,43
 8.69336 787 8.69336 787 19.5 787 c 0,44,45
 36.6221 787 36.6221 787 65.4971 758.715 c 0,46,47
 91.0439 733.689 91.0439 733.689 123.376 686.475 c 0,48,49
 155.452 639.635 155.452 639.635 184.916 580.708 c 0,50,51
 214.659 521.226 214.659 521.226 234.558 441.116 c 256,52,53
 254.5 360.831 254.5 360.831 254.5 280 c 0,54,55
 254.5 189.131 254.5 189.131 233.042 104.321 c 256,56,57
 211.59 19.5352 211.59 19.5352 180.722 -38.083 c 0,58,59
 150.17 -95.1143 150.17 -95.1143 116.967 -139.044 c 0,60,61
 83.5303 -183.283 83.5303 -183.283 58.8604 -204.804 c 0,62,63
 57.7607 -205.765 57.7607 -205.765 55.6201 -207.641 c 0,64,65
 31.2695 -229 31.2695 -229 17.5 -229 c 0,66,67
 1.5 -229 1.5 -229 -8.5 -218.5 c 256,68,69
 -18.5 -208 -18.5 -208 -18.5 -192 c 0,0,1
EndSplineSet
Validated: 524289
Substitution2: "'case' Case-Sensitive Forms in Latin lookup 15 subtable" parenright.uppercase
Substitution2: "'subs' Subscript in Latin lookup 10 subtable" parenright.sub
Substitution2: "'sups' Superscript in Latin lookup 9 subtable" parenright.sup
AlternateSubs2: "'aalt' Access All Alternates in Latin lookup 1 subtable" parenright.uppercase parenright.sub parenright.sup
AlternateSubs2: "'aalt' Access All Alternates lookup 0 subtable" parenright.uppercase parenright.sub parenright.sup
EndChar

StartChar: asterisk
Encoding: 42 42 13
Width: 399
GlyphClass: 2
Flags: HW
LayerCount: 2
Fore
SplineSet
15.7998 383 m 0,0,1
 15.7998 394.24 15.7998 394.24 26.4717 404.264 c 256,2,3
 37.1445 414.288 37.1445 414.288 46.1533 418.765 c 256,4,5
 55.1621 423.243 55.1621 423.243 78.708 433.707 c 0,6,7
 96.541 441.633 96.541 441.633 109.287 447.652 c 1,8,9
 96.5801 454.017 96.5801 454.017 78.498 462.388 c 0,10,11
 76.2979 463.407 76.2979 463.407 71.9463 465.405 c 0,12,13
 52.3154 474.422 52.3154 474.422 42.957 479.462 c 256,14,15
 33.5996 484.502 33.5996 484.502 24.7002 493.633 c 256,16,17
 15.7998 502.764 15.7998 502.764 15.7998 513 c 0,18,19
 15.7998 526.896 15.7998 526.896 28.1895 543.85 c 0,20,21
 42.1836 563 42.1836 563 62.7998 563 c 0,22,23
 65.0664 563 65.0664 563 67.4688 562.605 c 256,24,25
 69.8711 562.211 69.8711 562.211 71.9395 561.735 c 256,26,27
 74.0078 561.259 74.0078 561.259 76.873 560.008 c 256,28,29
 79.7373 558.757 79.7373 558.757 81.6572 557.923 c 256,30,31
 83.5771 557.09 83.5771 557.09 87.0391 555.043 c 256,32,33
 90.5 552.995 90.5 552.995 92.4062 551.865 c 256,34,35
 94.3115 550.734 94.3115 550.734 98.5039 547.95 c 256,36,37
 102.697 545.166 102.697 545.166 104.723 543.799 c 256,38,39
 106.749 542.431 106.749 542.431 111.807 538.971 c 256,40,41
 116.865 535.51 116.865 535.51 119.23 533.907 c 0,42,43
 133.881 523.952 133.881 523.952 142.259 517.637 c 1,44,45
 142.025 528.63 142.025 528.63 140.822 550.683 c 0,46,47
 139.3 578.595 139.3 578.595 139.3 593 c 0,48,49
 139.3 613.209 139.3 613.209 149.93 621.713 c 0,50,51
 159.038 629 159.038 629 180.3 629 c 0,52,53
 210.165 629 210.165 629 220.974 619.021 c 0,54,55
 232.3 608.567 232.3 608.567 232.3 578 c 0,56,57
 232.3 568.346 232.3 568.346 230.244 544.701 c 0,58,59
 228.703 526.983 228.703 526.983 228.37 516.974 c 1,60,61
 237.096 523.425 237.096 523.425 253.68 534.481 c 0,62,63
 258.998 538.026 258.998 538.026 268.006 544.244 c 256,64,65
 277.015 550.463 277.015 550.463 280.797 552.903 c 256,66,67
 284.579 555.344 284.579 555.344 290.293 558.57 c 256,68,69
 296.006 561.797 296.006 561.797 300.113 562.898 c 256,70,71
 304.22 564 304.22 564 308.5 564 c 0,72,73
 327.489 564 327.489 564 342.486 546.148 c 0,74,75
 356.5 529.464 356.5 529.464 356.5 514 c 0,76,77
 356.5 499.293 356.5 499.293 343.073 489.592 c 256,78,79
 329.645 479.891 329.645 479.891 300.758 466.783 c 0,80,81
 295.779 464.529 295.779 464.529 293.254 463.366 c 0,82,83
 273.283 454.205 273.283 454.205 260.455 447.766 c 1,84,85
 273.136 441.495 273.136 441.495 293.045 432.728 c 0,86,87
 295.283 431.747 295.283 431.747 299.722 429.805 c 0,88,89
 319.491 421.174 319.491 421.174 328.954 416.296 c 256,90,91
 338.417 411.417 338.417 411.417 347.459 402.373 c 256,92,93
 356.5 393.33 356.5 393.33 356.5 383 c 0,94,95
 356.5 367.739 356.5 367.739 343.213 351.13 c 0,96,97
 328.71 333 328.71 333 307.5 333 c 0,98,99
 305.234 333 305.234 333 302.831 333.395 c 256,100,101
 300.428 333.79 300.428 333.79 298.361 334.265 c 256,102,103
 296.294 334.74 296.294 334.74 293.427 335.992 c 256,104,105
 290.56 337.245 290.56 337.245 288.643 338.076 c 256,106,107
 286.726 338.908 286.726 338.908 283.261 340.957 c 256,108,109
 279.796 343.007 279.796 343.007 277.894 344.135 c 256,110,111
 275.993 345.263 275.993 345.263 271.795 348.05 c 256,112,113
 267.597 350.837 267.597 350.837 265.577 352.201 c 256,114,115
 263.558 353.565 263.558 353.565 258.493 357.03 c 256,116,117
 253.427 360.494 253.427 360.494 251.07 362.093 c 0,118,119
 237.646 371.215 237.646 371.215 229.358 377.799 c 1,120,121
 229.635 367.976 229.635 367.976 230.76 352.595 c 0,122,123
 232.3 331.545 232.3 331.545 232.3 324 c 0,124,125
 232.3 289.506 232.3 289.506 223.251 278.811 c 0,126,127
 213.257 267 213.257 267 181.3 267 c 0,128,129
 163.3 267 163.3 267 151.3 277.5 c 256,130,131
 139.3 288 139.3 288 139.3 306 c 0,132,133
 139.3 314.434 139.3 314.434 140.825 340.864 c 0,134,135
 142.3 366.43 142.3 366.43 142.3 378 c 1,136,137
 123.837 366.086 123.837 366.086 117.513 361.948 c 0,138,139
 112.265 358.514 112.265 358.514 103.184 352.372 c 256,140,141
 94.1025 346.229 94.1025 346.229 90.3643 343.867 c 256,142,143
 86.625 341.505 86.625 341.505 80.8896 338.325 c 256,144,145
 75.1562 335.145 75.1562 335.145 71.0898 334.072 c 256,146,147
 67.0234 333 67.0234 333 62.7998 333 c 0,148,149
 42.1826 333 42.1826 333 28.1895 352.15 c 0,150,151
 15.7998 369.104 15.7998 369.104 15.7998 383 c 0,0,1
EndSplineSet
Validated: 524289
EndChar

StartChar: plus
Encoding: 43 43 14
Width: 453
GlyphClass: 2
Flags: HW
LayerCount: 2
Fore
SplineSet
-3.7998 212 m 0,0,1
 -3.7998 221.066 -3.7998 221.066 -3.14941 225.621 c 0,2,3
 -1.66309 236.024 -1.66309 236.024 8.25 242.22 c 0,4,5
 15.8984 247 15.8984 247 29.2002 247 c 2,6,-1
 174.3 247 l 2,7,8
 177.57 247 177.57 247 178.932 248.049 c 0,9,10
 179.2 249.012 179.2 249.012 179.2 251 c 2,11,-1
 179.2 427 l 2,12,13
 179.2 438.807 179.2 438.807 184.494 446.219 c 0,14,15
 190.725 454.942 190.725 454.942 200.579 456.349 c 0,16,17
 205.134 457 205.134 457 215.2 457 c 256,18,19
 225.133 457 225.133 457 230.061 456.384 c 0,20,21
 240.669 455.058 240.669 455.058 247.988 444.602 c 0,22,23
 254.2 435.728 254.2 435.728 254.2 422 c 2,24,-1
 254.2 259 l 2,25,26
 254.2 250.453 254.2 250.453 255.457 247 c 1,27,-1
 406.2 247 l 2,28,29
 419.007 247 419.007 247 426.419 241.706 c 0,30,31
 435.142 235.475 435.142 235.475 436.549 225.621 c 0,32,33
 437.2 221.066 437.2 221.066 437.2 211 c 0,34,35
 437.2 192.459 437.2 192.459 431.681 184.18 c 0,36,37
 424.229 173 424.229 173 401.2 173 c 2,38,-1
 255.6 173 l 1,39,-1
 254.241 172.973 l 1,40,41
 254.2 171.218 254.2 171.218 254.2 170 c 2,42,-1
 254.2 -5 l 2,43,44
 254.2 -24.4932 254.2 -24.4932 241.917 -31.8623 c 0,45,46
 233.355 -37 233.355 -37 219.2 -37 c 0,47,48
 199.313 -37 199.313 -37 191.415 -32.6123 c 0,49,50
 179.2 -25.8262 179.2 -25.8262 179.2 -4 c 2,51,-1
 179.2 170 l 2,52,53
 179.2 171.048 179.2 171.048 179.148 172.583 c 1,54,55
 176.519 173 176.519 173 172.9 173 c 2,56,-1
 28.2002 173 l 2,57,58
 13.6514 173 13.6514 173 5.93848 179.611 c 256,59,60
 -1.85059 186.287 -1.85059 186.287 -3.14941 195.379 c 0,61,62
 -3.7998 199.934 -3.7998 199.934 -3.7998 212 c 0,0,1
EndSplineSet
Validated: 524289
EndChar

StartChar: comma
Encoding: 44 44 15
Width: 223
GlyphClass: 2
Flags: HW
LayerCount: 2
Fore
SplineSet
12.2998 54 m 0,0,1
 12.2998 63.1553 12.2998 63.1553 17.4375 71.7178 c 0,2,3
 21.3877 78.3008 21.3877 78.3008 26.1934 83.1064 c 0,4,5
 29.8896 86.8027 29.8896 86.8027 37.0928 93.4922 c 0,6,7
 43.8896 99.8027 43.8896 99.8027 47.6934 103.607 c 0,8,9
 49.8154 105.729 49.8154 105.729 54.0938 111.719 c 0,10,11
 59.8154 119.729 59.8154 119.729 64.6934 124.607 c 0,12,13
 70.25 130.163 70.25 130.163 78.6895 134.707 c 0,14,15
 88.5176 140 88.5176 140 100.3 140 c 0,16,17
 110.562 140 110.562 140 129.67 124.713 c 0,18,19
 147.011 110.841 147.011 110.841 165.452 77.2129 c 0,20,21
 184.3 42.8428 184.3 42.8428 184.3 0 c 0,22,23
 184.3 -68.582 184.3 -68.582 136.15 -124.307 c 0,24,25
 87.1631 -181 87.1631 -181 53.2998 -181 c 0,26,27
 41.2998 -181 41.2998 -181 32.2998 -173.5 c 256,28,29
 23.2998 -166 23.2998 -166 23.2998 -153 c 0,30,31
 23.2998 -139.548 23.2998 -139.548 37.4834 -126.111 c 0,32,33
 47.4668 -116.653 47.4668 -116.653 59.9893 -106.739 c 0,34,35
 69.4414 -99.2568 69.4414 -99.2568 77.4561 -83.6475 c 0,36,37
 85.2998 -68.374 85.2998 -68.374 85.2998 -48 c 0,38,39
 85.2998 -32.0391 85.2998 -32.0391 78.3281 -20.0322 c 0,40,41
 70.585 -6.69629 70.585 -6.69629 64.9756 -1.83496 c 0,42,43
 57.916 4.2832 57.916 4.2832 35.5713 20.7988 c 0,44,45
 20.958 30.916 20.958 30.916 17.5869 35.1299 c 0,46,47
 12.2998 41.7383 12.2998 41.7383 12.2998 54 c 0,0,1
EndSplineSet
Validated: 524289
Substitution2: "'subs' Subscript in Latin lookup 10 subtable" comma.sub
Substitution2: "'sups' Superscript in Latin lookup 9 subtable" comma.sup
Substitution2: "'dnom' Denominators in Latin lookup 6 subtable" comma.denom
Substitution2: "'numr' Numerators in Latin lookup 5 subtable" comma.numer
Substitution2: "'dnom' Denominators in Latin lookup 4 subtable" comma.denom
Substitution2: "'numr' Numerators in Latin lookup 3 subtable" comma.numer
AlternateSubs2: "'aalt' Access All Alternates in Latin lookup 1 subtable" comma.sub comma.sup comma.denom comma.numer
AlternateSubs2: "'aalt' Access All Alternates lookup 0 subtable" comma.sub comma.sup comma.denom comma.numer
EndChar

StartChar: hyphen
Encoding: 45 45 16
Width: 316
GlyphClass: 2
Flags: W
HStem: 109 174
VStem: 5.2998 282
LayerCount: 2
Fore
SplineSet
5.2998 145 m 2,0,-1
 5.2998 156 l 2,1,2
 5.2998 191.979 5.2998 191.979 20.1377 204.474 c 0,3,4
 32.0723 214.523 32.0723 214.523 73.0469 226.385 c 0,5,6
 125.636 242.26 125.636 242.26 166.299 256.642 c 256,7,8
 207.154 271.091 207.154 271.091 221.48 276.525 c 0,9,10
 238.551 283 238.551 283 250.3 283 c 0,11,12
 287.3 283 287.3 283 287.3 234 c 2,13,-1
 287.3 228 l 2,14,15
 287.3 218.251 287.3 218.251 286.726 212.507 c 0,16,17
 285.835 203.608 285.835 203.608 280.088 195.398 c 0,18,19
 275.353 188.633 275.353 188.633 271.17 185.287 c 256,20,21
 267.042 181.985 267.042 181.985 255.621 177.175 c 0,22,23
 245.166 172.773 245.166 172.773 236.665 170.506 c 0,24,25
 229.296 168.541 229.296 168.541 211.921 163.577 c 256,26,27
 194.736 158.667 194.736 158.667 179.968 153.745 c 0,28,29
 152.159 144.806 152.159 144.806 124.926 134.903 c 0,30,31
 97.376 124.885 97.376 124.885 84.8809 120.387 c 0,32,33
 71.8203 115.685 71.8203 115.685 60.2471 112.529 c 0,34,35
 47.3086 109 47.3086 109 36.2998 109 c 0,36,37
 21.2998 109 21.2998 109 13.2998 119.5 c 256,38,39
 5.2998 130 5.2998 130 5.2998 145 c 2,0,-1
EndSplineSet
Validated: 524289
Substitution2: "'case' Case-Sensitive Forms in Latin lookup 15 subtable" hyphen.uppercase
AlternateSubs2: "'aalt' Access All Alternates in Latin lookup 1 subtable" hyphen.uppercase
AlternateSubs2: "'aalt' Access All Alternates lookup 0 subtable" hyphen.uppercase
EndChar

StartChar: period
Encoding: 46 46 17
Width: 225
GlyphClass: 2
Flags: W
HStem: -31 175<64.7723 132.825>
VStem: 12.2998 174<22.4827 89.1695>
LayerCount: 2
Fore
SplineSet
12.2998 55 m 0,0,1
 12.2998 67.3467 12.2998 67.3467 20.9014 78.0098 c 256,2,3
 29.5039 88.6719 29.5039 88.6719 48.0205 104.94 c 0,4,5
 51.2832 108.31 51.2832 108.31 57.7998 117 c 0,6,7
 66.6348 128.78 66.6348 128.78 75.9297 135.596 c 0,8,9
 87.3887 144 87.3887 144 100.3 144 c 0,10,11
 104.839 144 104.839 144 109.433 142.165 c 256,12,13
 114.027 140.33 114.027 140.33 117.432 138.148 c 256,14,15
 120.836 135.967 120.836 135.967 125.954 130.752 c 256,16,17
 131.073 125.537 131.073 125.537 133.848 122.326 c 256,18,19
 136.624 119.115 136.624 119.115 142.96 111.436 c 256,20,21
 149.296 103.758 149.296 103.758 152.323 100.196 c 0,22,23
 155.085 97.4873 155.085 97.4873 162.724 90.748 c 0,24,25
 172.308 82.291 172.308 82.291 178.189 74.6455 c 0,26,27
 186.3 64.1016 186.3 64.1016 186.3 55 c 0,28,29
 186.3 44.2012 186.3 44.2012 177.399 34.4102 c 0,30,31
 171.599 28.0303 171.599 28.0303 160.67 19.2871 c 2,32,-1
 146.393 7.86426 l 2,33,34
 142.966 4.2207 142.966 4.2207 136.8 -4 c 0,35,36
 128.283 -15.3564 128.283 -15.3564 120.489 -21.9512 c 0,37,38
 109.795 -31 109.795 -31 98.2998 -31 c 0,39,40
 82.0908 -31 82.0908 -31 63.5869 -7.87012 c 0,41,42
 52.9521 5.42383 52.9521 5.42383 49.3555 8.95117 c 0,43,44
 36.0312 18.5166 36.0312 18.5166 29.6172 23.8877 c 256,45,46
 23.2031 29.2598 23.2031 29.2598 17.751 37.6211 c 256,47,48
 12.2998 45.9824 12.2998 45.9824 12.2998 55 c 0,0,1
EndSplineSet
Validated: 524289
Substitution2: "'subs' Subscript in Latin lookup 10 subtable" period.sub
Substitution2: "'sups' Superscript in Latin lookup 9 subtable" period.sup
Substitution2: "'dnom' Denominators in Latin lookup 6 subtable" period.denom
Substitution2: "'numr' Numerators in Latin lookup 5 subtable" period.numer
Substitution2: "'dnom' Denominators in Latin lookup 4 subtable" period.denom
Substitution2: "'numr' Numerators in Latin lookup 3 subtable" period.numer
AlternateSubs2: "'aalt' Access All Alternates in Latin lookup 1 subtable" period.sub period.sup period.denom period.numer
AlternateSubs2: "'aalt' Access All Alternates lookup 0 subtable" period.sub period.sup period.denom period.numer
EndChar

StartChar: slash
Encoding: 47 47 18
Width: 349
GlyphClass: 2
Flags: HW
LayerCount: 2
Fore
SplineSet
-11.5 -170 m 0,0,1
 -11.5 -166.267 -11.5 -166.267 -10.0791 -160.816 c 256,2,3
 -8.6582 -155.364 -8.6582 -155.364 -6.73047 -150 c 256,4,5
 -4.80273 -144.637 -4.80273 -144.637 -0.151367 -131.902 c 256,6,7
 4.49902 -119.168 4.49902 -119.168 8.37695 -107.944 c 0,8,9
 258.405 701.104 258.405 701.104 265.35 721.376 c 1,10,-1
 265.422 721.629 l 1,11,12
 271.345 737.917 271.345 737.917 281.147 744.155 c 0,13,14
 290.332 750 290.332 750 308.7 750 c 0,15,16
 344.7 750 344.7 750 344.7 723 c 0,17,18
 344.7 712.185 344.7 712.185 329.735 673.704 c 2,19,-1
 75.5967 -157.126 l 2,20,21
 66.1885 -182.999 66.1885 -182.999 57.499 -190.109 c 0,22,23
 47.8545 -198 47.8545 -198 29.5 -198 c 0,24,25
 -11.5 -198 -11.5 -198 -11.5 -170 c 0,0,1
EndSplineSet
Validated: 524289
Substitution2: "'numr' Numerators in Latin lookup 3 subtable" fraction
AlternateSubs2: "'aalt' Access All Alternates in Latin lookup 1 subtable" fraction
AlternateSubs2: "'aalt' Access All Alternates lookup 0 subtable" fraction
EndChar

StartChar: zero
Encoding: 48 48 19
Width: 459
GlyphClass: 2
Flags: HW
LayerCount: 2
Fore
SplineSet
75.584 52.4609 m 0,0,1
 12.2998 119.193 12.2998 119.193 12.2998 211.618 c 0,2,3
 12.2998 312.691 12.2998 312.691 84.5801 370.275 c 0,4,5
 140.584 427 140.584 427 216.557 427 c 0,6,7
 294.099 427 294.099 427 348.912 370.749 c 0,8,9
 420.7 313.633 420.7 313.633 420.7 206 c 0,10,11
 420.7 116.396 420.7 116.396 358.93 51.0713 c 0,12,13
 308.457 -15 308.457 -15 222.066 -15 c 0,14,15
 127.814 -15 127.814 -15 75.584 52.4609 c 0,0,1
129.242 310.256 m 0,16,17
 98.2998 275.036 98.2998 275.036 98.2998 207.049 c 0,18,19
 98.2998 140.365 98.2998 140.365 132.739 105.177 c 0,20,21
 171.191 69 171.191 69 222.066 69 c 0,22,23
 270.773 69 270.773 69 305.899 108.443 c 0,24,25
 337.7 147.773 337.7 147.773 337.7 213.365 c 0,26,27
 337.7 273.741 337.7 273.741 303.119 309.381 c 0,28,29
 264.275 346 264.275 346 213.408 346 c 0,30,31
 163.65 346 163.65 346 129.242 310.256 c 0,16,17
EndSplineSet
Validated: 524289
Substitution2: "'lnum' Lining Figures in Latin lookup 11 subtable" zero.lining
Substitution2: "'subs' Subscript in Latin lookup 10 subtable" zero.lining.sub
Substitution2: "'sups' Superscript in Latin lookup 9 subtable" zero.lining.sup
Substitution2: "'dnom' Denominators in Latin lookup 4 subtable" zero.lining.denom
Substitution2: "'numr' Numerators in Latin lookup 3 subtable" zero.lining.numer
AlternateSubs2: "'aalt' Access All Alternates in Latin lookup 1 subtable" zero.lining zero.lining.sub zero.lining.sup zero.lining.denom zero.lining.numer
AlternateSubs2: "'aalt' Access All Alternates lookup 0 subtable" zero.lining zero.lining.sub zero.lining.sup zero.lining.denom zero.lining.numer
EndChar

StartChar: one
Encoding: 49 49 20
Width: 377
GlyphClass: 2
Flags: HW
LayerCount: 2
Fore
SplineSet
42 -4 m 0,0,1
 -1 -4 -1 -4 -1 24.9473 c 0,2,3
 -1 43.5615 -1 43.5615 23.4102 50.8877 c 0,4,5
 39.2207 55.6328 39.2207 55.6328 58.1191 56.6709 c 0,6,7
 71.748 57.4199 71.748 57.4199 84.2871 63.8408 c 0,8,9
 93.4785 68.5469 93.4785 68.5469 95.2158 77.7393 c 0,10,11
 104 126.954 104 126.954 104 171.55 c 2,12,-1
 104 246.252 l 2,13,14
 104 256.728 104 256.728 104.507 272.81 c 0,15,16
 105 288.479 105 288.479 105 293.874 c 0,17,18
 105 346.115 105 346.115 95.7256 355.096 c 128,-1,19
 86.4521 364.076 86.4521 364.076 39.9209 366.69 c 0,20,21
 25.2412 367.071 25.2412 367.071 16.1201 374.591 c 128,-1,22
 7 382.111 7 382.111 7 394.722 c 0,23,24
 7 419 7 419 43 419 c 0,25,26
 45.834 419 45.834 419 73.6562 415.908 c 0,27,28
 99.8281 413 99.8281 413 172.333 413 c 0,29,30
 224.786 413 224.786 413 254.989 415.442 c 0,31,32
 284.146 418 284.146 418 292.8 418 c 0,33,34
 309.231 418 309.231 418 319.403 409.523 c 0,35,36
 330.8 400.672 330.8 400.672 330.8 389.378 c 128,-1,37
 330.8 378.083 330.8 378.083 322.906 370.727 c 0,38,39
 316.469 364.728 316.469 364.728 308.438 362.856 c 0,40,41
 303.137 361.621 303.137 361.621 294.298 361.072 c 0,42,43
 289.5 360.773 289.5 360.773 287.468 360.337 c 2,44,-1
 286.657 360.085 l 1,45,-1
 285.741 359.914 l 2,46,47
 280.201 358.882 280.201 358.882 267.66 357.421 c 0,48,49
 258.021 356.299 258.021 356.299 254.659 355.577 c 0,50,51
 252.229 354.405 252.229 354.405 248.17 351.632 c 0,52,53
 245.296 349.668 245.296 349.668 244.479 346.046 c 0,54,55
 242.573 337.613 242.573 337.613 240.141 322.195 c 0,56,57
 237.8 307.364 237.8 307.364 237.8 285.088 c 0,58,59
 237.8 279.278 237.8 279.278 237.326 264.149 c 0,60,61
 236.867 249.456 236.867 249.456 236.867 237.56 c 0,62,63
 236.867 228.061 236.867 228.061 235.929 190.152 c 0,64,65
 235 152.589 235 152.589 235 131.319 c 2,66,-1
 235 109.885 l 2,67,68
 235 87.8877 235 87.8877 238.198 74.7168 c 1,69,70
 242.143 65.4678 242.143 65.4678 262.996 60.5273 c 0,71,72
 291.754 53.7129 291.754 53.7129 317.998 50.0898 c 0,73,74
 357.8 44.5947 357.8 44.5947 357.8 22.2822 c 0,75,76
 357.8 3.82031 357.8 3.82031 341.543 -1.23047 c 0,77,78
 333.235 -4 333.235 -4 314.8 -4 c 0,79,80
 300.388 -4 300.388 -4 254.477 -1.47754 c 0,81,82
 201.118 1 201.118 1 171.034 1 c 128,-1,83
 140.951 1 140.951 1 95.4238 -1.47168 c 0,84,85
 54.4629 -4 54.4629 -4 42 -4 c 0,0,1
EndSplineSet
Validated: 524289
Substitution2: "'lnum' Lining Figures in Latin lookup 11 subtable" one.lining
Substitution2: "'subs' Subscript in Latin lookup 10 subtable" one.lining.sub
Substitution2: "'sups' Superscript in Latin lookup 9 subtable" one.lining.sup
Substitution2: "'dnom' Denominators in Latin lookup 4 subtable" one.lining.denom
Substitution2: "'numr' Numerators in Latin lookup 3 subtable" one.lining.numer
AlternateSubs2: "'aalt' Access All Alternates in Latin lookup 1 subtable" one.lining one.lining.sub one.lining.sup one.lining.denom one.lining.numer
AlternateSubs2: "'aalt' Access All Alternates lookup 0 subtable" one.lining one.lining.sub one.lining.sup one.lining.denom one.lining.numer
EndChar

StartChar: two
Encoding: 50 50 21
Width: 462
GlyphClass: 2
Flags: HW
LayerCount: 2
Fore
SplineSet
47.2998 -2 m 0,0,1
 5.2998 -2 5.2998 -2 5.2998 21.0967 c 0,2,3
 5.2998 33.6963 5.2998 33.6963 16.9775 41.542 c 0,4,5
 23.9287 46.2129 23.9287 46.2129 42.5889 53.3115 c 0,6,7
 58.5479 59.3828 58.5479 59.3828 72.5996 67.1719 c 0,8,9
 141.267 104.014 141.267 104.014 181.6 140.332 c 0,10,11
 204.657 163.684 204.657 163.684 220.389 186.729 c 0,12,13
 259.438 243.931 259.438 243.931 259.438 288.092 c 0,14,15
 259.438 321.03 259.438 321.03 237.266 340.89 c 0,16,17
 213.7 362 213.7 362 191.396 362 c 0,18,19
 180.833 362 180.833 362 173.344 359.472 c 0,20,21
 156.176 353.674 156.176 353.674 156.176 331 c 0,22,23
 156.176 322.76 156.176 322.76 161.793 304.34 c 0,24,25
 168.983 280.761 168.983 280.761 168.983 272 c 0,26,27
 168.983 260 168.983 260 162.008 253.5 c 128,-1,28
 155.032 247 155.032 247 142.453 247 c 0,29,30
 111.689 247 111.689 247 85.9727 260.144 c 0,31,32
 55.2998 275.821 55.2998 275.821 55.2998 298 c 0,33,34
 55.2998 313.354 55.2998 313.354 64.7275 333.387 c 0,35,36
 73.6182 352.279 73.6182 352.279 91.9932 373.357 c 0,37,38
 111.549 395.788 111.549 395.788 154.924 410.108 c 0,39,40
 186.095 424 186.095 424 226.618 424 c 0,41,42
 285.72 424 285.72 424 331.521 395.601 c 0,43,44
 375.045 365.81 375.045 365.81 375.045 311.25 c 0,45,46
 375.045 267.131 375.045 267.131 332.404 216.664 c 0,47,48
 287.823 168.687 287.823 168.687 238.232 130.116 c 0,49,50
 223.458 116.249 223.458 116.249 213.236 105.978 c 0,51,52
 207.031 99.7422 207.031 99.7422 202.204 94.5039 c 1,53,54
 209.406 94 209.406 94 218.613 94 c 0,55,56
 312.877 94 312.877 94 353.591 106.323 c 0,57,58
 365.088 109.916 365.088 109.916 379.705 128.709 c 0,59,60
 381.587 131.129 381.587 131.129 386.591 138.296 c 128,-1,61
 391.594 145.462 391.594 145.462 394.098 148.249 c 128,-1,62
 396.601 151.036 396.601 151.036 401.805 154.018 c 128,-1,63
 407.009 157 407.009 157 413.045 157 c 0,64,65
 424.045 157 424.045 157 432.045 149.5 c 128,-1,66
 440.045 142 440.045 142 440.045 131 c 0,67,68
 440.045 126.278 440.045 126.278 437.993 120.526 c 128,-1,69
 435.941 114.775 435.941 114.775 433.362 109.967 c 128,-1,70
 430.784 105.159 430.784 105.159 424.421 93.8369 c 128,-1,71
 418.058 82.5146 418.058 82.5146 413.318 73.5137 c 0,72,73
 387.76 24.9531 387.76 24.9531 384.045 20 c 0,74,-1
 383.293 19.0752 l 2,75,76
 382.519 18.1963 382.519 18.1963 379.731 15.0039 c 128,-1,77
 376.944 11.8115 376.944 11.8115 376.126 10.9141 c 128,-1,78
 375.309 10.0176 375.309 10.0176 372.903 7.49121 c 128,-1,79
 370.499 4.96484 370.499 4.96484 369.354 4.08398 c 128,-1,80
 368.207 3.20312 368.207 3.20312 365.978 1.46582 c 128,-1,81
 363.747 -0.270508 363.747 -0.270508 362.066 -1.0127 c 128,-1,82
 360.386 -1.75391 360.386 -1.75391 358.122 -2.5791 c 128,-1,83
 355.858 -3.4043 355.858 -3.4043 353.511 -3.7959 c 2,84,-1
 352.286 -4 l 1,85,-1
 351.045 -4 l 2,86,87
 346.733 -4 346.733 -4 334.421 -3.4873 c 0,88,89
 322.551 -2.99219 322.551 -2.99219 276.172 -1.99512 c 0,90,91
 238.479 -1 238.479 -1 181.791 -1 c 0,92,93
 119.406 -1 119.406 -1 85.0176 -1.49805 c 0,94,95
 50.4102 -2 50.4102 -2 47.2998 -2 c 0,0,1
EndSplineSet
Validated: 524289
Substitution2: "'lnum' Lining Figures in Latin lookup 11 subtable" two.lining
Substitution2: "'subs' Subscript in Latin lookup 10 subtable" two.lining.sub
Substitution2: "'sups' Superscript in Latin lookup 9 subtable" two.lining.sup
Substitution2: "'dnom' Denominators in Latin lookup 4 subtable" two.lining.denom
Substitution2: "'numr' Numerators in Latin lookup 3 subtable" two.lining.numer
AlternateSubs2: "'aalt' Access All Alternates in Latin lookup 1 subtable" two.lining two.lining.sub two.lining.sup two.lining.denom two.lining.numer
AlternateSubs2: "'aalt' Access All Alternates lookup 0 subtable" two.lining two.lining.sub two.lining.sup two.lining.denom two.lining.numer
EndChar

StartChar: three
Encoding: 51 51 22
Width: 383
GlyphClass: 2
Flags: HW
LayerCount: 2
Fore
SplineSet
12.2998 -121.624 m 1,0,-1
 12.2998 -121 l 2,1,2
 12.2998 -74 12.2998 -74 45.2998 -74 c 0,3,4
 49.3926 -74 49.3926 -74 52.7383 -74.9697 c 128,-1,5
 56.084 -75.9395 56.084 -75.9395 59.0293 -78.3477 c 128,-1,6
 61.9736 -80.7549 61.9736 -80.7549 63.5088 -82.2764 c 128,-1,7
 65.043 -83.7979 65.043 -83.7979 67.9697 -87.5498 c 128,-1,8
 70.8965 -91.3018 70.8965 -91.3018 71.751 -92.3105 c 0,9,10
 80.9336 -103.164 80.9336 -103.164 101.463 -114.32 c 0,11,12
 121.112 -125 121.112 -125 148.368 -125 c 0,13,14
 188.512 -125 188.512 -125 217.506 -95.0137 c 0,15,16
 222.084 -90.2793 222.084 -90.2793 226.411 -84.7881 c 0,17,18
 252.7 -43.3613 252.7 -43.3613 252.7 2.05273 c 0,19,20
 252.7 40.0557 252.7 40.0557 227.61 65.7422 c 0,21,22
 194.644 93 194.644 93 140.334 93 c 0,23,24
 132.907 93 132.907 93 122.658 92.0615 c 0,25,26
 112.559 91.1436 112.559 91.1436 106.443 89.833 c 0,27,28
 97.8887 88 97.8887 88 95.2998 88 c 0,29,30
 84.2998 88 84.2998 88 75.7998 94.6152 c 128,-1,31
 67.2998 101.23 67.2998 101.23 67.2998 112.571 c 0,32,33
 67.2998 120.644 67.2998 120.644 69.8838 125.526 c 0,34,35
 72.9873 131.393 72.9873 131.393 82.6172 136.357 c 0,36,37
 88.5303 139.405 88.5303 139.405 96.4561 142.9 c 0,38,39
 103.127 145.843 103.127 145.843 118.35 154.834 c 0,40,41
 133.896 164.13 133.896 164.13 150.479 176.142 c 0,42,43
 167.141 188.916 167.141 188.916 182.015 207.042 c 0,44,45
 188.526 214.978 188.526 214.978 194.669 223.92 c 0,46,47
 213.532 251.379 213.532 251.379 213.532 284.571 c 0,48,49
 213.532 307.512 213.532 307.512 193.467 326.438 c 0,50,51
 172.726 346 172.726 346 144.797 346 c 0,52,53
 119.461 346 119.461 346 103.029 333.175 c 0,54,55
 101.842 332.249 101.842 332.249 96.7842 328.232 c 128,-1,56
 91.7256 324.215 91.7256 324.215 90.4482 323.299 c 128,-1,57
 89.1699 322.383 89.1699 322.383 85.2549 319.769 c 128,-1,58
 81.3389 317.154 81.3389 317.154 79.2344 316.432 c 128,-1,59
 77.1299 315.709 77.1299 315.709 73.835 314.854 c 128,-1,60
 70.5391 314 70.5391 314 67.2998 314 c 0,61,62
 57.2998 314 57.2998 314 49.2998 321 c 128,-1,63
 41.2998 328 41.2998 328 41.2998 339 c 0,64,65
 41.2998 354.195 41.2998 354.195 53.1172 366.954 c 128,-1,66
 64.9336 379.713 64.9336 379.713 88.0156 395.005 c 0,67,68
 131.78 424 131.78 424 175.147 424 c 0,69,70
 228.602 424 228.602 424 273.157 401.738 c 0,71,72
 320.486 377.152 320.486 377.152 320.486 320.924 c 0,73,74
 320.486 289.319 320.486 289.319 300.886 257.787 c 0,75,76
 282.278 227.848 282.278 227.848 260.183 208.303 c 0,77,78
 232.56 191.081 232.56 191.081 218.201 177.098 c 1,79,80
 223.959 175.795 223.959 175.795 230.62 174.037 c 0,81,82
 245.105 169.359 245.105 169.359 259.408 160.981 c 0,83,84
 339.7 122.665 339.7 122.665 339.7 45.1006 c 0,85,86
 339.7 -39.4756 339.7 -39.4756 265.011 -121.304 c 0,87,88
 256.673 -130.438 256.673 -130.438 249.445 -138.566 c 0,89,90
 192.952 -204 192.952 -204 113.3 -204 c 0,91,92
 13.2998 -204 13.2998 -204 13.2998 -153 c 2,93,-1
 13.2998 -133.624 l 1,94,-1
 12.2998 -121.624 l 1,0,-1
EndSplineSet
Validated: 524289
Substitution2: "'lnum' Lining Figures in Latin lookup 11 subtable" three.lining
Substitution2: "'subs' Subscript in Latin lookup 10 subtable" three.lining.sub
Substitution2: "'sups' Superscript in Latin lookup 9 subtable" three.lining.sup
Substitution2: "'dnom' Denominators in Latin lookup 4 subtable" three.lining.denom
Substitution2: "'numr' Numerators in Latin lookup 3 subtable" three.lining.numer
AlternateSubs2: "'aalt' Access All Alternates in Latin lookup 1 subtable" three.lining three.lining.sub three.lining.sup three.lining.denom three.lining.numer
AlternateSubs2: "'aalt' Access All Alternates lookup 0 subtable" three.lining three.lining.sub three.lining.sup three.lining.denom three.lining.numer
EndChar

StartChar: four
Encoding: 52 52 23
Width: 483
GlyphClass: 2
Flags: HW
LayerCount: 2
Fore
SplineSet
-0.106445 -7.4082 m 0,0,1
 -8 0.216797 -8 0.216797 -8 12.9814 c 0,2,3
 -8 27.5879 -8 27.5879 3.63086 42.1289 c 0,4,5
 12.5273 53.251 12.5273 53.251 59.9746 102.988 c 0,6,7
 164.173 227.309 164.173 227.309 271.202 364.854 c 0,8,9
 274.676 368.972 274.676 368.972 281.284 375.562 c 0,10,11
 288.389 382.647 288.389 382.647 293.272 387.807 c 0,12,13
 299.043 393.904 299.043 393.904 307.154 400.375 c 128,-1,14
 315.266 406.847 315.266 406.847 321.78 410.788 c 0,15,16
 331.697 417 331.697 417 341.335 417 c 0,17,18
 367.335 417 367.335 417 367.335 379.789 c 0,19,20
 367.335 378.51 367.335 378.51 364.32 312.851 c 0,21,22
 361.288 246.795 361.288 246.795 357.819 174.475 c 0,23,24
 354.441 103.243 354.441 103.243 354.338 82.1787 c 1,25,26
 355.829 82 355.829 82 357.335 82 c 0,27,28
 379.607 82 379.607 82 392.928 85.1074 c 0,29,30
 401.404 87.0859 401.404 87.0859 404.545 88.9385 c 1,31,32
 409.17 94.0361 409.17 94.0361 413.457 97.7891 c 0,33,34
 421.699 105 421.699 105 432.335 105 c 0,35,36
 444.335 105 444.335 105 452.335 97 c 128,-1,37
 460.335 89 460.335 89 460.335 77 c 0,38,39
 460.335 68.7109 460.335 68.7109 457.152 58.5254 c 0,40,41
 454.412 49.7588 454.412 49.7588 449.092 37.5195 c 0,42,43
 444.18 26.2197 444.18 26.2197 442.263 21.4287 c 0,44,-1
 441.751 20.292 l 2,45,46
 441.138 19.0625 441.138 19.0625 439.433 14.374 c 0,47,48
 437.288 8.47852 437.288 8.47852 435.622 4.59082 c 0,49,50
 433.667 0.0292969 433.667 0.0292969 430.556 -4.9502 c 0,51,52
 426.344 -11.6895 426.344 -11.6895 420.655 -15.4805 c 0,53,54
 413.877 -20 413.877 -20 405.335 -20 c 0,55,56
 397.147 -20 397.147 -20 376.96 -19.4951 c 0,57,58
 359.32 -19.0547 359.32 -19.0547 351.449 -19.0029 c 1,59,60
 351.335 -21.0488 351.335 -21.0488 351.335 -22.7402 c 0,61,62
 351.335 -36.1777 351.335 -36.1777 352.823 -70.1514 c 0,63,64
 354.335 -104.673 354.335 -104.673 354.335 -119.571 c 0,65,66
 354.335 -121.02 354.335 -121.02 354.812 -128.859 c 0,67,68
 355.335 -137.459 355.335 -137.459 355.335 -143.322 c 0,69,70
 355.335 -170.752 355.335 -170.752 327.135 -178.406 c 1,71,72
 295.612 -186 295.612 -186 273.276 -186 c 0,73,74
 257.629 -186 257.629 -186 246.453 -178.5 c 0,75,76
 237.959 -171.638 237.959 -171.638 237.959 -158.827 c 0,77,78
 237.959 -153.329 237.959 -153.329 239.546 -146.523 c 0,79,80
 240.471 -142.561 240.471 -142.561 241.152 -134.973 c 0,81,82
 241.898 -126.689 241.898 -126.689 243.058 -95.9219 c 128,-1,83
 244.218 -65.1553 244.218 -65.1553 244.218 -16 c 0,84,85
 244.218 -14.8848 244.218 -14.8848 199.854 -15.9971 c 0,86,87
 159.838 -17 159.838 -17 132.342 -17 c 0,88,89
 115.043 -17 115.043 -17 82.2764 -16.498 c 0,90,91
 48.8867 -16 48.8867 -16 35 -16 c 0,92,93
 22.1689 -16 22.1689 -16 16.8438 -15.4287 c 0,94,95
 7.11426 -14.3838 7.11426 -14.3838 -0.106445 -7.4082 c 0,0,1
127.195 94.7783 m 0,96,97
 121.604 86.3799 121.604 86.3799 117.891 80.1025 c 1,98,99
 123.718 79 123.718 79 132.342 79 c 2,100,-1
 161.288 79 l 2,101,102
 170.003 79 170.003 79 191.622 78.4971 c 0,103,104
 213.027 78 213.027 78 223.094 78 c 0,105,106
 238.998 78 238.998 78 247.705 78.8789 c 1,107,108
 250.824 212.164 250.824 212.164 250.92 268.629 c 1,109,110
 244.866 263.233 244.866 263.233 239.43 256.174 c 0,111,112
 217.781 227.02 217.781 227.02 210.298 215.542 c 0,113,114
 195.261 191.265 195.261 191.265 168.76 154.357 c 0,115,116
 142.696 118.06 142.696 118.06 127.195 94.7783 c 0,96,97
EndSplineSet
Validated: 524321
Substitution2: "'lnum' Lining Figures in Latin lookup 11 subtable" four.lining
Substitution2: "'subs' Subscript in Latin lookup 10 subtable" four.lining.sub
Substitution2: "'sups' Superscript in Latin lookup 9 subtable" four.lining.sup
Substitution2: "'dnom' Denominators in Latin lookup 4 subtable" four.lining.denom
Substitution2: "'numr' Numerators in Latin lookup 3 subtable" four.lining.numer
AlternateSubs2: "'aalt' Access All Alternates in Latin lookup 1 subtable" four.lining four.lining.sub four.lining.sup four.lining.denom four.lining.numer
AlternateSubs2: "'aalt' Access All Alternates lookup 0 subtable" four.lining four.lining.sub four.lining.sup four.lining.denom four.lining.numer
EndChar

StartChar: five
Encoding: 53 53 24
Width: 324
GlyphClass: 2
Flags: HW
LayerCount: 2
Fore
SplineSet
-43.6875 -148.017 m 0,0,1
 -47.9004 -123.268 -47.9004 -123.268 -47.9004 -112 c 0,2,3
 -47.9004 -69 -47.9004 -69 -20.9004 -69 c 0,4,5
 -6.07324 -69 -6.07324 -69 11.9111 -89.6484 c 0,6,7
 24.0439 -103.579 24.0439 -103.579 46.8018 -118.441 c 0,8,9
 67.5635 -132 67.5635 -132 93.7344 -132 c 0,10,11
 109.268 -132 109.268 -132 123.247 -123.187 c 0,12,13
 143.895 -110.168 143.895 -110.168 161.819 -77.8271 c 0,14,15
 193.583 -20.5146 193.583 -20.5146 193.583 48.5098 c 0,16,17
 193.583 90.1738 193.583 90.1738 184.233 114.515 c 0,18,19
 175.206 138.015 175.206 138.015 145.655 162.239 c 0,20,21
 128.877 175.301 128.877 175.301 110.93 182.276 c 0,22,23
 92.6895 189.367 92.6895 189.367 82.4199 190.623 c 0,24,25
 67.9746 192.306 67.9746 192.306 56.1787 197.614 c 0,26,27
 38.0996 205.75 38.0996 205.75 38.0996 225.219 c 0,28,29
 38.0996 237.905 38.0996 237.905 43.5273 248.862 c 0,30,31
 47.3301 256.54 47.3301 256.54 61.6592 290.809 c 0,32,33
 66.293 301.889 66.293 301.889 71.3086 315.348 c 0,34,35
 80.1045 343.28 80.1045 343.28 90.0859 381.269 c 0,36,37
 98.5186 414.279 98.5186 414.279 127.85 414.279 c 0,38,39
 129.744 414.279 129.744 414.279 152.849 413.319 c 0,40,41
 175.499 412.379 175.499 412.379 189.423 412.379 c 2,42,-1
 216.4 412.379 l 2,43,44
 225.931 412.379 225.931 412.379 233.518 412.829 c 128,-1,45
 241.104 413.279 241.104 413.279 245.244 413.717 c 0,46,47
 248.983 414.111 248.983 414.111 253.32 414.68 c 1,48,49
 256.743 419.558 256.743 419.558 258.794 421.506 c 0,50,51
 262.039 424.589 262.039 424.589 265.9 429.479 c 0,52,53
 270.632 435.474 270.632 435.474 273.377 438.603 c 0,54,55
 276.75 442.65 276.75 442.65 280.797 446.023 c 0,56,57
 287.969 452 287.969 452 296.4 452 c 0,58,59
 307.4 452 307.4 452 315.9 445 c 0,60,61
 324.4 438.309 324.4 438.309 324.4 426.838 c 0,62,63
 324.4 419.116 324.4 419.116 320.187 409.72 c 0,64,-1
 319.816 408.955 l 2,65,66
 311.025 392.147 311.025 392.147 304.18 376.725 c 128,-1,67
 297.335 361.303 297.335 361.303 294.445 353.938 c 0,68,69
 291.422 346.232 291.422 346.232 288.9 339.963 c 0,70,71
 284.546 329.143 284.546 329.143 277.618 325.168 c 0,72,73
 273.706 322.925 273.706 322.925 269.143 321.471 c 0,74,75
 263.835 319.779 263.835 319.779 254.446 319.779 c 0,76,77
 143.988 319.042 143.988 319.042 120.819 313.865 c 1,78,79
 117.867 305.741 117.867 305.741 115.848 299.533 c 0,80,81
 112.651 289.696 112.651 289.696 111.552 283.995 c 1,82,83
 114.905 281.721 114.905 281.721 121.607 279.592 c 0,84,85
 141.876 273.151 141.876 273.151 175.022 257.53 c 0,86,87
 211.145 241.039 211.145 241.039 239.392 211.962 c 0,88,89
 254.078 196.844 254.078 196.844 274.726 162.661 c 0,90,91
 291.036 127.843 291.036 127.843 291.036 85.5879 c 0,92,93
 291.036 0.382812 291.036 0.382812 242.933 -76.5859 c 0,94,95
 200.261 -143.401 200.261 -143.401 148.092 -175.575 c 0,96,97
 102.211 -205 102.211 -205 38.0996 -205 c 0,98,99
 7.14551 -205 7.14551 -205 -26.2959 -186.051 c 2,100,-1
 -26.7686 -185.782 l 1,101,-1
 -27.2207 -185.48 l 2,102,103
 -38.6025 -177.893 -38.6025 -177.893 -43.6875 -148.017 c 0,0,1
EndSplineSet
Validated: 524289
Substitution2: "'lnum' Lining Figures in Latin lookup 11 subtable" five.lining
Substitution2: "'subs' Subscript in Latin lookup 10 subtable" five.lining.sub
Substitution2: "'sups' Superscript in Latin lookup 9 subtable" five.lining.sup
Substitution2: "'dnom' Denominators in Latin lookup 4 subtable" five.lining.denom
Substitution2: "'numr' Numerators in Latin lookup 3 subtable" five.lining.numer
AlternateSubs2: "'aalt' Access All Alternates in Latin lookup 1 subtable" five.lining five.lining.sub five.lining.sup five.lining.denom five.lining.numer
AlternateSubs2: "'aalt' Access All Alternates lookup 0 subtable" five.lining five.lining.sub five.lining.sup five.lining.denom five.lining.numer
EndChar

StartChar: six
Encoding: 54 54 25
Width: 449
GlyphClass: 2
Flags: HW
LayerCount: 2
Fore
SplineSet
78.9902 54.4717 m 0,0,1
 15.7998 118.197 15.7998 118.197 15.7998 258.307 c 0,2,3
 15.7998 371.846 15.7998 371.846 82.5869 474.196 c 0,4,5
 143.511 575.552 143.511 575.552 218.822 637.669 c 0,6,7
 249.989 663.762 249.989 663.762 286.643 678.818 c 0,8,9
 323.386 694 323.386 694 348.9 694 c 0,10,11
 360.9 694 360.9 694 369.9 686.5 c 0,12,13
 378.9 679.431 378.9 679.431 378.9 667.176 c 0,14,15
 378.9 657.342 378.9 657.342 372.715 649.15 c 128,-1,16
 366.53 640.959 366.53 640.959 355.66 639.935 c 0,17,18
 314.485 634.642 314.485 634.642 293.304 620.676 c 0,19,20
 269.581 606.35 269.581 606.35 236.779 573.446 c 0,21,22
 202.867 540.073 202.867 540.073 177.737 490.308 c 0,23,24
 152.183 438.57 152.183 438.57 143.721 409.124 c 1,25,26
 163.229 422.367 163.229 422.367 167.801 425.056 c 0,27,28
 193.213 440 193.213 440 225.736 440 c 0,29,30
 300.302 440 300.302 440 351.248 377.836 c 0,31,32
 405.9 316.609 405.9 316.609 405.9 215.326 c 0,33,34
 405.9 118.209 405.9 118.209 349.088 49.8203 c 0,35,36
 297.029 -20 297.029 -20 218.486 -20 c 0,37,38
 148.136 -20 148.136 -20 78.9902 54.4717 c 0,0,1
129.406 317.894 m 0,39,40
 126.8 299.659 126.8 299.659 126.8 265.677 c 0,41,42
 126.8 202.677 126.8 202.677 137.069 155.848 c 0,43,44
 148.03 110.1 148.03 110.1 164.853 86.665 c 0,45,46
 181.888 62.9355 181.888 62.9355 198.786 52.2695 c 0,47,48
 215.056 42 215.056 42 230.568 42 c 0,49,50
 260.641 42 260.641 42 286.847 76.459 c 0,51,52
 310.9 111.558 310.9 111.558 310.9 177.735 c 0,53,54
 310.9 201.579 310.9 201.579 304.638 232.186 c 0,55,56
 298.274 263.281 298.274 263.281 285.072 295.442 c 0,57,58
 271.928 325.77 271.928 325.77 246.961 346.684 c 0,59,60
 222.707 367 222.707 367 191.903 367 c 0,61,62
 168.706 367 168.706 367 137.354 340.425 c 0,63,64
 133.996 336.972 133.996 336.972 132.341 334.85 c 1,65,66
 131.137 330.009 131.137 330.009 129.406 317.894 c 0,39,40
EndSplineSet
Validated: 524289
Substitution2: "'lnum' Lining Figures in Latin lookup 11 subtable" six.lining
Substitution2: "'subs' Subscript in Latin lookup 10 subtable" six.lining.sub
Substitution2: "'sups' Superscript in Latin lookup 9 subtable" six.lining.sup
Substitution2: "'dnom' Denominators in Latin lookup 4 subtable" six.lining.denom
Substitution2: "'numr' Numerators in Latin lookup 3 subtable" six.lining.numer
AlternateSubs2: "'aalt' Access All Alternates in Latin lookup 1 subtable" six.lining six.lining.sub six.lining.sup six.lining.denom six.lining.numer
AlternateSubs2: "'aalt' Access All Alternates lookup 0 subtable" six.lining six.lining.sub six.lining.sup six.lining.denom six.lining.numer
EndChar

StartChar: seven
Encoding: 55 55 26
Width: 445
GlyphClass: 2
Flags: HW
LayerCount: 2
Fore
SplineSet
38.0996 -186 m 0,0,1
 1.09961 -186 1.09961 -186 1.09961 -161.466 c 0,2,3
 1.09961 -147.919 1.09961 -147.919 31.1973 -108.102 c 128,-1,4
 61.2949 -68.2842 61.2949 -68.2842 127.702 32.375 c 0,5,6
 151.396 69.2266 151.396 69.2266 164.498 89.6816 c 0,7,8
 280.214 270.322 280.214 270.322 304.057 314.023 c 1,9,10
 292.819 316 292.819 316 272.251 316 c 2,11,-1
 211.072 316 l 2,12,13
 183.097 316 183.097 316 165.711 315.015 c 0,14,15
 148.662 314.049 148.662 314.049 125.336 309.66 c 0,16,17
 104.729 305.667 104.729 305.667 94.4814 295.629 c 0,18,19
 85.6445 286.974 85.6445 286.974 83.7432 274.746 c 0,20,21
 81.5859 265.042 81.5859 265.042 73.6045 259.521 c 128,-1,22
 65.6221 254 65.6221 254 56.0996 254 c 0,23,24
 47.0996 254 47.0996 254 39.0996 260.5 c 128,-1,25
 31.0996 267 31.0996 267 31.0996 277 c 0,26,27
 31.0996 292.637 31.0996 292.637 39.9521 332.733 c 0,28,29
 48.0996 369.636 48.0996 369.636 48.0996 383 c 2,30,-1
 48.0996 383.535 l 2,31,32
 48.8203 393.625 48.8203 393.625 54.2422 399.714 c 128,-1,33
 59.6631 405.802 59.6631 405.802 69.6133 408.235 c 128,-1,34
 79.5635 410.669 79.5635 410.669 85.6318 411.335 c 128,-1,35
 91.7002 412 91.7002 412 100.093 412 c 0,36,37
 121.864 412 121.864 412 171.834 409.992 c 0,38,39
 221.433 408 221.433 408 251.857 408 c 0,40,41
 296.156 408 296.156 408 329.154 410.464 c 0,42,43
 363.375 412.84 363.375 412.84 371.176 415.304 c 0,44,45
 379.81 418.03 379.81 418.03 384.486 420.155 c 0,46,47
 392.944 424 392.944 424 399.193 424 c 0,48,49
 410.193 424 410.193 424 417.693 416.5 c 0,50,51
 425.193 409.356 425.193 409.356 425.193 398.88 c 0,52,53
 425.193 396.062 425.193 396.062 424.475 392.926 c 128,-1,54
 423.756 389.789 423.756 389.789 422.854 387.076 c 128,-1,55
 421.954 384.363 421.954 384.363 419.689 380.186 c 128,-1,56
 417.425 376.009 417.425 376.009 415.83 373.231 c 128,-1,57
 414.236 370.454 414.236 370.454 410.535 364.927 c 128,-1,58
 406.835 359.399 406.835 359.399 404.655 356.247 c 128,-1,59
 402.475 353.096 402.475 353.096 397.446 345.908 c 128,-1,60
 392.417 338.72 392.417 338.72 389.662 334.742 c 2,61,-1
 161.977 -40.6123 l 2,62,63
 148.885 -63.9893 148.885 -63.9893 138.904 -84.9639 c 128,-1,64
 128.925 -105.938 128.925 -105.938 123.601 -119.334 c 128,-1,65
 118.275 -132.729 118.275 -132.729 114.478 -143.795 c 0,66,67
 110.774 -154.589 110.774 -154.589 109.429 -160.121 c 0,68,69
 107.844 -167.131 107.844 -167.131 106.188 -172.199 c 0,70,71
 103.44 -180.611 103.44 -180.611 98.8457 -184.362 c 0,72,73
 94.6006 -188 94.6006 -188 88.1934 -188 c 0,74,75
 85.793 -188 85.793 -188 68.7441 -186.976 c 0,76,77
 51.6719 -186 51.6719 -186 38.0996 -186 c 0,0,1
EndSplineSet
Validated: 524289
Substitution2: "'lnum' Lining Figures in Latin lookup 11 subtable" seven.lining
Substitution2: "'subs' Subscript in Latin lookup 10 subtable" seven.lining.sub
Substitution2: "'sups' Superscript in Latin lookup 9 subtable" seven.lining.sup
Substitution2: "'dnom' Denominators in Latin lookup 4 subtable" seven.lining.denom
Substitution2: "'numr' Numerators in Latin lookup 3 subtable" seven.lining.numer
AlternateSubs2: "'aalt' Access All Alternates in Latin lookup 1 subtable" seven.lining seven.lining.sub seven.lining.sup seven.lining.denom seven.lining.numer
AlternateSubs2: "'aalt' Access All Alternates lookup 0 subtable" seven.lining seven.lining.sub seven.lining.sup seven.lining.denom seven.lining.numer
EndChar

StartChar: eight
Encoding: 56 56 27
Width: 438
GlyphClass: 2
Flags: HW
LayerCount: 2
Fore
SplineSet
39.0879 79.1182 m 0,0,1
 12.2998 126.922 12.2998 126.922 12.2998 185.231 c 0,2,3
 12.2998 226.604 12.2998 226.604 27.0469 259.095 c 0,4,5
 41.8965 291.809 41.8965 291.809 63.9424 310.248 c 0,6,7
 84.5957 327.522 84.5957 327.522 99.6914 338.798 c 0,8,9
 109.912 346.7 109.912 346.7 118.1 351.9 c 1,10,11
 105.787 363.569 105.787 363.569 91.8359 378.138 c 0,12,13
 70.6699 395.344 70.6699 395.344 51.6396 428.731 c 0,14,15
 32.2998 462.659 32.2998 462.659 32.2998 502.794 c 0,16,17
 32.2998 582.753 32.2998 582.753 87.7363 634.964 c 0,18,19
 128.021 687 128.021 687 195.21 687 c 0,20,21
 269.58 687 269.58 687 308.234 639.296 c 0,22,23
 359.8 591.4 359.8 591.4 359.8 516.226 c 0,24,25
 359.8 482.107 359.8 482.107 349.449 453.885 c 0,26,27
 338.949 425.255 338.949 425.255 322.932 408.241 c 0,28,29
 307.96 392.338 307.96 392.338 297 381.43 c 0,30,31
 289.795 374.022 289.795 374.022 283.468 368.674 c 1,32,33
 285.532 367.061 285.532 367.061 287.816 365.363 c 0,34,35
 302.78 352.676 302.78 352.676 326.402 335.655 c 0,36,37
 354.138 317.029 354.138 317.029 376.802 279.234 c 0,38,39
 399.8 240.883 399.8 240.883 399.8 193.866 c 0,40,41
 399.8 110.086 399.8 110.086 344.442 44.7178 c 0,42,43
 293.599 -22 293.599 -22 207.994 -22 c 0,44,45
 141.638 -22 141.638 -22 106.235 3.9248 c 0,46,47
 66.1055 30.9053 66.1055 30.9053 39.0879 79.1182 c 0,0,1
94.7666 244.57 m 128,-1,49
 86.2998 219.918 86.2998 219.918 86.2998 187.014 c 0,50,51
 86.2998 121.704 86.2998 121.704 116.514 80.3213 c 0,52,53
 150.67 39 150.67 39 203.2 39 c 0,54,55
 256.708 39 256.708 39 282.679 76.0889 c 0,56,57
 306.8 114.354 306.8 114.354 306.8 159.498 c 0,58,59
 306.8 213.628 306.8 213.628 258.574 264.871 c 0,60,61
 206.795 317 206.795 317 184.821 317 c 0,62,63
 179.491 317 179.491 317 169.35 314.85 c 0,64,65
 159.646 312.792 159.646 312.792 143.495 304.075 c 128,-1,66
 127.345 295.358 127.345 295.358 114.394 281.896 c 0,67,48
 103.233 269.223 103.233 269.223 94.7666 244.57 c 128,-1,49
136.858 598.271 m 0,68,69
 110.1 571.601 110.1 571.601 110.1 525.859 c 0,70,71
 110.1 484.675 110.1 484.675 157.145 446.73 c 0,72,73
 207.65 407 207.65 407 230.368 407 c 0,74,75
 245.38 407 245.38 407 271.834 437.984 c 0,76,77
 297 468.969 297 468.969 297 519.308 c 0,78,79
 297 551.723 297 551.723 271.841 589.488 c 0,80,81
 246.271 626 246.271 626 200.803 626 c 0,82,83
 165.915 626 165.915 626 136.858 598.271 c 0,68,69
EndSplineSet
Validated: 524289
Substitution2: "'lnum' Lining Figures in Latin lookup 11 subtable" eight.lining
Substitution2: "'subs' Subscript in Latin lookup 10 subtable" eight.lining.sub
Substitution2: "'sups' Superscript in Latin lookup 9 subtable" eight.lining.sup
Substitution2: "'dnom' Denominators in Latin lookup 4 subtable" eight.lining.denom
Substitution2: "'numr' Numerators in Latin lookup 3 subtable" eight.lining.numer
AlternateSubs2: "'aalt' Access All Alternates in Latin lookup 1 subtable" eight.lining eight.lining.sub eight.lining.sup eight.lining.denom eight.lining.numer
AlternateSubs2: "'aalt' Access All Alternates lookup 0 subtable" eight.lining eight.lining.sub eight.lining.sup eight.lining.denom eight.lining.numer
EndChar

StartChar: nine
Encoding: 57 57 28
Width: 439
GlyphClass: 2
Flags: HW
LayerCount: 2
Fore
SplineSet
64.293 42.4932 m 0,0,1
 12.2998 101.54 12.2998 101.54 12.2998 186.483 c 0,2,3
 12.2998 273.938 12.2998 273.938 71.3984 347.1 c 0,4,5
 126.021 422 126.021 422 206.906 422 c 0,6,7
 289.007 422 289.007 422 343.739 348.593 c 0,8,9
 400.8 276.994 400.8 276.994 400.8 171.009 c 0,10,11
 400.8 77.9561 400.8 77.9561 354.246 -11.8887 c 0,12,13
 307.51 -102.083 307.51 -102.083 233.136 -162.371 c 0,14,15
 181.698 -205 181.698 -205 102.3 -205 c 0,16,17
 88.2998 -205 88.2998 -205 78.2998 -196 c 128,-1,18
 68.2998 -187 68.2998 -187 68.2998 -173 c 0,19,20
 68.2998 -144 68.2998 -144 109.3 -144 c 0,21,22
 151.699 -144 151.699 -144 205.566 -90.3691 c 0,23,24
 234.622 -61.541 234.622 -61.541 254.533 -21.8438 c 0,25,26
 260.397 -10.1514 260.397 -10.1514 264.888 0.376953 c 1,27,28
 257.132 -3.93457 257.132 -3.93457 248.135 -7.80762 c 0,29,30
 225.167 -17.6943 225.167 -17.6943 193.203 -17.6943 c 0,31,32
 115.793 -17.6943 115.793 -17.6943 64.293 42.4932 c 0,0,1
134.213 322.653 m 0,33,34
 112.3 288.388 112.3 288.388 112.3 225 c 0,35,36
 112.3 154.655 112.3 154.655 144.326 92.9941 c 0,37,38
 176.997 34 176.997 34 222.221 34 c 0,39,40
 235.062 34 235.062 34 246.354 37.9395 c 0,41,42
 257.445 41.8096 257.445 41.8096 271.194 53.0312 c 0,43,44
 283.354 62.9561 283.354 62.9561 290.513 87.1133 c 0,45,46
 297.8 112.911 297.8 112.911 297.8 152 c 0,47,48
 297.8 244.815 297.8 244.815 263.896 301.237 c 0,49,50
 229.238 356 229.238 356 187.561 356 c 0,51,52
 157.601 356 157.601 356 134.213 322.653 c 0,33,34
EndSplineSet
Validated: 524289
Substitution2: "'lnum' Lining Figures in Latin lookup 11 subtable" nine.lining
Substitution2: "'subs' Subscript in Latin lookup 10 subtable" nine.lining.sub
Substitution2: "'sups' Superscript in Latin lookup 9 subtable" nine.lining.sup
Substitution2: "'dnom' Denominators in Latin lookup 4 subtable" nine.lining.denom
Substitution2: "'numr' Numerators in Latin lookup 3 subtable" nine.lining.numer
AlternateSubs2: "'aalt' Access All Alternates in Latin lookup 1 subtable" nine.lining nine.lining.sub nine.lining.sup nine.lining.denom nine.lining.numer
AlternateSubs2: "'aalt' Access All Alternates lookup 0 subtable" nine.lining nine.lining.sub nine.lining.sup nine.lining.denom nine.lining.numer
EndChar

StartChar: colon
Encoding: 58 58 29
Width: 232
GlyphClass: 2
Flags: HW
LayerCount: 2
Fore
SplineSet
15.7998 55 m 0,0,1
 15.7998 59.3906 15.7998 59.3906 17.4873 63.8457 c 256,2,3
 19.1738 68.2998 19.1738 68.2998 21.0566 71.5059 c 256,4,5
 22.9385 74.7109 22.9385 74.7109 27.8057 79.7422 c 256,6,7
 32.6729 84.7725 32.6729 84.7725 35.376 87.2539 c 256,8,9
 38.0781 89.7344 38.0781 89.7344 45.3066 96.0059 c 256,10,11
 52.5352 102.277 52.5352 102.277 55.4834 104.902 c 0,12,13
 58.2002 107.69 58.2002 107.69 65.8711 116.715 c 0,14,15
 75.3984 127.923 75.3984 127.923 83.1543 133.889 c 0,16,17
 93.6982 142 93.6982 142 107.8 142 c 0,18,19
 114.342 142 114.342 142 121.12 137.481 c 0,20,21
 125.777 134.376 125.777 134.376 130.589 128.878 c 0,22,23
 133.76 125.253 133.76 125.253 136.907 122.107 c 0,24,25
 141.285 117.729 141.285 117.729 147.006 109.719 c 0,26,27
 151.284 103.729 151.284 103.729 154.407 100.607 c 0,28,29
 157.075 97.9385 157.075 97.9385 165.224 90.748 c 0,30,31
 174.808 82.291 174.808 82.291 180.689 74.6455 c 0,32,33
 188.8 64.1016 188.8 64.1016 188.8 55 c 0,34,35
 188.8 44.2012 188.8 44.2012 179.899 34.4102 c 0,36,37
 174.099 28.0303 174.099 28.0303 163.17 19.2871 c 2,38,-1
 148.912 7.88086 l 2,39,40
 145.68 4.38574 145.68 4.38574 140.088 -3.60156 c 0,41,42
 131.974 -15.1943 131.974 -15.1943 123.989 -21.9512 c 0,43,44
 113.295 -31 113.295 -31 101.8 -31 c 0,45,46
 88.5869 -31 88.5869 -31 77.1934 -19.6064 c 0,47,48
 69.5713 -11.9844 69.5713 -11.9844 61.5264 -1.79492 c 0,49,50
 55.4004 5.96582 55.4004 5.96582 51.7559 9.01855 c 0,51,52
 33.2598 22.1367 33.2598 22.1367 24.5293 32.0615 c 256,53,54
 15.7998 41.9854 15.7998 41.9854 15.7998 55 c 0,0,1
22.7998 336 m 0,55,56
 22.7998 344.422 22.7998 344.422 28.3896 353.376 c 256,57,58
 33.9795 362.33 33.9795 362.33 39.5049 367.676 c 256,59,60
 45.0303 373.022 45.0303 373.022 57.5303 383.951 c 0,61,62
 60.668 387.207 60.668 387.207 66.1396 394.782 c 0,63,64
 73.7129 405.268 73.7129 405.268 81.6113 411.951 c 0,65,66
 92.3057 421 92.3057 421 105.8 421 c 0,67,68
 110.427 421 110.427 421 114.952 419.147 c 256,69,70
 119.477 417.293 119.477 417.293 122.631 415.267 c 256,71,72
 125.786 413.24 125.786 413.24 130.574 407.903 c 256,73,74
 135.363 402.567 135.363 402.567 137.608 399.715 c 256,75,76
 139.853 396.863 139.853 396.863 145.663 388.97 c 256,77,78
 151.474 381.076 151.474 381.076 153.761 378.052 c 0,79,-1
 154.216 377.417 l 2,80,81
 155.797 375.452 155.797 375.452 161.124 370.835 c 0,82,83
 169.837 363.284 169.837 363.284 175.3 356 c 0,84,85
 182.8 346 182.8 346 182.8 335 c 0,86,87
 182.8 326.458 182.8 326.458 177.281 318.18 c 0,88,89
 173.133 311.958 173.133 311.958 168.062 307.611 c 2,90,-1
 157.562 298.611 l 2,91,92
 151 292.987 151 292.987 148.407 290.393 c 0,93,94
 145.257 287.244 145.257 287.244 139.46 279.218 c 0,95,96
 132.064 268.976 132.064 268.976 124.936 262.443 c 0,97,98
 114.635 253 114.635 253 101.8 253 c 0,99,100
 88.5869 253 88.5869 253 77.6934 263.893 c 0,101,102
 69.8037 271.783 69.8037 271.783 63.3184 282.984 c 0,103,104
 59.0127 290.422 59.0127 290.422 57.1406 292.449 c 0,105,106
 53.2197 296.304 53.2197 296.304 47.6113 301.049 c 0,107,108
 40.6357 306.951 40.6357 306.951 36.6934 310.893 c 0,109,110
 32.4404 315.147 32.4404 315.147 28.7998 320 c 0,111,112
 22.7998 328 22.7998 328 22.7998 336 c 0,55,56
EndSplineSet
Validated: 524289
EndChar

StartChar: semicolon
Encoding: 59 59 30
Width: 234
GlyphClass: 2
Flags: HW
LayerCount: 2
Fore
SplineSet
15.7998 342 m 0,0,1
 15.7998 350.369 15.7998 350.369 21.875 359.539 c 256,2,3
 27.9502 368.709 27.9502 368.709 32.6729 373.127 c 256,4,5
 37.3955 377.545 37.3955 377.545 51.5049 389.927 c 0,6,7
 54.4248 392.979 54.4248 392.979 59.3193 400.32 c 0,8,9
 66.3115 410.809 66.3115 410.809 74.126 418.022 c 0,10,11
 84.9346 428 84.9346 428 99.7998 428 c 0,12,13
 104.393 428 104.393 428 108.962 426.093 c 256,14,15
 113.532 424.185 113.532 424.185 116.802 421.996 c 256,16,17
 120.073 419.806 120.073 419.806 124.876 414.502 c 256,18,19
 129.68 409.197 129.68 409.197 132.068 406.174 c 256,20,21
 134.456 403.152 134.456 403.152 140.112 395.555 c 256,22,23
 145.768 387.958 145.768 387.958 148.07 384.956 c 0,24,25
 150.985 382.156 150.985 382.156 157.124 376.835 c 0,26,27
 165.767 369.344 165.767 369.344 171.689 361.646 c 0,28,29
 179.8 351.102 179.8 351.102 179.8 340 c 0,30,31
 179.8 331.458 179.8 331.458 174.281 323.18 c 0,32,33
 170.133 316.958 170.133 316.958 165.062 312.611 c 2,34,-1
 154.562 303.611 l 2,35,36
 148 297.987 148 297.987 145.407 295.393 c 2,37,-1
 144.653 294.64 l 1,38,-1
 143.8 294 l 2,39,40
 141.566 292.325 141.566 292.325 135.876 284.602 c 0,41,42
 127.832 273.685 127.832 273.685 119.989 267.049 c 0,43,44
 109.295 258 109.295 258 96.7998 258 c 0,45,46
 83.5869 258 83.5869 258 72.6934 268.893 c 0,47,48
 64.8877 276.699 64.8877 276.699 57.9375 288.283 c 0,49,50
 53.1309 296.293 53.1309 296.293 51.1426 298.447 c 0,51,52
 47.2197 302.304 47.2197 302.304 41.6113 307.049 c 0,53,54
 35.0176 312.628 35.0176 312.628 30.9229 316.211 c 0,55,56
 25.7412 320.745 25.7412 320.745 21.7998 326 c 0,57,58
 15.7998 334 15.7998 334 15.7998 342 c 0,0,1
17.7998 54 m 2,59,60
 17.7998 64.8779 17.7998 64.8779 24.6689 74.3223 c 0,61,62
 29.584 81.0801 29.584 81.0801 41.2363 91.623 c 0,63,64
 51.458 100.871 51.458 100.871 54.1934 103.607 c 0,65,66
 56.2646 105.678 56.2646 105.678 62.5117 114.602 c 0,67,68
 71.2051 127.021 71.2051 127.021 80.6895 133.118 c 0,69,70
 91.3936 140 91.3936 140 105.8 140 c 0,71,72
 112.206 140 112.206 140 122.911 133.118 c 0,73,74
 131.112 127.846 131.112 127.846 142.645 116.862 c 256,75,76
 154.309 105.753 154.309 105.753 164.712 90.4229 c 0,77,78
 175.434 74.6221 175.434 74.6221 183.094 50.5479 c 256,79,80
 190.8 26.3291 190.8 26.3291 190.8 0 c 0,81,82
 190.8 -68.6416 190.8 -68.6416 141.082 -125.385 c 0,83,84
 90.6006 -183 90.6006 -183 56.7998 -183 c 0,85,86
 47.5869 -183 47.5869 -183 38.6934 -174.107 c 256,87,88
 29.7998 -165.213 29.7998 -165.213 29.7998 -153 c 0,89,90
 29.7998 -138.974 29.7998 -138.974 50.1973 -121.977 c 0,91,92
 63.7412 -110.69 63.7412 -110.69 78.1318 -90.7275 c 0,93,94
 90.7998 -73.1562 90.7998 -73.1562 90.7998 -48 c 0,95,96
 90.7998 -27.1992 90.7998 -27.1992 81.0176 -14.7832 c 0,97,98
 69.2051 0.209961 69.2051 0.209961 41.7344 21.0498 c 2,99,-1
 40.7461 21.7988 l 1,100,-1
 39.8945 22.7002 l 2,101,102
 37.0791 25.6816 37.0791 25.6816 32.3076 30.4746 c 256,103,104
 27.5352 35.2676 27.5352 35.2676 25.7842 37.2148 c 256,105,106
 24.0322 39.1621 24.0322 39.1621 21.8916 42.4385 c 256,107,108
 19.75 45.7158 19.75 45.7158 18.5693 49.2568 c 2,109,-1
 17.7998 51.5654 l 1,110,-1
 17.7998 54 l 2,59,60
EndSplineSet
Validated: 524289
EndChar

StartChar: less
Encoding: 60 60 31
Width: 433
GlyphClass: 2
Flags: HW
LayerCount: 2
Fore
SplineSet
3.2002 211 m 0,0,1
 3.2002 218.485 3.2002 218.485 3.99121 222.442 c 0,2,3
 5.50684 230.019 5.50684 230.019 12.9385 236.389 c 0,4,5
 18.1807 240.883 18.1807 240.883 27.291 244.787 c 0,6,-1
 28.0957 245.105 l 1,7,8
 203.55 321.064 203.55 321.064 318.243 377.086 c 0,9,10
 354.137 390.048 354.137 390.048 360.515 392.5 c 0,11,12
 369.615 396 369.615 396 374.4 396 c 0,13,14
 386.084 396 386.084 396 394.4 389.921 c 0,15,16
 408.4 379.688 408.4 379.688 408.4 356 c 0,17,18
 408.4 333.054 408.4 333.054 381.785 325.633 c 1,19,-1
 140.761 214.889 l 2,20,21
 135.362 212.135 135.362 212.135 130.53 209.442 c 1,22,23
 135.687 206.7 135.687 206.7 140.75 204.117 c 2,24,-1
 387.526 92.0967 l 2,25,26
 408.4 84.5068 408.4 84.5068 408.4 65 c 0,27,28
 408.4 52 408.4 52 399.4 40 c 0,29,30
 388.4 26 388.4 26 369.4 26 c 0,31,32
 365.723 26 365.723 26 349.388 31.293 c 128,-1,33
 333.053 36.5859 333.053 36.5859 299.866 50.2295 c 128,-1,34
 266.68 63.874 266.68 63.874 238.589 78.583 c 128,-1,35
 210.498 93.293 210.498 93.293 152.826 121.243 c 128,-1,36
 95.1533 149.194 95.1533 149.194 26.8545 173.983 c 0,37,38
 11.334 180.191 11.334 180.191 6.7832 189.292 c 0,39,40
 3.2002 196.459 3.2002 196.459 3.2002 211 c 0,0,1
EndSplineSet
Validated: 524289
EndChar

StartChar: greater
Encoding: 62 62 33
Width: 433
GlyphClass: 2
Flags: HW
LayerCount: 2
Fore
SplineSet
3.2002 65 m 0,0,1
 3.2002 74.3242 3.2002 74.3242 9.0498 81.7646 c 128,-1,2
 14.9004 89.2061 14.9004 89.2061 22.6338 91.9551 c 2,3,-1
 270.855 204.12 l 2,4,5
 275.913 206.699 275.913 206.699 281.069 209.442 c 1,6,7
 276.238 212.134 276.238 212.134 270.844 214.887 c 2,8,-1
 28.7803 325.647 l 1,9,10
 3.2002 333.286 3.2002 333.286 3.2002 356 c 0,11,12
 3.2002 372 3.2002 372 11.7002 384 c 128,-1,13
 20.2002 396 20.2002 396 36.2002 396 c 0,14,15
 41.9219 396 41.9219 396 92.4424 377.054 c 0,16,17
 207.337 321.071 207.337 321.071 382.585 245.076 c 0,18,19
 408.4 235.395 408.4 235.395 408.4 211 c 0,20,21
 408.4 195.698 408.4 195.698 403.62 188.05 c 0,22,23
 398.522 179.893 398.522 179.893 383.746 173.983 c 0,24,25
 315.568 149.236 315.568 149.236 257.967 121.261 c 128,-1,26
 200.365 93.2861 200.365 93.2861 172.302 78.5947 c 128,-1,27
 144.238 63.9033 144.238 63.9033 110.854 50.2441 c 128,-1,28
 77.4688 36.585 77.4688 36.585 61.1514 31.293 c 128,-1,29
 44.833 26 44.833 26 41.2002 26 c 0,30,31
 21.3096 26 21.3096 26 11.3398 40.502 c 0,32,33
 3.2002 52.3408 3.2002 52.3408 3.2002 65 c 0,0,1
EndSplineSet
Validated: 524289
EndChar

StartChar: question
Encoding: 63 63 34
Width: 328
GlyphClass: 2
Flags: HW
LayerCount: 2
Fore
SplineSet
27 612 m 0,0,1
 27 636.891 27 636.891 65.502 663.361 c 0,2,3
 101.341 688 101.341 688 146 688 c 0,4,5
 205 688 205 688 249 655 c 0,6,7
 295 621 295 621 295 559 c 0,8,9
 295 522.308 295 522.308 271.287 477.04 c 0,10,11
 248.692 433.905 248.692 433.905 221.915 398.888 c 0,12,13
 196.779 366.017 196.779 366.017 175.416 323.292 c 0,14,15
 155 282.459 155 282.459 155 251 c 0,16,17
 155 241.203 155 241.203 157.309 226.888 c 0,18,19
 160 210.201 160 210.201 160 205 c 0,20,21
 160 196 160 196 153.5 188 c 256,22,23
 147 180 147 180 137 180 c 0,24,25
 110.878 180 110.878 180 99.1475 218.643 c 0,26,27
 90 248.773 90 248.773 90 274 c 0,28,29
 90 313.172 90 313.172 137.282 420.068 c 0,30,31
 182 521.166 182 521.166 182 548 c 0,32,33
 182 578.795 182 578.795 156.909 594.87 c 0,34,35
 128.608 613 128.608 613 106 613 c 0,36,37
 92.6982 613 92.6982 613 78.5557 603.179 c 0,38,39
 74.9043 600.644 74.9043 600.644 69.8457 595.946 c 256,40,41
 64.7871 591.249 64.7871 591.249 61.1357 589.624 c 256,42,43
 57.4854 588 57.4854 588 51 588 c 0,44,45
 41 588 41 588 34 595 c 256,46,47
 27 602 27 602 27 612 c 0,0,1
49 59 m 0,48,49
 49 70.5742 49 70.5742 57.2354 80.3955 c 256,50,51
 65.4717 90.2168 65.4717 90.2168 84.5059 106.478 c 0,52,53
 88.2744 109.696 88.2744 109.696 90.2119 111.367 c 2,54,-1
 90.5947 111.697 l 2,55,56
 93.6299 113.972 93.6299 113.972 100.526 122.162 c 0,57,58
 109.57 132.901 109.57 132.901 117.354 138.889 c 0,59,60
 127.898 147 127.898 147 139 147 c 0,61,62
 148.932 147 148.932 147 161.259 135.443 c 0,63,64
 170.043 127.209 170.043 127.209 178.713 116.37 c 0,65,-1
 185.053 107.367 l 1,66,-1
 193.37 100.713 l 2,67,68
 204.222 92.0312 204.222 92.0312 211.966 83.7344 c 0,69,70
 223 71.9121 223 71.9121 223 62 c 0,71,72
 223 48.165 223 48.165 213.557 37.8643 c 0,73,74
 206.771 30.4609 206.771 30.4609 195.175 22.9229 c 0,75,76
 186.494 17.2812 186.494 17.2812 184.607 15.3936 c 0,77,78
 181.361 12.1475 181.361 12.1475 174.5 3 c 0,79,80
 166.163 -8.11523 166.163 -8.11523 159.136 -14.5576 c 0,81,82
 148.835 -24 148.835 -24 137 -24 c 256,83,84
 125.34 -24 125.34 -24 108.591 -9.26074 c 0,85,86
 95.6211 2.15234 95.6211 2.15234 85.9824 13.7822 c 0,87,88
 82.2871 17.1611 82.2871 17.1611 69.6299 27.2871 c 0,89,90
 49 43.791 49 43.791 49 59 c 0,48,49
EndSplineSet
Validated: 524289
Position2: "'cpsp' Capital Spacing in Latin lookup 0 subtable" dx=10 dy=0 dh=20 dv=0
EndChar

StartChar: at
Encoding: 64 64 35
Width: 647
GlyphClass: 2
Flags: HW
LayerCount: 2
Fore
SplineSet
5.2998 286 m 0,0,1
 5.2998 385.072 5.2998 385.072 39.0078 463.898 c 256,2,3
 72.7812 542.876 72.7812 542.876 114.458 588.562 c 0,4,5
 148.871 633.582 148.871 633.582 208.964 663.049 c 0,6,7
 264.588 692.359 264.588 692.359 299.832 702.22 c 0,8,9
 334.786 712 334.786 712 365.2 712 c 0,10,11
 466.886 712 466.886 712 531.217 619.046 c 256,12,13
 616.8 526.16 616.8 526.16 616.8 392 c 0,14,15
 616.8 277.293 616.8 277.293 544.895 196.03 c 0,16,17
 598.132 114 598.132 114 500.4 114 c 0,18,19
 463.908 114 463.908 114 441.156 128.969 c 0,20,21
 417.379 144.611 417.379 144.611 411.906 165.135 c 0,22,23
 409.968 172.403 409.968 172.403 408.426 179.35 c 1,24,25
 395.569 164.956 395.569 164.956 380.007 149.393 c 0,26,27
 360.395 129.781 360.395 129.781 328.877 113.221 c 0,28,29
 296.1 96 296.1 96 261.4 96 c 0,30,31
 207.557 96 207.557 96 180.072 127.668 c 0,32,33
 153.4 158.398 153.4 158.398 153.4 208 c 0,34,35
 153.4 268.441 153.4 268.441 186.402 336.542 c 0,36,37
 219.286 404.4 219.286 404.4 268.821 452.955 c 0,38,39
 310.256 503 310.256 503 354.7 503 c 0,40,41
 368.921 503 368.921 503 387.675 498.272 c 0,42,43
 398.148 495.631 398.148 495.631 403.345 494.455 c 1,44,45
 405.902 498.399 405.902 498.399 409.396 506.717 c 0,46,47
 420.854 534 420.854 534 434.5 534 c 0,48,49
 450.6 534 450.6 534 450.6 500 c 0,50,51
 450.6 494.174 450.6 494.174 441.893 443.897 c 0,52,53
 433.546 395.7 433.546 395.7 424.829 335.941 c 0,54,55
 416.3 277.462 416.3 277.462 416.3 246 c 2,56,-1
 416.3 233 l 2,57,58
 416.3 207 416.3 207 420.85 198 c 256,59,60
 500.4 189 500.4 189 513.4 189 c 0,61,62
 582.474 189 582.474 189 514.008 241.229 c 0,63,64
 545.8 294.523 545.8 294.523 545.8 397 c 0,65,66
 545.8 513.274 545.8 513.274 494.715 578.301 c 0,67,68
 443.101 644 443.101 644 365.9 644 c 0,69,70
 264.43 644 264.43 644 170.298 547.688 c 0,71,72
 95.2998 451.615 95.2998 451.615 95.2998 297 c 0,73,74
 95.2998 161.092 95.2998 161.092 154.653 74.458 c 256,75,76
 238.735 -12 238.735 -12 374.4 -12 c 0,77,78
 435.035 -12 435.035 -12 483.783 3.77148 c 0,79,80
 533.071 19.7188 533.071 19.7188 557.539 34.7744 c 0,81,82
 562.814 38.0215 562.814 38.0215 568.384 42.123 c 256,83,84
 573.953 46.2246 573.953 46.2246 576.644 48.166 c 256,85,86
 579.335 50.1084 579.335 50.1084 583.392 51.5547 c 256,87,88
 587.449 53 587.449 53 592.4 53 c 0,89,90
 603.4 53 603.4 53 610.9 45 c 256,91,92
 618.4 37 618.4 37 618.4 26 c 0,93,94
 618.4 13.582 618.4 13.582 602.757 -1.35059 c 0,95,96
 590.42 -13.127 590.42 -13.127 566.81 -26.542 c 0,97,98
 543.939 -39.5361 543.939 -39.5361 514.513 -51.4102 c 0,99,100
 484.614 -63.4746 484.614 -63.4746 442.631 -71.249 c 256,101,102
 400.778 -79 400.778 -79 356.4 -79 c 0,103,104
 190.525 -79 190.525 -79 106.019 17.9902 c 0,105,106
 5.2998 115.444 5.2998 115.444 5.2998 286 c 0,0,1
250.4 227 m 0,107,108
 250.4 203.899 250.4 203.899 262.662 193.389 c 0,109,110
 275.949 182 275.949 182 297.4 182 c 0,111,112
 321.071 182 321.071 182 316.206 196.693 c 0,113,114
 333.13 211.916 333.13 211.916 338.249 223.293 c 0,115,116
 346.386 240.281 346.386 240.281 354.338 284.777 c 0,117,118
 376.186 402.592 376.186 402.592 380.997 430.992 c 1,119,120
 377.976 432.861 377.976 432.861 373.916 434.706 c 0,121,122
 360.069 441 360.069 441 349.1 441 c 0,123,124
 319.732 441 319.732 441 285.432 381.924 c 0,125,126
 250.4 321.589 250.4 321.589 250.4 227 c 0,107,108
EndSplineSet
Validated: 524325
EndChar

StartChar: A
Encoding: 65 65 36
Width: 764
GlyphClass: 2
Flags: W
HStem: -2 57.3281<167.17 211.103 448.127 496.178 664.566 743.234> 251 83<243.016 396.815>
VStem: -1 162.587<8.96094 93.812>
LayerCount: 2
Fore
SplineSet
43 -4 m 0,0,1
 -1 -4 -1 -4 -1 21.9219 c 0,2,3
 -1 45.7422 -1 45.7422 23.9932 53.7402 c 0,4,5
 50.7041 63.3564 50.7041 63.3564 72.0146 98.7354 c 0,6,7
 95.6484 137.969 95.6484 137.969 176.611 336.123 c 0,8,9
 248.898 539.731 248.898 539.731 304.199 693.333 c 0,10,11
 310.568 711.104 310.568 711.104 316.934 717.131 c 0,12,13
 323.898 724 323.898 724 336.344 724 c 0,14,15
 352.292 724 352.292 724 360.72 714 c 0,16,17
 365.367 708.354 365.367 708.354 376.69 678.434 c 0,18,19
 382.945 662.288 382.945 662.288 387.646 650.863 c 128,-1,20
 392.348 639.438 392.348 639.438 402.925 613.424 c 0,21,22
 413.358 587.755 413.358 587.755 425.903 560.134 c 0,23,24
 459.589 484.357 459.589 484.357 542.191 309.349 c 128,-1,25
 624.793 134.34 624.793 134.34 631.572 120.397 c 0,26,27
 647.078 90.6328 647.078 90.6328 665.668 75.7646 c 0,28,29
 683.114 61.8105 683.114 61.8105 694.01 60.7988 c 0,30,31
 711.198 59.2021 711.198 59.2021 723.308 55.3281 c 0,32,33
 744.064 48.6875 744.064 48.6875 744.064 26.7939 c 0,34,35
 744.064 -2 744.064 -2 702.064 -2 c 0,36,37
 690.362 -2 690.362 -2 657.664 1.06543 c 0,38,39
 626.364 4 626.364 4 611.424 4 c 0,40,41
 591.937 4 591.937 4 560.859 2.0332 c 0,42,43
 528.732 0 528.732 0 513.459 0 c 0,44,45
 478.529 0 478.529 0 467.393 3.10938 c 0,46,47
 447.097 8.45605 447.097 8.45605 447.097 27.5342 c 0,48,49
 447.097 42.4131 447.097 42.4131 463.578 50.7158 c 0,50,51
 474.421 56.1777 474.421 56.1777 486.635 58.001 c 0,52,53
 491.396 58.7119 491.396 58.7119 496.332 62.8564 c 0,54,55
 499.766 65.7393 499.766 65.7393 499.766 71.8721 c 0,56,57
 499.766 90.1123 499.766 90.1123 474.401 151.894 c 0,58,59
 448.433 215.146 448.433 215.146 431.025 244.492 c 0,60,61
 425.996 253 425.996 253 401.802 253 c 0,62,63
 396.732 253 396.732 253 355.857 252.005 c 0,64,65
 321.741 251 321.741 251 293.576 251 c 2,66,-1
 254.495 251 l 2,67,68
 223.615 251 223.615 251 217.244 247.462 c 0,69,70
 212.573 244.867 212.573 244.867 207.737 231.828 c 0,71,72
 203.281 219.494 203.281 219.494 192.898 192.494 c 0,73,74
 182.648 165.839 182.648 165.839 179.021 155.645 c 128,-1,75
 175.394 145.45 175.394 145.45 169.91 129.107 c 0,76,77
 164.754 113.737 164.754 113.737 163.13 105.026 c 0,78,79
 161.587 96.75 161.587 96.75 161.587 90.874 c 0,80,81
 161.587 74.8867 161.587 74.8867 166.992 67.6826 c 0,82,83
 172.679 60.1025 172.679 60.1025 178.987 59.2393 c 0,84,85
 190.57 57.6533 190.57 57.6533 200.246 53.3545 c 0,86,87
 216.152 46.2871 216.152 46.2871 216.152 26.8232 c 0,88,89
 216.152 15.0029 216.152 15.0029 211.277 7.73828 c 0,90,91
 205.755 -1 205.755 -1 192.557 -1 c 0,92,93
 188.036 -1 188.036 -1 166.924 -0.498047 c 128,-1,94
 146.006 0 146.006 0 129.534 0 c 0,95,96
 107.545 0 107.545 0 80.5879 -1.96094 c 0,97,98
 52.5449 -4 52.5449 -4 43 -4 c 0,0,1
277.175 453.523 m 0,99,100
 245.206 353.72 245.206 353.72 242.704 337.415 c 0,101,102
 242.722 336.681 242.722 336.681 242.787 335.887 c 0,103,104
 250.02 334 250.02 334 269.243 334 c 2,105,-1
 292.042 334 l 1,106,-1
 372.223 335 l 2,107,108
 389.157 335 389.157 335 397.064 337.852 c 1,109,110
 391.049 359.822 391.049 359.822 347.328 453.42 c 0,111,112
 321.96 522.865 321.96 522.865 309.979 547.816 c 1,113,114
 299.401 522.912 299.401 522.912 277.175 453.523 c 0,99,100
EndSplineSet
Validated: 524289
Substitution2: "'c2sc' Capitals to Small Capitals in Latin lookup 13 subtable" a.sc
AlternateSubs2: "'aalt' Access All Alternates in Latin lookup 1 subtable" a.sc
AlternateSubs2: "'aalt' Access All Alternates lookup 0 subtable" a.sc
Position2: "'cpsp' Capital Spacing in Latin lookup 0 subtable" dx=10 dy=0 dh=20 dv=0
EndChar

StartChar: B
Encoding: 66 66 37
Width: 574
GlyphClass: 2
Flags: HW
LayerCount: 2
Fore
SplineSet
9 659 m 128,-1,1
 -1 666 -1 666 -1 679 c 0,2,3
 -1 709 -1 709 23 709 c 0,4,5
 26.3721 709 26.3721 709 36.749 708.481 c 0,6,7
 46.3779 708 46.3779 708 63 708 c 0,8,9
 83.0801 708 83.0801 708 144.264 708.499 c 0,10,11
 208.623 709.001 208.623 709.001 216.278 708.998 c 0,12,13
 234.264 709 234.264 709 260.484 710.486 c 0,14,15
 287.189 712 287.189 712 300.314 712 c 0,16,17
 372.8 712 372.8 712 434.783 667.592 c 0,18,19
 502.906 621.552 502.906 621.552 502.906 537.389 c 0,20,21
 502.906 506.72 502.906 506.72 491.276 479.622 c 0,22,23
 479.78 452.836 479.78 452.836 463.521 435.622 c 0,24,25
 448.194 419.396 448.194 419.396 431.662 407.627 c 0,26,27
 424.62 402.671 424.62 402.671 417.508 398.055 c 1,28,29
 433.611 393.334 433.611 393.334 451.919 386.036 c 0,30,31
 477.582 375.264 477.582 375.264 502.527 356.933 c 0,32,33
 528.883 337.566 528.883 337.566 538.538 300.477 c 128,-1,34
 548.193 263.388 548.193 263.388 548.193 214.07 c 0,35,36
 548.193 169.357 548.193 169.357 521.555 119.265 c 0,37,38
 494.798 68.9512 494.798 68.9512 457.715 44.8848 c 0,39,40
 417.214 13.7812 417.214 13.7812 386.563 3.04199 c 0,41,42
 356.329 -8 356.329 -8 313.933 -8 c 0,43,44
 283.196 -8 283.196 -8 232.79 -2.44824 c 0,45,46
 168.045 3 168.045 3 161.154 3 c 0,47,48
 149.832 3 149.832 3 119.594 1.03711 c 0,49,50
 90.5254 -1 90.5254 -1 72 -1 c 2,51,-1
 58 -1 l 2,52,53
 44 -1 44 -1 33 6.5 c 128,-1,54
 22 14 22 14 22 29 c 0,55,56
 22 40 22 40 29 49 c 128,-1,57
 36 58 36 58 48 58 c 0,58,59
 53.4648 58 53.4648 58 59.9316 58.4619 c 0,60,61
 67.4648 59 67.4648 59 71 59 c 0,62,63
 74.9219 59 74.9219 59 79.3887 62.251 c 0,64,65
 84.6064 66.0498 84.6064 66.0498 92.0732 83.8154 c 0,66,67
 100.082 102.875 100.082 102.875 101.01 133.777 c 0,68,69
 104 195.443 104 195.443 104 430.22 c 2,70,-1
 104 592.033 l 2,71,72
 104 596.85 104 596.85 101.994 604.105 c 0,73,74
 99.8643 611.81 99.8643 611.81 92.998 625.316 c 0,75,76
 87.6133 635.909 87.6133 635.909 72.3887 643.712 c 0,77,78
 56.2188 652 56.2188 652 31 652 c 0,79,0
 19 652 19 652 9 659 c 128,-1,1
217.877 114.963 m 0,80,81
 217.358 106.305 217.358 106.305 217.358 104.779 c 0,82,83
 217.358 62 217.358 62 280.643 62 c 2,84,-1
 298.044 62 l 2,85,86
 338.02 62 338.02 62 361.284 66.5654 c 0,87,88
 392.282 73.1934 392.282 73.1934 412.644 107.571 c 0,89,90
 433.193 142.747 433.193 142.747 433.193 192.195 c 0,91,92
 433.193 235.354 433.193 235.354 421.084 266.052 c 0,93,94
 408.605 296.963 408.605 296.963 393.762 312.115 c 0,95,96
 377.4 327.638 377.4 327.638 355.517 336.363 c 0,97,98
 332.735 345.448 332.735 345.448 320.589 347.191 c 0,99,100
 307.992 349 307.992 349 296.531 349 c 0,101,102
 272.181 349 272.181 349 256.532 349.505 c 0,103,104
 241.161 350 241.161 350 237.138 350 c 0,105,106
 232.17 350 232.17 350 228.724 350.65 c 0,107,108
 226.873 351 226.873 351 226.167 351 c 0,109,110
 225.012 351 225.012 351 223.639 350.873 c 1,111,112
 222.638 347.068 222.638 347.068 221.759 341.861 c 0,113,114
 219.339 327.525 219.339 327.525 218.978 299.435 c 0,115,116
 218.439 270.082 218.439 270.082 218.439 211.253 c 2,117,-1
 218.439 146.608 l 2,118,119
 218.439 124.37 218.439 124.37 217.877 114.963 c 0,80,81
222.384 574 m 2,120,-1
 222.384 545 l 2,121,122
 222.384 495.137 222.384 495.137 222.761 467.268 c 0,123,124
 223.128 440.131 223.128 440.131 224.555 425.982 c 0,125,126
 225.147 420.099 225.147 420.099 225.833 415.403 c 1,127,128
 244.315 413 244.315 413 259.458 413 c 2,129,-1
 307.88 413 l 2,130,131
 350.689 413 350.689 413 371.17 441.357 c 0,132,133
 391.863 470.01 391.863 470.01 391.863 516 c 0,134,135
 391.863 565.787 391.863 565.787 355.466 613.894 c 128,-1,136
 319.068 662 319.068 662 250.379 662 c 0,137,138
 233.532 662 233.532 662 228.85 651.096 c 0,139,140
 222.384 636.04 222.384 636.04 222.384 574 c 2,120,-1
EndSplineSet
Validated: 524321
Substitution2: "'c2sc' Capitals to Small Capitals in Latin lookup 13 subtable" b.sc
AlternateSubs2: "'aalt' Access All Alternates in Latin lookup 1 subtable" b.sc
AlternateSubs2: "'aalt' Access All Alternates lookup 0 subtable" b.sc
Position2: "'cpsp' Capital Spacing in Latin lookup 0 subtable" dx=10 dy=0 dh=20 dv=0
EndChar

StartChar: C
Encoding: 67 67 38
Width: 706
GlyphClass: 2
Flags: W
HStem: -20 76<264.727 462.075> 643 71<242.445 431.17>
VStem: 15.7998 112.489<228.974 466.611>
LayerCount: 2
Fore
SplineSet
28.2754 229.17 m 0,0,1
 15.7998 275.56 15.7998 275.56 15.7998 325.366 c 0,2,3
 15.7998 433.252 15.7998 433.252 59.292 519.704 c 0,4,5
 102.5 606.998 102.5 606.998 168.944 660.549 c 0,6,7
 236.682 714 236.682 714 329.053 714 c 0,8,9
 375.997 714 375.997 714 437.663 695.405 c 0,10,11
 504.824 677.049 504.824 677.049 544.22 658.418 c 2,12,-1
 574.979 642.623 l 1,13,14
 586.705 651 586.705 651 595.513 651 c 0,15,16
 605.774 651 605.774 651 614.883 643.713 c 0,17,18
 625.513 635.21 625.513 635.21 625.513 620.259 c 0,19,20
 626.485 592.062 626.485 592.062 629.927 560.106 c 0,21,22
 633.396 527.883 633.396 527.883 636.362 507.121 c 0,23,24
 639.513 485.066 639.513 485.066 639.513 480 c 0,25,26
 639.513 467 639.513 467 633.013 457 c 128,-1,27
 626.513 447 626.513 447 612.513 447 c 0,28,29
 594.809 447 594.809 447 582.379 468.751 c 0,30,31
 487.393 643 487.393 643 329.053 643 c 0,32,33
 240.728 643 240.728 643 184.509 571.07 c 128,-1,34
 128.289 499.141 128.289 499.141 128.289 382.322 c 0,35,36
 128.289 316.857 128.289 316.857 141.579 259.87 c 0,37,38
 154.789 203.227 154.789 203.227 181.548 156.208 c 0,39,40
 207.703 110.249 207.703 110.249 254.106 83.2617 c 0,41,42
 300.981 56 300.981 56 364 56 c 0,43,44
 496.835 56 496.835 56 591.954 199.204 c 1,45,46
 613.238 213 613.238 213 619.513 213 c 0,47,48
 631.513 213 631.513 213 637.513 204 c 128,-1,49
 643.513 195 643.513 195 643.513 184 c 0,50,51
 643.513 171.592 643.513 171.592 639.75 151.712 c 0,52,53
 636.208 132.991 636.208 132.991 631.156 110.246 c 0,54,55
 626.188 87.8867 626.188 87.8867 625.246 83.1865 c 0,56,57
 621.929 64.9375 621.929 64.9375 601.119 54.5332 c 0,58,59
 546.709 28.3359 546.709 28.3359 515.42 15.2012 c 0,60,61
 481.676 1.66113 481.676 1.66113 430.322 -9.13867 c 0,62,63
 382.332 -20 382.332 -20 344.667 -20 c 0,64,65
 278.34 -20 278.34 -20 224.722 1.63281 c 0,66,67
 170.723 22.5391 170.723 22.5391 136.017 56.7598 c 0,68,69
 102.828 90.8643 102.828 90.8643 71.8643 136.545 c 128,-1,70
 40.9004 182.226 40.9004 182.226 28.2754 229.17 c 0,0,1
EndSplineSet
Validated: 524289
Substitution2: "'c2sc' Capitals to Small Capitals in Latin lookup 13 subtable" c.sc
AlternateSubs2: "'aalt' Access All Alternates in Latin lookup 1 subtable" c.sc
AlternateSubs2: "'aalt' Access All Alternates lookup 0 subtable" c.sc
Position2: "'cpsp' Capital Spacing in Latin lookup 0 subtable" dx=10 dy=0 dh=20 dv=0
EndChar

StartChar: D
Encoding: 68 68 39
Width: 716
GlyphClass: 2
Flags: W
HStem: -3 67<227.296 416.837> -3 58.042<22.0951 78.6417> 648.288 63.7119<2.45527 86.6651> 673 40.9932<218.53 368.182>
VStem: 92 110.357<96.9397 642.748> 564.211 115<225.339 476.873>
LayerCount: 2
Fore
SplineSet
10.8105 659.819 m 0,0,1
 -1 669.405 -1 669.405 -1 685.669 c 0,2,3
 -1 694.396 -1 694.396 4.89453 701.382 c 0,4,5
 10.7891 708.665 10.7891 708.665 19.8936 710.271 c 0,6,7
 29.6875 712 29.6875 712 65 712 c 2,8,-1
 153.911 712 l 2,9,10
 180.142 712 180.142 712 230.166 713.993 c 0,11,12
 279.933 716 279.933 716 306.773 716 c 0,13,14
 359.52 716 359.52 716 418.923 695.212 c 128,-1,15
 478.325 674.424 478.325 674.424 541.694 635.267 c 0,16,17
 603.54 595.465 603.54 595.465 641.26 531.592 c 0,18,19
 679.211 467.328 679.211 467.328 679.211 388.658 c 0,20,21
 679.211 320.147 679.211 320.147 669.462 269.413 c 0,22,23
 659.482 217.482 659.482 217.482 636.148 179.304 c 0,24,25
 613.3 141.919 613.3 141.919 590.16 118.192 c 0,26,27
 567.559 95.0146 567.559 95.0146 526.963 63.625 c 1,28,29
 493.057 39.0127 493.057 39.0127 431.322 18.0469 c 0,30,31
 387.251 -3 387.251 -3 340.839 -3 c 0,32,33
 336.252 -3 336.252 -3 265.014 -0.495117 c 0,34,35
 194.065 2 194.065 2 154.969 2 c 0,36,37
 118.624 2 118.624 2 89.2461 -0.448242 c 0,38,39
 58.624 -3 58.624 -3 53 -3 c 0,40,41
 14 -3 14 -3 14 23.8564 c 0,42,43
 14 37.4883 14 37.4883 21.8936 45.0596 c 0,44,45
 28.2734 51.1787 28.2734 51.1787 43.7139 55.042 c 0,46,47
 53.7373 57.5498 53.7373 57.5498 58.2314 59.1992 c 0,48,49
 70.3447 64.5303 70.3447 64.5303 81.1719 79.5312 c 128,-1,50
 92 94.5322 92 94.5322 92 108.262 c 0,51,52
 92 161.985 92 161.985 92.5 245.456 c 128,-1,53
 93 328.927 93 328.927 93 368.19 c 0,54,55
 93 402.702 93 402.702 92.5 476.059 c 128,-1,56
 92 549.416 92 549.416 92 611.814 c 0,57,58
 92 622.407 92 622.407 79.6123 635.009 c 128,-1,59
 67.2246 647.61 67.2246 647.61 53.0908 648.288 c 0,60,61
 38.3271 649.299 38.3271 649.299 31.2188 650.348 c 0,62,63
 20.54 651.924 20.54 651.924 10.8105 659.819 c 0,0,1
202.728 238.933 m 128,-1,65
 202.357 168.928 202.357 168.928 202.357 156 c 0,66,67
 202.357 137.313 202.357 137.313 202.718 125.624 c 0,68,69
 203.02 115.852 203.02 115.852 205.066 107.955 c 0,70,71
 206.993 100.52 206.993 100.52 208.204 96.8232 c 1,72,73
 209.862 95.2031 209.862 95.2031 212.509 93.416 c 0,74,75
 218.931 89.0811 218.931 89.0811 221.942 87.9717 c 0,76,77
 226.033 86.4648 226.033 86.4648 239.396 81.4531 c 128,-1,78
 252.588 76.5039 252.588 76.5039 261.513 73.4912 c 0,79,80
 286.112 64 286.112 64 312.698 64 c 2,81,-1
 327.509 64 l 2,82,83
 375.695 64 375.695 64 411.23 82.4111 c 128,-1,84
 446.767 100.823 446.767 100.823 491.105 140.831 c 0,85,86
 564.211 207.398 564.211 207.398 564.211 360 c 0,87,88
 564.211 436.556 564.211 436.556 532.765 498.458 c 0,89,90
 501.108 560.205 501.108 560.205 450.206 596.528 c 0,91,92
 408.852 633.609 408.852 633.609 366.87 653.305 c 128,-1,93
 324.89 673 324.89 673 282.335 673 c 2,94,-1
 253.084 673 l 2,95,96
 244.666 673 244.666 673 233.272 670.669 c 0,97,98
 222.17 668.398 222.17 668.398 218.411 667.091 c 0,99,100
 216.638 665.854 216.638 665.854 213.408 661.22 c 0,101,102
 209.763 655.989 209.763 655.989 209.052 653.321 c 0,103,104
 208.018 647.439 208.018 647.439 206.318 631.379 c 0,105,106
 204.578 614.934 204.578 614.934 204.578 603 c 2,107,-1
 204.578 561 l 2,108,109
 204.578 538.916 204.578 538.916 203.838 457.413 c 128,-1,110
 203.098 375.91 203.098 375.91 203.098 369 c 0,111,64
 203.098 308.938 203.098 308.938 202.728 238.933 c 128,-1,65
EndSplineSet
Validated: 524289
Substitution2: "'c2sc' Capitals to Small Capitals in Latin lookup 13 subtable" d.sc
AlternateSubs2: "'aalt' Access All Alternates in Latin lookup 1 subtable" d.sc
AlternateSubs2: "'aalt' Access All Alternates lookup 0 subtable" d.sc
Position2: "'cpsp' Capital Spacing in Latin lookup 0 subtable" dx=10 dy=0 dh=20 dv=0
EndChar

StartChar: E
Encoding: 69 69 40
Width: 585
GlyphClass: 2
Flags: W
HStem: -4 56.75<13.0851 78.2998> 5 73<212.135 429.169> 322 77<204.034 373.4> 633 73<211.361 429.573> 651 62<7.83836 87.0298>
VStem: 95 107.184<84.9395 323 399.232 629.016> 394.395 62.3311<239.307 310.188> 401.485 60.2402<413.307 462.107> 446.726 61<544.344 615.014>
LayerCount: 2
Fore
SplineSet
7.56934 660.658 m 128,-1,1
 -1 670.317 -1 670.317 -1 684 c 0,2,3
 -1 713 -1 713 42 713 c 0,4,5
 46.8291 713 46.8291 713 56.6562 711.908 c 0,6,7
 64.832 711 64.832 711 69 711 c 0,8,9
 72.2188 711 72.2188 711 167.176 708.494 c 0,10,11
 240.3 706 240.3 706 284.953 706 c 0,12,13
 300.748 706 300.748 706 384.044 707.996 c 0,14,15
 471.56 710 471.56 710 485.726 710 c 0,16,17
 498.623 710 498.623 710 507.306 702.993 c 0,18,19
 519.726 692.971 519.726 692.971 519.726 672 c 0,20,21
 519.726 664.673 519.726 664.673 513.491 629.855 c 0,22,23
 507.726 597.662 507.726 597.662 507.726 570 c 0,24,25
 507.726 555.896 507.726 555.896 499.616 545.354 c 0,26,27
 490.111 533 490.111 533 476.726 533 c 0,28,29
 461.726 533 461.726 533 454.226 544 c 128,-1,30
 446.726 555 446.726 555 446.726 569 c 0,31,32
 446.726 590.881 446.726 590.881 431.766 608.828 c 0,33,34
 417.966 625.291 417.966 625.291 398.126 626.023 c 0,35,36
 304.987 633 304.987 633 269.007 633 c 2,37,-1
 249.265 633 l 2,38,39
 219.922 633 219.922 633 211.08 629.318 c 1,40,41
 207.808 619.8 207.808 619.8 206.729 589.074 c 0,42,43
 203.705 521.711 203.705 521.711 203.705 432.831 c 0,44,45
 203.705 406.267 203.705 406.267 207.902 399 c 1,46,-1
 281.156 399 l 2,47,48
 330.215 399 330.215 399 350.332 402.709 c 0,49,50
 368.751 406.104 368.751 406.104 383.37 415.37 c 0,51,52
 398.273 424.771 398.273 424.771 401.485 442.538 c 0,53,54
 407.126 472 407.126 472 432.709 472 c 0,55,56
 450.754 472 450.754 472 457.206 462.32 c 0,57,58
 461.726 455.541 461.726 455.541 461.726 441 c 0,59,60
 461.726 433.236 461.726 433.236 457.647 393.47 c 0,61,62
 453.726 355.229 453.726 355.229 453.726 336 c 0,63,64
 453.726 317.661 453.726 317.661 455.168 301.318 c 0,65,66
 456.726 283.66 456.726 283.66 456.726 275 c 0,67,68
 456.726 235 456.726 235 433.794 235 c 0,69,70
 405.318 235 405.318 235 394.395 269.526 c 1,71,72
 381.833 304.271 381.833 304.271 374.002 310.386 c 1,73,74
 355.104 322 355.104 322 289.509 322 c 2,75,-1
 252.682 322 l 2,76,77
 238.117 322 238.117 322 233.427 322.562 c 0,78,79
 229.766 323 229.766 323 227.624 323 c 2,80,-1
 222.688 323 l 2,81,82
 207.316 323 207.316 323 202.946 319.001 c 1,83,84
 202.936 291.178 202.936 291.178 202.184 250.589 c 0,85,86
 201.428 209.756 201.428 209.756 201.428 183.538 c 2,87,-1
 201.428 145.846 l 2,88,89
 201.428 124.533 201.428 124.533 203.69 109.668 c 128,-1,90
 205.954 94.8027 205.954 94.8027 208.038 90.1279 c 128,-1,91
 210.123 85.4531 210.123 85.4531 211.592 84.9219 c 0,92,93
 229.021 78 229.021 78 240.912 78 c 0,94,95
 297.159 78 297.159 78 349.894 84.8857 c 0,96,97
 409.319 91.6738 409.319 91.6738 438.474 101.575 c 0,98,99
 465.923 111.479 465.923 111.479 483.481 123.031 c 0,100,101
 499.24 133.398 499.24 133.398 502.938 140.46 c 0,102,103
 509.078 152.181 509.078 152.181 515.431 160.268 c 0,104,105
 525.435 173 525.435 173 538.726 173 c 0,106,107
 551.726 173 551.726 173 558.726 163 c 128,-1,108
 565.726 153 565.726 153 565.726 141 c 0,109,110
 565.726 91.8887 565.726 91.8887 518.383 43.4443 c 128,-1,111
 471.041 -5 471.041 -5 431.624 -5 c 0,112,113
 353.072 -5 353.072 -5 272.556 0.0224609 c 0,114,115
 204.149 5 204.149 5 187.76 5 c 0,116,117
 161.09 5 161.09 5 116.598 0.584961 c 0,118,119
 73.8008 -4 73.8008 -4 49 -4 c 0,120,121
 13 -4 13 -4 13 19.9053 c 2,122,-1
 13 31.3799 l 2,123,124
 13 41.9248 13 41.9248 22.6797 48.0947 c 0,125,126
 28.5107 51.8115 28.5107 51.8115 35.3789 52.75 c 0,127,128
 37.6582 53.0615 37.6582 53.0615 45.9385 55.5615 c 128,-1,129
 54.2197 58.0625 54.2197 58.0625 64.5332 62.4912 c 0,130,131
 81.9336 71.1689 81.9336 71.1689 87.833 97.4941 c 0,132,133
 95 129.477 95 129.477 95 235.051 c 2,134,-1
 95 353.62 l 2,135,136
 95 379.625 95 379.625 96.5049 434.319 c 0,137,138
 98 488.636 98 488.636 98 519.044 c 0,139,140
 98 544.638 98 544.638 96.0078 605.588 c 0,141,142
 95.2744 625.938 95.2744 625.938 77.6797 637.153 c 0,143,144
 57.2461 650.179 57.2461 650.179 29.7656 651 c 0,145,0
 16.1387 651 16.1387 651 7.56934 660.658 c 128,-1,1
EndSplineSet
Validated: 524289
Substitution2: "'c2sc' Capitals to Small Capitals in Latin lookup 13 subtable" e.sc
AlternateSubs2: "'aalt' Access All Alternates in Latin lookup 1 subtable" e.sc
AlternateSubs2: "'aalt' Access All Alternates lookup 0 subtable" e.sc
Position2: "'cpsp' Capital Spacing in Latin lookup 0 subtable" dx=10 dy=0 dh=20 dv=0
EndChar

StartChar: F
Encoding: 70 70 41
Width: 522
GlyphClass: 2
Flags: HW
LayerCount: 2
Fore
SplineSet
10.3984 659.212 m 0,0,1
 -1 667.19 -1 667.19 -1 682 c 0,2,3
 -1 688.541 -1 688.541 2.08398 694.708 c 0,4,5
 5.49609 701.533 5.49609 701.533 15.625 707.767 c 128,-1,6
 25.7539 714 25.7539 714 40 714 c 2,7,-1
 67 714 l 2,8,9
 91.4043 714 91.4043 714 147.939 710.977 c 0,10,11
 206.277 708 206.277 708 274.903 708 c 0,12,13
 329.248 708 329.248 708 371.283 710.484 c 0,14,15
 424.386 713 424.386 713 470.731 713 c 0,16,17
 486.731 713 486.731 713 494.731 701.5 c 128,-1,18
 502.731 690 502.731 690 502.731 674 c 0,19,20
 502.731 663.895 502.731 663.895 500.57 649.302 c 0,21,22
 498.537 635.576 498.537 635.576 494.501 612.875 c 0,23,24
 490.605 590.973 490.605 590.973 488.662 570.547 c 0,25,26
 487.304 556.977 487.304 556.977 479.835 546.988 c 128,-1,27
 472.366 537 472.366 537 458.731 537 c 0,28,29
 444.731 537 444.731 537 437.231 547.5 c 128,-1,30
 429.731 558 429.731 558 429.731 572 c 0,31,32
 429.731 601.261 429.731 601.261 421.798 613.121 c 128,-1,33
 413.863 624.981 413.863 624.981 397.647 626.039 c 0,34,35
 277.527 638 277.527 638 255.677 638 c 0,36,37
 226.707 638 226.707 638 221.318 632 c 0,38,39
 216.309 625.172 216.309 625.172 215.684 599.233 c 2,40,-1
 215.684 591.525 l 1,41,-1
 215.658 591.134 l 2,42,43
 212.388 540.735 212.388 540.735 212.388 434.857 c 0,44,45
 212.388 409.6 212.388 409.6 217.248 401.927 c 1,46,47
 221.492 401.824 221.492 401.824 226.744 401.446 c 0,48,49
 232.944 401 232.944 401 234.911 401 c 0,50,51
 240.094 401 240.094 401 250.65 401.49 c 0,52,53
 261.619 402 261.619 402 267.981 402 c 2,54,-1
 291.823 402 l 2,55,56
 336.94 402 336.94 402 350.926 405.264 c 0,57,58
 363.476 408.192 363.476 408.192 373.799 417.421 c 0,59,60
 378.723 421.688 378.723 421.688 381.941 426.95 c 0,61,62
 385.488 432.512 385.488 432.512 386.974 440.684 c 0,63,64
 389.463 454.374 389.463 454.374 393.87 461.718 c 0,65,66
 401.239 474 401.239 474 418.731 474 c 0,67,68
 435.76 474 435.76 474 442.212 464.32 c 0,69,70
 446.731 457.541 446.731 457.541 446.731 443 c 0,71,72
 446.731 434.8 446.731 434.8 442.042 405.62 c 0,73,74
 437.731 378.805 437.731 378.805 437.731 360 c 0,75,76
 437.731 341.952 437.731 341.952 441.112 315.394 c 0,77,78
 444.731 286.95 444.731 286.95 444.731 278 c 0,79,80
 444.731 256.854 444.731 256.854 438.072 248.291 c 0,81,82
 430.068 238 430.068 238 415.731 238 c 0,83,84
 400.609 238 400.609 238 391.533 248.81 c 128,-1,85
 382.457 259.62 382.457 259.62 379.643 275.63 c 2,86,-1
 379.498 276.808 l 1,87,-1
 379.498 277.909 l 2,88,89
 379.386 279.959 379.386 279.959 378.845 284.879 c 0,90,91
 378.096 291.706 378.096 291.706 377.731 294.534 c 0,92,93
 377.522 296.172 377.522 296.172 376.348 300.374 c 0,94,95
 375.283 304.18 375.283 304.18 374.514 305.68 c 0,96,97
 373.362 307.925 373.362 307.925 371.508 310.738 c 0,98,99
 371.045 311.441 371.045 311.441 369.699 312.141 c 0,100,101
 360.375 317.337 360.375 317.337 334.387 321.092 c 0,102,103
 307.336 325 307.336 325 299.514 325 c 2,104,-1
 232.604 325 l 2,105,106
 217.034 325 217.034 325 211.289 320.986 c 1,107,108
 211.274 293.058 211.274 293.058 210.186 252.316 c 0,109,110
 209.092 211.331 209.092 211.331 209.092 185.015 c 0,111,112
 209.092 178.129 209.092 178.129 208.531 165.1 c 0,113,114
 207.993 152.596 207.993 152.596 207.993 147.181 c 0,115,116
 207.993 129.668 207.993 129.668 212.068 112.129 c 0,117,118
 215.59 96.9707 215.59 96.9707 228.547 79.0322 c 0,119,120
 240.102 63 240.102 63 260.291 63 c 0,121,122
 294.899 63 294.899 63 294.899 30 c 0,123,124
 294.899 23.459 294.899 23.459 292.143 16.292 c 0,125,126
 288.961 8.01465 288.961 8.01465 279.947 1.76465 c 0,127,128
 271.635 -4 271.635 -4 259.521 -4 c 0,129,130
 246.551 -4 246.551 -4 219.354 0.0996094 c 0,131,132
 183.968 4 183.968 4 171.737 4 c 0,133,134
 141.688 4 141.688 4 105.8 1.05664 c 0,135,136
 70.6514 -2 70.6514 -2 46 -2 c 0,137,138
 11 -2 11 -2 11 22.8613 c 0,139,140
 11 42.9678 11 42.9678 22.1797 50.0947 c 0,141,142
 28.2393 53.958 28.2393 53.958 64.0508 66.043 c 0,143,144
 81.3682 71.7754 81.3682 71.7754 86.1348 105.577 c 0,145,146
 92.0068 147.226 92.0068 147.226 93 276.309 c 2,147,-1
 93 355.62 l 2,148,149
 93 381.623 93 381.623 94.5049 436.794 c 0,150,151
 96 491.591 96 491.591 96 522 c 2,152,-1
 96 577.46 l 2,153,154
 96 630.998 96 630.998 57.8682 648.516 c 0,155,156
 52.4238 650.627 52.4238 650.627 44.7744 651.725 c 0,157,158
 35.8799 653 35.8799 653 30.5 653 c 0,159,160
 19.2715 653 19.2715 653 10.3984 659.212 c 0,0,1
EndSplineSet
Validated: 524289
Substitution2: "'c2sc' Capitals to Small Capitals in Latin lookup 13 subtable" f.sc
AlternateSubs2: "'aalt' Access All Alternates in Latin lookup 1 subtable" f.sc
AlternateSubs2: "'aalt' Access All Alternates lookup 0 subtable" f.sc
Position2: "'cpsp' Capital Spacing in Latin lookup 0 subtable" dx=10 dy=0 dh=20 dv=0
EndChar

StartChar: G
Encoding: 71 71 42
Width: 719
GlyphClass: 2
Flags: W
HStem: -17 71<259.148 424.971> 324.82 60.1797<412.944 497.516> 650 69<243.229 417.592>
VStem: 15.7998 112.464<232.306 469.067> 511.109 113.916<118.093 310.206> 580.285 57.7402<467.313 514.572>
LayerCount: 2
Fore
SplineSet
37.668 203.872 m 0,0,1
 15.7998 262.807 15.7998 262.807 15.7998 330.518 c 0,2,3
 15.7998 438.47 15.7998 438.47 60.8838 524.958 c 0,4,5
 104.694 612.186 104.694 612.186 172.867 665.662 c 0,6,7
 242.019 719 242.019 719 336.733 719 c 0,8,9
 373.198 719 373.198 719 409.916 711.266 c 128,-1,10
 446.635 703.532 446.635 703.532 476.48 693.066 c 0,11,12
 505.95 682.731 505.95 682.731 528.007 671.766 c 128,-1,13
 550.063 660.801 550.063 660.801 562.032 652.706 c 0,14,15
 564.27 651.193 564.27 651.193 566.499 649.743 c 1,16,17
 568.904 651.347 568.904 651.347 570.807 652.706 c 0,18,19
 585.219 663 585.219 663 594.025 663 c 0,20,21
 608.315 663 608.315 663 616.171 652.512 c 128,-1,22
 624.025 642.023 624.025 642.023 624.025 628.259 c 0,23,24
 624.999 600.077 624.999 600.077 628.437 568.631 c 0,25,26
 631.906 536.898 631.906 536.898 634.876 516.121 c 0,27,28
 638.025 494.066 638.025 494.066 638.025 489 c 0,29,30
 638.025 477 638.025 477 631.025 467 c 128,-1,31
 624.025 457 624.025 457 611.025 457 c 0,32,33
 589.026 457 589.026 457 580.285 477.976 c 0,34,35
 546.187 549.735 546.187 549.735 468.668 599.867 c 128,-1,36
 391.148 650 391.148 650 330.08 650 c 0,37,38
 242.146 650 242.146 650 185.117 579.257 c 0,39,40
 128.264 508.733 128.264 508.733 128.264 382.467 c 0,41,42
 128.264 297.751 128.264 297.751 152.534 223.284 c 0,43,44
 176.523 149.682 176.523 149.682 225.547 101.535 c 0,45,46
 273.946 54 273.946 54 336.733 54 c 0,47,48
 390.763 54 390.763 54 442.646 85.6533 c 0,49,50
 501.442 115.479 501.442 115.479 508.089 151.631 c 1,51,52
 511.109 174.267 511.109 174.267 511.109 270.202 c 0,53,54
 511.109 301.567 511.109 301.567 497.797 313.628 c 0,55,56
 488.967 321.626 488.967 321.626 460.761 324.82 c 0,57,58
 421.025 328.42 421.025 328.42 412.676 343.864 c 0,59,60
 409.92 351 409.92 351 409.92 360.127 c 0,61,62
 409.92 385 409.92 385 442.465 385 c 0,63,64
 456.656 385 456.656 385 502.524 382.572 c 0,65,66
 547.474 380.194 547.474 380.194 559.689 380.194 c 0,67,68
 579.841 380.194 579.841 380.194 602.699 380.671 c 0,69,70
 625.867 381.155 625.867 381.155 640.025 381.155 c 2,71,-1
 655.025 381.155 l 2,72,73
 686.025 381.155 686.025 381.155 686.025 358.087 c 0,74,75
 686.025 354.198 686.025 354.198 685.056 350.89 c 128,-1,76
 684.087 347.581 684.087 347.581 681.512 344.792 c 128,-1,77
 678.938 342.003 678.938 342.003 677.155 340.163 c 128,-1,78
 675.373 338.323 675.373 338.323 670.94 336.089 c 128,-1,79
 666.508 333.854 666.508 333.854 664.816 333.023 c 128,-1,80
 663.126 332.193 663.126 332.193 657.738 330.054 c 128,-1,81
 652.351 327.915 652.351 327.915 651.467 327.548 c 0,82,83
 633.392 320.054 633.392 320.054 631.814 311.465 c 0,84,85
 625.025 271.386 625.025 271.386 625.025 206.223 c 0,86,87
 625.025 177.69 625.025 177.69 626.012 155.907 c 0,88,89
 627.011 133.828 627.011 133.828 627.505 124.801 c 0,90,91
 627.97 116.315 627.97 116.315 628.876 110.223 c 0,92,93
 630.025 102.48 630.025 102.48 630.025 98.5723 c 0,94,95
 630.025 83.375 630.025 83.375 612.269 77.6855 c 0,96,97
 604.324 75.1406 604.324 75.1406 586.863 70.6982 c 0,98,99
 571.762 66.8555 571.762 66.8555 559.101 60.1035 c 2,100,-1
 552.394 56.6152 l 2,101,102
 544.507 51.5527 544.507 51.5527 536.887 47.5889 c 128,-1,103
 529.268 43.626 529.268 43.626 516.926 37.7656 c 128,-1,104
 504.584 31.9053 504.584 31.9053 491.792 26.085 c 0,105,106
 478.734 20.1426 478.734 20.1426 462.491 13.7363 c 0,107,108
 445.882 6.9209 445.882 6.9209 428.181 1.68262 c 0,109,110
 412.107 -3.47852 412.107 -3.47852 399.085 -7.62305 c 128,-1,111
 386.062 -11.7676 386.062 -11.7676 371.853 -14.3652 c 0,112,113
 357.439 -17 357.439 -17 343.387 -17 c 0,114,115
 260.841 -17 260.841 -17 199.482 13.416 c 0,116,117
 137.299 42.9844 137.299 42.9844 104.09 94.2109 c 0,118,119
 59.6221 144.708 59.6221 144.708 37.668 203.872 c 0,0,1
EndSplineSet
Validated: 524289
Substitution2: "'c2sc' Capitals to Small Capitals in Latin lookup 13 subtable" g.sc
AlternateSubs2: "'aalt' Access All Alternates in Latin lookup 1 subtable" g.sc
AlternateSubs2: "'aalt' Access All Alternates lookup 0 subtable" g.sc
Position2: "'cpsp' Capital Spacing in Latin lookup 0 subtable" dx=10 dy=0 dh=20 dv=0
EndChar

StartChar: H
Encoding: 72 72 43
Width: 767
GlyphClass: 2
Flags: W
HStem: 0 59<231.866 282.487> 0 50.2715<13.7969 78.2536 667.905 739.518> 327 72<206.213 504.42> 647 61<210.425 255.789> 652.314 53.6855<2.03394 89.818 423.594 459.176 470.142 495.134 635.403 686.409>
VStem: 100.5 101.738<72.8814 327 399 640.947> 507.352 115.322<398.857 640.68> 514.26 132.84<68.4253 322.729>
LayerCount: 2
Fore
SplineSet
8.04883 665.681 m 0,0,1
 -1 675.942 -1 675.942 -1 685.053 c 0,2,3
 -1 710 -1 710 42 710 c 0,4,5
 52.4248 710 52.4248 710 88.832 707.977 c 0,6,7
 124.709 706 124.709 706 156.996 706 c 0,8,9
 176.604 706 176.604 706 190.899 706.976 c 0,10,11
 204.14 708 204.14 708 229.58 708 c 0,12,13
 256.917 708 256.917 708 256.917 679 c 0,14,15
 256.917 647 256.917 647 219.976 647 c 0,16,17
 214.113 647 214.113 647 209.375 619.45 c 0,18,19
 202.983 582.286 202.983 582.286 202.983 543.273 c 2,20,-1
 202.983 508.384 l 2,21,22
 202.983 485.515 202.983 485.515 202.238 456.529 c 0,23,24
 201.506 428.006 201.506 428.006 201.506 421.631 c 0,25,26
 201.506 406.996 201.506 406.996 203.25 400.918 c 1,27,28
 206.899 399 206.899 399 215.543 399 c 0,29,30
 216.964 399 216.964 399 244.207 399.499 c 128,-1,31
 271.603 400 271.603 400 336.709 400 c 0,32,33
 342.766 400 342.766 400 356.948 399.495 c 0,34,35
 370.878 398.999 370.878 398.999 406.738 398.499 c 0,36,37
 448.369 398.045 448.369 398.045 501.882 398.003 c 1,38,39
 507.352 424.836 507.352 424.836 507.352 516.125 c 2,40,-1
 507.352 567.525 l 2,41,42
 507.352 602.095 507.352 602.095 499.361 621.59 c 0,43,44
 492.412 638.547 492.412 638.547 484.312 642.638 c 0,45,46
 473.575 648.06 473.575 648.06 463.16 649.562 c 0,47,48
 448.144 651.73 448.144 651.73 437.469 655.694 c 0,49,50
 418.694 662.666 418.694 662.666 418.694 681.746 c 0,51,52
 418.694 691.265 418.694 691.265 423.443 696.5 c 0,53,54
 428.193 702 428.193 702 440.858 704 c 128,-1,55
 453.523 706 453.523 706 457.218 706 c 0,56,57
 460.912 721 460.912 721 475.688 706 c 0,58,59
 486.463 706 486.463 706 521.552 704.993 c 0,60,61
 556.159 704 556.159 704 578.066 704 c 0,62,63
 588.288 704 588.288 704 612.576 705 c 128,-1,64
 636.865 706 636.865 706 657.176 706 c 0,65,66
 695.176 706 695.176 706 695.176 679.157 c 0,67,68
 695.176 667.653 695.176 667.653 686.676 659.983 c 128,-1,69
 678.176 652.314 678.176 652.314 666.176 652.314 c 0,70,71
 645.097 652.314 645.097 652.314 635.088 641.065 c 0,72,73
 624.176 628.799 624.176 628.799 624.176 607.257 c 0,74,75
 624.176 575.569 624.176 575.569 622.674 495.312 c 0,76,77
 621.176 415.336 621.176 415.336 621.175 374.299 c 0,78,79
 651.176 352.038 651.176 352.038 648.095 304.505 c 0,80,81
 647.1 257.208 647.1 257.208 647.1 230.498 c 2,82,-1
 647.1 195.027 l 2,83,84
 647.1 166.832 647.1 166.832 649.054 142.945 c 0,85,86
 651.1 117.937 651.1 117.937 651.1 106.829 c 0,87,88
 651.1 81.7031 651.1 81.7031 667.391 67.9941 c 128,-1,89
 683.682 54.2852 683.682 54.2852 720.876 50.2715 c 0,90,91
 732.398 49.7891 732.398 49.7891 739.749 42.75 c 128,-1,92
 747.1 35.71 747.1 35.71 747.1 25.3418 c 0,93,94
 747.1 15.9258 747.1 15.9258 740.31 10.083 c 0,95,96
 733.521 3.9873 733.521 3.9873 725.041 2.29102 c 0,97,98
 713.585 0 713.585 0 683.1 0 c 0,99,100
 671.367 0 671.367 0 645.136 2.57129 c 0,101,102
 618.61 5 618.61 5 600.622 5 c 0,103,104
 578.851 5 578.851 5 547.62 2.57129 c 0,105,106
 514.546 0 514.546 0 482.1 0 c 2,107,-1
 465.1 0 l 2,108,109
 457.577 0 457.577 0 449.593 2.02832 c 0,110,111
 437.449 5.11426 437.449 5.11426 432.511 12.7822 c 0,112,113
 428.605 18.5693 428.605 18.5693 428.605 27.3066 c 0,114,115
 428.605 41.8809 428.605 41.8809 448.24 50.6104 c 0,116,117
 460.554 56.0859 460.554 56.0859 474.462 59.3301 c 0,118,119
 483.961 61.5049 483.961 61.5049 495.445 67.9297 c 0,120,121
 503.679 72.5371 503.679 72.5371 505.073 79.3936 c 0,122,123
 513.622 112.678 513.622 112.678 513.622 146.611 c 0,124,125
 513.622 156.355 513.622 156.355 514.26 173.733 c 0,126,127
 514.883 190.711 514.883 190.711 514.883 198.151 c 0,128,129
 514.883 215.458 514.883 215.458 516.15 254.812 c 0,130,131
 517.406 293.841 517.406 293.841 519.479 315.547 c 0,132,133
 519.479 321.016 519.479 321.016 514.805 322.785 c 0,134,135
 503.668 327 503.668 327 463.956 327 c 0,136,137
 448.144 327 448.144 327 391.482 325.005 c 2,138,-1
 350.703 324 l 2,139,140
 317.402 324 317.402 324 275.907 325.506 c 0,141,142
 234.722 327 234.722 327 212.351 327 c 0,143,144
 208.369 327 208.369 327 206.143 326.158 c 1,145,146
 204.837 319.874 204.837 319.874 204.837 306.166 c 0,147,148
 204.837 282.133 204.837 282.133 203.319 243.902 c 0,149,150
 201.832 206.38 201.832 206.38 201.832 189.686 c 2,151,-1
 201.832 148.965 l 2,152,153
 201.832 110.857 201.832 110.857 207.104 93.4141 c 0,154,155
 211.709 78.1768 211.709 78.1768 231.695 61.7002 c 1,156,157
 237.047 59 237.047 59 258.183 59 c 0,158,159
 266.489 59 266.489 59 273.628 53.457 c 0,160,161
 283.729 45.6152 283.729 45.6152 283.729 33 c 0,162,163
 283.729 0 283.729 0 248.414 0 c 0,164,165
 225.298 0 225.298 0 210.073 2.07812 c 0,166,167
 195.995 4 195.995 4 186.053 4 c 0,168,169
 158.268 4 158.268 4 124.547 1.5459 c 0,170,171
 91.585 -1 91.585 -1 75 -1 c 0,172,173
 13 -1 13 -1 13 27.7852 c 0,174,175
 13 46.457 13 46.457 32.3145 53.2842 c 0,176,177
 43.4307 57.2139 43.4307 57.2139 57.1396 58.8584 c 0,178,179
 64.5361 59.7461 64.5361 59.7461 74.0615 67.8311 c 0,180,181
 83.1816 75.5723 83.1816 75.5723 87.2832 92.002 c 1,182,183
 90.1221 107.94 90.1221 107.94 95.0254 188.859 c 0,184,185
 100 270.957 100 270.957 100 345.385 c 2,186,-1
 100 400.077 l 2,187,188
 100 412.643 100 412.643 100.5 447.672 c 128,-1,189
 101 482.701 101 482.701 101 503.704 c 0,190,191
 101 575.629 101 575.629 95.124 616.034 c 0,192,193
 92.9854 633.133 92.9854 633.133 75.8232 642.943 c 0,194,195
 55.8691 654.349 55.8691 654.349 35 654.349 c 0,196,197
 18.043 654.349 18.043 654.349 8.04883 665.681 c 0,0,1
EndSplineSet
Validated: 524321
Substitution2: "'c2sc' Capitals to Small Capitals in Latin lookup 13 subtable" h.sc
AlternateSubs2: "'aalt' Access All Alternates in Latin lookup 1 subtable" h.sc
AlternateSubs2: "'aalt' Access All Alternates lookup 0 subtable" h.sc
Position2: "'cpsp' Capital Spacing in Latin lookup 0 subtable" dx=10 dy=0 dh=20 dv=0
EndChar

StartChar: I
Encoding: 73 73 44
Width: 337
GlyphClass: 2
Flags: W
HStem: 0 59<14.5278 83.0007 228.512 305.263> 652.442 57.5576<9.89445 89.0738>
VStem: 98 107.498<82.012 639.943>
LayerCount: 2
Fore
SplineSet
9.56348 660.31 m 128,-1,1
 -1 667.528 -1 667.528 -1 681.215 c 0,2,3
 -1 710 -1 710 42 710 c 0,4,5
 52.4248 710 52.4248 710 88.832 707.977 c 0,6,7
 124.409 706 124.409 706 155 706 c 0,8,9
 173.577 706 173.577 706 190.645 706.976 c 0,10,11
 208.565 708 208.565 708 243 708 c 0,12,13
 285 708 285 708 285 680.283 c 0,14,15
 285 675.041 285 675.041 282.455 670.482 c 128,-1,16
 279.91 665.924 279.91 665.924 276.825 662.921 c 128,-1,17
 273.741 659.918 273.741 659.918 266.981 656.43 c 128,-1,18
 260.222 652.942 260.222 652.942 256.074 651.254 c 128,-1,19
 251.926 649.565 251.926 649.565 242.686 646.131 c 128,-1,20
 233.446 642.697 233.446 642.697 229.685 641.211 c 0,21,22
 224.544 639.215 224.544 639.215 219.7 629.799 c 128,-1,23
 214.856 620.383 214.856 620.383 210.928 597.946 c 128,-1,24
 207 575.509 207 575.509 207 544.566 c 0,25,26
 207 415.406 207 415.406 205.498 316.412 c 0,27,28
 204 217.625 204 217.625 204 190.938 c 0,29,30
 204 115.044 204 115.044 226.332 83.4551 c 0,31,32
 243.748 60 243.748 60 262 60 c 0,33,34
 264.469 60 264.469 60 272.936 59.4707 c 0,35,36
 280.469 59 280.469 59 282 59 c 0,37,38
 292.541 59 292.541 59 302.708 53.916 c 0,39,40
 318 46.2705 318 46.2705 318 33 c 0,41,42
 318 13.7656 318 13.7656 305.553 5.84473 c 0,43,44
 296.368 0 296.368 0 278 0 c 0,45,46
 247.413 0 247.413 0 221.327 2.0459 c 0,47,48
 196.413 4 196.413 4 183 4 c 0,49,50
 155.567 4 155.567 4 123.133 1.54297 c 0,51,52
 89.5674 -1 89.5674 -1 73 -1 c 0,53,54
 13 -1 13 -1 13 27.7852 c 0,55,56
 13 46.457 13 46.457 32.3145 53.2842 c 0,57,58
 43.4307 57.2139 43.4307 57.2139 57.1396 58.8584 c 0,59,60
 64.5361 59.7461 64.5361 59.7461 73.9893 67.7695 c 128,-1,61
 83.4434 75.7939 83.4434 75.7939 87.373 92.3838 c 2,62,-1
 87.4609 92.7549 l 2,63,64
 89.3672 104.558 89.3672 104.558 93.5137 198.707 c 0,65,66
 98 300.598 98 300.598 98 345.385 c 2,67,-1
 98 400.077 l 2,68,69
 98 412.643 98 412.643 98.5 447.672 c 128,-1,70
 99 482.701 99 482.701 99 503.704 c 2,71,-1
 99 547.842 l 2,72,73
 99 589.073 99 589.073 95.1279 616.011 c 0,74,75
 93.0615 631.865 93.0615 631.865 76.2393 640.795 c 0,76,77
 55.8496 651.617 55.8496 651.617 34.3447 652.442 c 0,78,0
 20.126 653.092 20.126 653.092 9.56348 660.31 c 128,-1,1
EndSplineSet
Validated: 524289
Substitution2: "'c2sc' Capitals to Small Capitals in Latin lookup 13 subtable" i.sc
AlternateSubs2: "'aalt' Access All Alternates in Latin lookup 1 subtable" i.sc
AlternateSubs2: "'aalt' Access All Alternates lookup 0 subtable" i.sc
Position2: "'cpsp' Capital Spacing in Latin lookup 0 subtable" dx=10 dy=0 dh=20 dv=0
EndChar

StartChar: J
Encoding: 74 74 45
Width: 315
GlyphClass: 2
Flags: W
HStem: -192 89<-4 91.0482> 650.512 62.4883<25.0072 109.783>
VStem: 123.88 124.349<-34.015 635.997>
LayerCount: 2
Fore
SplineSet
-31.5 -178 m 128,-1,1
 -46.5 -164 -46.5 -164 -46.5 -139 c 0,2,3
 -46.5 -119.995 -46.5 -119.995 -33.0039 -96.5225 c 0,4,5
 -27.8916 -87.6328 -27.8916 -87.6328 -24.8486 -83.1914 c 128,-1,6
 -21.8066 -78.75 -21.8066 -78.75 -15.0791 -73.875 c 128,-1,7
 -8.35156 -69 -8.35156 -69 -0.5 -69 c 0,8,9
 2.56641 -69 2.56641 -69 5.30273 -69.5244 c 128,-1,10
 8.03809 -70.0488 8.03809 -70.0488 10.7637 -71.5527 c 128,-1,11
 13.4902 -73.0557 13.4902 -73.0557 15.2598 -74.0703 c 128,-1,12
 17.0293 -75.0859 17.0293 -75.0859 19.832 -77.8203 c 128,-1,13
 22.6338 -80.5557 22.6338 -80.5557 23.7422 -81.6729 c 128,-1,14
 24.8506 -82.79 24.8506 -82.79 28.0361 -86.3682 c 128,-1,15
 31.2207 -89.9463 31.2207 -89.9463 32.084 -90.8936 c 0,16,17
 43.1221 -103 43.1221 -103 57.5 -103 c 0,18,19
 78.126 -103 78.126 -103 90.124 -87.9111 c 128,-1,20
 102.122 -72.8223 102.122 -72.8223 108.806 -37.2666 c 0,21,22
 125.163 26.8574 125.163 26.8574 125.163 76.4531 c 2,23,-1
 125.163 169.446 l 1,24,-1
 123.88 194.446 l 2,25,26
 123.88 213.716 123.88 213.716 123.25 227.897 c 0,27,28
 122.605 242.353 122.605 242.353 121.96 258.795 c 128,-1,29
 121.314 275.237 121.314 275.237 120.673 342.665 c 128,-1,30
 120.03 410.093 120.03 410.093 120.03 522.613 c 0,31,32
 120.03 583.331 120.03 583.331 115.035 616.093 c 0,33,34
 112.463 631.513 112.463 631.513 95.6641 639.577 c 0,35,36
 77.2021 649.67 77.2021 649.67 54.8633 650.512 c 0,37,38
 34.1328 651.418 34.1328 651.418 24.71 663.332 c 0,39,40
 18.5 671.184 18.5 671.184 18.5 682.23 c 0,41,42
 18.5 713 18.5 713 62.5 713 c 0,43,44
 73.1426 713 73.1426 713 105.619 709.946 c 0,45,46
 150.34 707 150.34 707 190.597 707 c 0,47,48
 210.468 707 210.468 707 224.193 707.49 c 0,49,50
 238.456 708 238.456 708 272.729 708 c 0,51,52
 315.729 708 315.729 708 315.729 680.987 c 0,53,54
 315.729 676.396 315.729 676.396 314.292 672.467 c 128,-1,55
 312.854 668.537 312.854 668.537 309.26 665.125 c 128,-1,56
 305.665 661.714 305.665 661.714 302.644 659.303 c 128,-1,57
 299.623 656.891 299.623 656.891 293.256 653.952 c 128,-1,58
 286.889 651.013 286.889 651.013 283.321 649.505 c 128,-1,59
 279.754 647.996 279.754 647.996 271.652 644.914 c 128,-1,60
 263.551 641.833 263.551 641.833 260.261 640.521 c 0,61,62
 258.459 639.859 258.459 639.859 256.123 635.889 c 128,-1,63
 253.787 631.919 253.787 631.919 251.258 619.26 c 128,-1,64
 248.729 606.601 248.729 606.601 248.729 588.371 c 2,65,-1
 248.729 543.992 l 2,66,67
 248.729 383.678 248.729 383.678 248.229 282.028 c 128,-1,68
 247.729 180.378 247.729 180.378 247.729 151.284 c 128,-1,69
 247.729 122.191 247.729 122.191 247.223 104.628 c 0,70,71
 246.729 87.4658 246.729 87.4658 246.729 77.0518 c 0,72,73
 246.729 -38.1855 246.729 -38.1855 177.771 -113.126 c 0,74,75
 96.8564 -192 96.8564 -192 8.5 -192 c 0,76,0
 -16.5 -192 -16.5 -192 -31.5 -178 c 128,-1,1
EndSplineSet
Validated: 524289
Substitution2: "'c2sc' Capitals to Small Capitals in Latin lookup 13 subtable" j.sc
AlternateSubs2: "'aalt' Access All Alternates in Latin lookup 1 subtable" j.sc
AlternateSubs2: "'aalt' Access All Alternates lookup 0 subtable" j.sc
Position2: "'cpsp' Capital Spacing in Latin lookup 0 subtable" dx=10 dy=0 dh=20 dv=0
EndChar

StartChar: K
Encoding: 75 75 46
Width: 646
GlyphClass: 2
Flags: W
HStem: -1 51.8135<22.2474 81.2282> 0 60<215.736 278.027> 652.368 55.6318<9.89445 87.2643 368.994 406.741 523.1 595.935>
VStem: 98 105.974<85.2016 323.18 380.702 640.004>
LayerCount: 2
Fore
SplineSet
9.56348 660.234 m 128,-1,1
 -1 667.451 -1 667.451 -1 681.137 c 0,2,3
 -1 708 -1 708 42 708 c 0,4,5
 52.2139 708 52.2139 708 88.3906 707 c 128,-1,6
 124.567 705.999 124.567 705.999 157.274 706.002 c 0,7,8
 175.882 706 175.882 706 189.047 706.967 c 0,9,10
 200.58 708 200.58 708 229.232 708 c 0,11,12
 238.907 708 238.907 708 245.978 700.5 c 128,-1,13
 253.048 693 253.048 693 253.048 680 c 0,14,15
 253.048 667.507 253.048 667.507 243.907 660.138 c 0,16,17
 239.506 656.589 239.506 656.589 231.704 652.176 c 0,18,19
 225.357 648.584 225.357 648.584 221.188 645.823 c 0,20,21
 214.249 639.943 214.249 639.943 209.09 612.274 c 128,-1,22
 203.93 584.605 203.93 584.605 203.93 537 c 0,23,24
 203.93 482.792 203.93 482.792 202.809 432.55 c 0,25,26
 201.737 384.577 201.737 384.577 201.694 380.702 c 1,27,28
 216.337 394.569 216.337 394.569 249.716 431.127 c 0,29,30
 303.693 490.244 303.693 490.244 356.926 559.292 c 0,31,32
 373.21 580.412 373.21 580.412 385.314 599.188 c 128,-1,33
 397.418 617.964 397.418 617.964 402.175 627.55 c 128,-1,34
 406.932 637.135 406.932 637.135 407.103 640.094 c 0,35,36
 407.056 641.471 407.056 641.471 406.76 642.146 c 0,37,38
 406.161 643.078 406.161 643.078 404.19 644.213 c 0,39,40
 399.563 646.878 399.563 646.878 396.485 648.118 c 128,-1,41
 393.406 649.359 393.406 649.359 387.403 650.704 c 0,42,43
 381.058 652.125 381.058 652.125 377.751 653.606 c 0,44,45
 370.435 655.904 370.435 655.904 366.068 663.986 c 128,-1,46
 361.702 672.069 361.702 672.069 361.702 682 c 0,47,48
 361.702 695 361.702 695 368.772 701.5 c 128,-1,49
 375.842 708 375.842 708 384.772 708 c 0,50,51
 386.59 708 386.59 708 393.243 707.475 c 0,52,53
 399.242 707 399.242 707 403.378 707 c 0,54,55
 405.135 707 405.135 707 421.387 705.982 c 0,56,57
 437.132 705 437.132 705 447.896 705 c 2,58,-1
 571.758 708 l 2,59,60
 585.6 708 585.6 708 596.27 701.092 c 0,61,62
 606.939 694.471 606.939 694.471 606.939 680.881 c 0,63,64
 606.939 665.917 606.939 665.917 593.497 658.404 c 0,65,66
 585.92 654.169 585.92 654.169 567.171 648.885 c 0,67,68
 551.484 644.464 551.484 644.464 539.751 639.844 c 0,69,70
 533.232 636.755 533.232 636.755 492.255 612.301 c 0,71,72
 483.517 607.05 483.517 607.05 398.674 524.247 c 0,73,74
 343.426 463.545 343.426 463.545 270.039 384.312 c 1,75,-1
 267.118 379.525 l 1,76,77
 268.447 377.62 268.447 377.62 269.872 375.784 c 0,78,79
 305.895 330.898 305.895 330.898 362.176 259.893 c 0,80,81
 469.074 128.052 469.074 128.052 509.598 95.376 c 0,82,83
 547.428 64.8721 547.428 64.8721 580.165 59.7852 c 0,84,85
 592.866 58.1064 592.866 58.1064 598.754 56.9736 c 128,-1,86
 604.643 55.8418 604.643 55.8418 612.689 51.6377 c 128,-1,87
 620.737 47.4336 620.737 47.4336 624.355 40.499 c 0,88,89
 626.939 35.5469 626.939 35.5469 626.939 28.3213 c 0,90,91
 626.939 19.7207 626.939 19.7207 621.318 12.75 c 0,92,93
 615.698 5.47461 615.698 5.47461 606.875 3.39844 c 0,94,95
 596.681 1 596.681 1 553.939 1 c 2,96,-1
 456.939 1 l 2,97,98
 450.119 1 450.119 1 445.982 2.57715 c 0,99,100
 442.051 4.07617 442.051 4.07617 438.247 6.97656 c 0,101,102
 433.901 10.29 433.901 10.29 428.498 18.8105 c 0,103,104
 424.452 25.1914 424.452 25.1914 418.899 33.5928 c 128,-1,105
 413.347 41.9951 413.347 41.9951 401.687 59.5547 c 0,106,107
 390.3 76.709 390.3 76.709 376.27 95.4307 c 0,108,109
 218.75 308.598 218.75 308.598 209.827 318.595 c 0,110,111
 206.827 321.754 206.827 321.754 204.458 323.312 c 1,112,113
 203.638 319.087 203.638 319.087 203.638 312 c 2,114,-1
 203.638 309 l 2,115,116
 203.638 306.624 203.638 306.624 203.974 301.246 c 0,117,118
 204.388 294.623 204.388 294.623 204.388 286 c 2,119,-1
 204.388 235 l 2,120,121
 204.388 108.604 204.388 108.604 214.157 84.4209 c 1,122,123
 225.359 60 225.359 60 254.598 60 c 0,124,125
 257.48 60 257.48 60 260.322 59.0518 c 0,126,127
 268.493 59 268.493 59 276.112 53.916 c 0,128,129
 287.572 46.2705 287.572 46.2705 287.572 33 c 0,130,131
 287.572 13.7656 287.572 13.7656 278.244 5.84473 c 0,132,133
 271.361 0 271.361 0 257.596 0 c 0,134,135
 234.674 0 234.674 0 215.124 2.0459 c 0,136,137
 196.454 4 196.454 4 186.402 4 c 0,138,139
 158.149 4 158.149 4 123.425 1.54297 c 0,140,141
 89.5674 -1 89.5674 -1 73 -1 c 0,142,143
 22 -1 22 -1 22 23.9443 c 2,144,-1
 22 27.7822 l 2,145,146
 22 45.5918 22 45.5918 42.6826 50.8135 c 0,147,148
 52.0293 53.1738 52.0293 53.1738 65.8789 56.9697 c 0,149,150
 76.1416 59.7832 76.1416 59.7832 81.3936 64.8213 c 0,151,152
 91.4238 74.4453 91.4238 74.4453 94.5361 117.522 c 0,153,154
 98 165.478 98 165.478 98 271.471 c 2,155,-1
 98 400.031 l 2,156,157
 98 412.309 98 412.309 97.0059 447.128 c 0,158,159
 96 482.34 96 482.34 96 503.646 c 2,160,-1
 96 547.779 l 2,161,162
 96 595.732 96 595.732 93.126 615.952 c 0,163,164
 91.041 631.959 91.041 631.959 74.9961 640.854 c 0,165,166
 55.7031 651.548 55.7031 651.548 34.3447 652.368 c 0,167,0
 20.126 653.018 20.126 653.018 9.56348 660.234 c 128,-1,1
EndSplineSet
Validated: 524321
Substitution2: "'c2sc' Capitals to Small Capitals in Latin lookup 13 subtable" k.sc
AlternateSubs2: "'aalt' Access All Alternates in Latin lookup 1 subtable" k.sc
AlternateSubs2: "'aalt' Access All Alternates lookup 0 subtable" k.sc
Position2: "'cpsp' Capital Spacing in Latin lookup 0 subtable" dx=10 dy=0 dh=20 dv=0
EndChar

StartChar: L
Encoding: 76 76 47
Width: 545
GlyphClass: 2
Flags: W
HStem: -3 58<16.2999 65.6818> 5 73<121.315 393.829> 656.059 54.9414<11.8917 80.5858 229.645 267.862>
VStem: 94 106.362<85.0315 639.904>
LayerCount: 2
Fore
SplineSet
4.29395 660.781 m 0,0,1
 -1 668.193 -1 668.193 -1 680 c 0,2,3
 -1 696 -1 696 11.5 704.5 c 128,-1,4
 24 713 24 713 41 713 c 0,5,6
 45.8291 713 45.8291 713 55.6562 711.908 c 0,7,8
 63.832 711 63.832 711 68 711 c 0,9,10
 78.5352 711 78.5352 711 106.664 709 c 128,-1,11
 134.792 707 134.792 707 158.059 707 c 0,12,13
 187.894 707 187.894 707 214.143 708.976 c 0,14,15
 241.04 711 241.04 711 244.413 711 c 0,16,17
 268.717 711 268.717 711 268.717 687.131 c 0,18,19
 268.717 663.84 268.717 663.84 252.21 656.059 c 0,20,21
 241.727 651.116 241.727 651.116 229.256 649.494 c 0,22,23
 223.615 648.761 223.615 648.761 216.332 634.858 c 0,24,25
 207.792 618.556 207.792 618.556 206.425 583.305 c 0,26,27
 204.913 546.275 204.913 546.275 202.638 375.555 c 128,-1,28
 200.362 204.835 200.362 204.835 200.362 184.932 c 2,29,-1
 200.362 146.742 l 2,30,31
 200.362 125.147 200.362 125.147 202.626 110.086 c 128,-1,32
 204.89 95.0244 204.89 95.0244 206.975 90.2881 c 128,-1,33
 209.06 85.5518 209.06 85.5518 210.529 85.0137 c 0,34,35
 227.963 78 227.963 78 239.855 78 c 0,36,37
 296.116 78 296.116 78 338.327 84.8857 c 0,38,39
 379.935 91.6738 379.935 91.6738 400.347 101.575 c 0,40,41
 425.622 111.479 425.622 111.479 443.181 123.031 c 0,42,43
 458.938 133.398 458.938 133.398 462.638 140.46 c 0,44,45
 468.776 152.181 468.776 152.181 475.13 160.268 c 0,46,47
 485.134 173 485.134 173 498.425 173 c 0,48,49
 511.425 173 511.425 173 518.425 163 c 128,-1,50
 525.425 153 525.425 153 525.425 141 c 0,51,52
 525.425 91.8887 525.425 91.8887 478.082 43.4443 c 128,-1,53
 430.739 -5 430.739 -5 395.551 -5 c 0,54,55
 340.554 -5 340.554 -5 271.506 0.0224609 c 0,56,57
 203.086 5 203.086 5 186.691 5 c 0,58,59
 160.033 5 160.033 5 121.315 1.08887 c 0,60,61
 83.8193 -3 83.8193 -3 59 -3 c 0,62,63
 15 -3 15 -3 15 24 c 0,64,65
 15 38.1084 15 38.1084 26.001 47.1094 c 0,66,67
 35.6455 55 35.6455 55 46 55 c 0,68,69
 55.8457 55 55.8457 55 65.999 61.667 c 0,70,71
 79.5732 72.0967 79.5732 72.0967 86.3301 102.251 c 0,72,73
 94 136.48 94 136.48 94 236.847 c 2,74,-1
 94 354.904 l 2,75,76
 94 380.797 94 380.797 95.5049 435.254 c 0,77,78
 97 489.337 97 489.337 97 519.613 c 0,79,80
 97 545.097 97 545.097 95.0078 605.784 c 0,81,82
 94.2744 626.046 94.2744 626.046 76.6797 637.213 c 0,83,84
 56.2461 650.182 56.2461 650.182 28.7656 651 c 0,85,86
 11.2812 651 11.2812 651 4.29395 660.781 c 0,0,1
EndSplineSet
Validated: 524289
Substitution2: "'c2sc' Capitals to Small Capitals in Latin lookup 13 subtable" l.sc
AlternateSubs2: "'aalt' Access All Alternates in Latin lookup 1 subtable" l.sc
AlternateSubs2: "'aalt' Access All Alternates lookup 0 subtable" l.sc
Position2: "'cpsp' Capital Spacing in Latin lookup 0 subtable" dx=10 dy=0 dh=20 dv=0
EndChar

StartChar: M
Encoding: 77 77 48
Width: 799
GlyphClass: 2
Flags: HW
LayerCount: 2
Fore
SplineSet
6.00488 662.617 m 128,-1,1
 -1 670.36 -1 670.36 -1 680.912 c 0,2,3
 -1 694.332 -1 694.332 9 702 c 0,4,5
 19 710 19 710 32 710 c 0,6,7
 38.7031 710 38.7031 710 60.8896 707.936 c 0,8,9
 81.6904 706 81.6904 706 85 706 c 0,10,11
 99.7256 706 99.7256 706 125.712 706.989 c 0,12,13
 153.167 708 153.167 708 161.839 708 c 0,14,15
 191.704 708 191.704 708 199.288 684.639 c 1,16,17
 208.111 658.512 208.111 658.512 230.528 591.76 c 0,18,19
 253.196 524.271 253.196 524.271 266.716 484.307 c 128,-1,20
 280.235 444.342 280.235 444.342 301.443 382.348 c 128,-1,21
 322.65 320.354 322.65 320.354 335.785 281.945 c 128,-1,22
 348.919 243.536 348.919 243.536 363.083 204.804 c 128,-1,23
 377.247 166.071 377.247 166.071 384.788 147.904 c 2,24,-1
 386.276 144.375 l 1,25,26
 388.07 148.876 388.07 148.876 389.257 152.77 c 0,27,28
 391.187 159.102 391.187 159.102 394.589 168.921 c 0,29,30
 397.733 177.999 397.733 177.999 399.071 182.571 c 0,31,-1
 493.746 449.576 l 2,32,33
 509.804 494.486 509.804 494.486 522.199 530.373 c 128,-1,34
 534.594 566.26 534.594 566.26 541.875 588.161 c 128,-1,35
 549.156 610.062 549.156 610.062 554.261 626.013 c 2,36,-1
 564.059 650.013 l 2,37,38
 567.431 657.389 567.431 657.389 568.773 661.243 c 0,39,40
 570.486 666.161 570.486 666.161 571.702 669.071 c 0,41,42
 572.657 671.357 572.657 671.357 574.959 676.039 c 0,43,44
 575.399 677.112 575.399 677.112 577.241 682.045 c 0,45,46
 581.038 692.223 581.038 692.223 586.143 697.106 c 0,47,48
 591.029 701.783 591.029 701.783 601.76 705.892 c 128,-1,49
 612.491 710 612.491 710 628.047 710 c 0,50,51
 648.371 710 648.371 710 665.934 708.973 c 0,52,53
 681.984 708 681.984 708 715.527 708 c 0,54,55
 728.527 708 728.527 708 738.027 700.5 c 0,56,57
 747.527 693.334 747.527 693.334 747.527 680.913 c 0,58,59
 747.527 663.85 747.527 663.85 734.565 655.275 c 0,60,61
 725.198 649.079 725.198 649.079 701.535 645.688 c 0,62,63
 684.692 643.758 684.692 643.758 678.182 630.076 c 0,64,65
 669.527 611.883 669.527 611.883 669.527 555.748 c 0,66,67
 669.527 427.202 669.527 427.202 675.505 322.923 c 0,68,69
 678.701 217.861 678.701 217.861 678.701 190.764 c 0,70,71
 678.701 99.085 678.701 99.085 692.666 76.1504 c 0,72,73
 704.327 57 704.327 57 746.701 57 c 0,74,75
 759.5 57 759.5 57 769.291 48.0986 c 0,76,77
 779.701 38.6357 779.701 38.6357 779.701 28 c 0,78,79
 779.701 19.5654 779.701 19.5654 777.931 14.2568 c 0,80,81
 775.304 6.37402 775.304 6.37402 768.021 1.51953 c 0,82,83
 761.243 -3 761.243 -3 753.701 -3 c 2,84,-1
 742.701 -3 l 2,85,86
 712.184 -3 712.184 -3 682.668 -0.964844 c 0,87,88
 653.937 1 653.937 1 639.849 1 c 0,89,90
 611.245 1 611.245 1 580.547 -1.44824 c 0,91,92
 553.066 -4 553.066 -4 540.907 -4 c 0,93,94
 531.399 -4 531.399 -4 524.085 3.5 c 128,-1,95
 516.771 11 516.771 11 516.771 25 c 0,96,97
 516.771 43.2705 516.771 43.2705 528.688 51.416 c 0,98,99
 536.368 56.667 536.368 56.667 546.084 57.9326 c 0,100,101
 549.836 58.4209 549.836 58.4209 555.457 66.1064 c 0,102,103
 561.591 74.4922 561.591 74.4922 564.95 93.0635 c 0,104,105
 568.8 111.486 568.8 111.486 568.8 154 c 0,106,107
 568.8 185.765 568.8 185.765 567.238 230.584 c 128,-1,108
 565.676 275.403 565.676 275.403 565.004 317.828 c 128,-1,109
 564.332 360.254 564.332 360.254 562.245 397.701 c 0,110,111
 560.19 434.569 560.19 434.569 559.115 459.065 c 1,112,-1
 556.998 483.376 l 1,113,-1
 556.998 484 l 2,114,115
 556.998 490 556.998 490 556.852 495.621 c 1,116,117
 555.748 493.208 555.748 493.208 554.195 489.317 c 0,118,119
 552.096 484.055 552.096 484.055 550.72 480.292 c 2,120,-1
 546.697 469.292 l 2,121,122
 544.342 462.85 544.342 462.85 543.048 458.429 c 0,123,-1
 441.041 176.374 l 2,124,125
 423.547 127.538 423.547 127.538 403.796 71.5303 c 0,126,127
 390.389 32.832 390.389 32.832 387.15 25.6387 c 0,128,129
 381.013 12 381.013 12 370.493 12 c 0,130,131
 358.227 12 358.227 12 350.56 26.8496 c 0,132,133
 345.466 36.7168 345.466 36.7168 336.221 67.2646 c 0,134,135
 327.547 95.9248 327.547 95.9248 321.118 114.479 c 0,136,137
 222.235 389.317 222.235 389.317 194.229 465.407 c 1,138,139
 194.229 463.904 194.229 463.904 194.228 463.808 c 0,140,141
 193.179 385.517 193.179 385.517 188.983 309.212 c 0,142,143
 184.825 233.594 184.825 233.594 184.825 200 c 2,144,-1
 184.825 155 l 2,145,146
 184.825 129.801 184.825 129.801 186.304 116.598 c 0,147,148
 187.677 104.329 187.677 104.329 193.865 87.4727 c 0,149,150
 197.397 74.1475 197.397 74.1475 206.374 66.9287 c 0,151,152
 216.548 58.7461 216.548 58.7461 233.41 56.0322 c 0,153,154
 241.08 55.291 241.08 55.291 246.676 49.3398 c 0,155,156
 254.202 41.3359 254.202 41.3359 254.202 30 c 0,157,158
 254.202 13.4512 254.202 13.4512 249.367 5.73828 c 0,159,160
 243.89 -3 243.89 -3 232.261 -3 c 0,161,162
 217.358 -3 217.358 -3 185.087 -0.981445 c 0,163,164
 144.561 0.958008 144.561 0.958008 139.957 1 c 0,165,166
 136.513 0.908203 136.513 0.908203 110.832 -0.476562 c 0,167,168
 83.417 -2 83.417 -2 57 -2 c 0,169,170
 46.8994 -2 46.8994 -2 41.3789 -0.422852 c 0,171,172
 33.5449 1.81543 33.5449 1.81543 27.6113 8.73828 c 0,173,174
 21 16.1309 21 16.1309 21 28.1592 c 0,175,176
 21 46.1904 21 46.1904 40.2568 52.3438 c 0,177,178
 51.25 55.8555 51.25 55.8555 64.8486 56.4229 c 0,179,180
 70.0762 56.6406 70.0762 56.6406 79.8682 67.0312 c 0,181,182
 91.2725 79.1338 91.2725 79.1338 97.3828 104.234 c 0,183,184
 102.077 124.032 102.077 124.032 109.016 268.451 c 0,185,186
 116 413.811 116 413.811 116 483.457 c 0,187,188
 116 575.835 116 575.835 98.1543 609.169 c 0,189,190
 81.8369 639.649 81.8369 639.649 23.627 652.525 c 0,191,0
 13.0088 654.874 13.0088 654.874 6.00488 662.617 c 128,-1,1
EndSplineSet
Validated: 524289
Substitution2: "'c2sc' Capitals to Small Capitals in Latin lookup 13 subtable" m.sc
AlternateSubs2: "'aalt' Access All Alternates in Latin lookup 1 subtable" m.sc
AlternateSubs2: "'aalt' Access All Alternates lookup 0 subtable" m.sc
Position2: "'cpsp' Capital Spacing in Latin lookup 0 subtable" dx=10 dy=0 dh=20 dv=0
EndChar

StartChar: N
Encoding: 78 78 49
Width: 722
GlyphClass: 2
Flags: W
HStem: -4 55.1904<27.3447 76.7795 200.015 238.445> 648.266 59.7344<0.790497 77.6472 431.107 515.608>
VStem: 114 58.6309<268.46 509.62> 544.316 79.9873<156.54 618.765>
LayerCount: 2
Fore
SplineSet
6.50781 657.438 m 128,-1,1
 -1 665.757 -1 665.757 -1 676.964 c 0,2,3
 -1 689.705 -1 689.705 11.7324 699.295 c 0,4,5
 22.8125 708 22.8125 708 39 708 c 0,6,7
 45.2734 708 45.2734 708 59.5352 707.49 c 0,8,9
 73.2617 707 73.2617 707 77 707 c 0,10,11
 91.4287 707 91.4287 707 103.85 707.956 c 0,12,13
 117.419 709 117.419 709 126.393 709 c 0,14,15
 139.355 709 139.355 709 154.332 702.136 c 0,16,17
 165.762 695.051 165.762 695.051 169.833 684.32 c 0,18,19
 171.725 680.979 171.725 680.979 176.614 673.262 c 0,20,21
 183.219 662.841 183.219 662.841 194.254 645.924 c 0,22,23
 205.632 628.483 205.632 628.483 214.733 612.069 c 0,24,25
 314.917 435.711 314.917 435.711 514.466 185.938 c 0,26,27
 520.718 179.031 520.718 179.031 529.429 170.3 c 0,28,29
 538.926 160.778 538.926 160.778 543.09 155.709 c 1,30,31
 544.843 182.43 544.843 182.43 544.843 193 c 2,32,-1
 544.843 310 l 2,33,34
 544.843 376.954 544.843 376.954 544.316 422.812 c 128,-1,35
 543.789 468.671 543.789 468.671 543.264 489.134 c 0,36,37
 542.73 509.843 542.73 509.843 542.73 515 c 2,38,-1
 542.73 522 l 2,39,40
 542.73 554.604 542.73 554.604 538.248 577.235 c 0,41,42
 533.859 599.404 533.859 599.404 528.347 610.714 c 0,43,44
 523.614 620.422 523.614 620.422 514.483 627.188 c 0,45,46
 504.616 634.499 504.616 634.499 498.926 636.183 c 0,47,48
 491.274 638.447 491.274 638.447 476.254 641.291 c 0,49,50
 459.444 644.474 459.444 644.474 452.398 646.698 c 0,51,52
 420.214 655.84 420.214 655.84 420.214 678 c 0,53,54
 420.214 692 420.214 692 430.775 700 c 128,-1,55
 441.338 708 441.338 708 456.123 708 c 0,56,57
 462.576 708 462.576 708 506.932 707.5 c 128,-1,58
 551.286 707 551.286 707 556.461 707 c 0,59,60
 581.044 707 581.044 707 610.296 707.991 c 0,61,62
 640.055 709 640.055 709 647.304 709 c 0,63,64
 668.086 709 668.086 709 677.914 703.707 c 0,65,66
 692.304 696.269 692.304 696.269 692.304 678.067 c 0,67,68
 692.304 666.321 692.304 666.321 679.856 658.718 c 0,69,70
 673.266 654.691 673.266 654.691 666.073 651.814 c 0,71,72
 659.565 649.211 659.565 649.211 653.046 647.125 c 2,73,-1
 648.494 645.668 l 1,74,75
 624.304 630.861 624.304 630.861 624.304 550.382 c 2,76,-1
 624.304 513.9 l 2,77,78
 624.304 440.874 624.304 440.874 618.797 260.509 c 0,79,80
 613.304 80.5654 613.304 80.5654 613.304 38.6826 c 2,81,-1
 613.304 19.4814 l 2,82,83
 613.304 -17 613.304 -17 584.304 -17 c 0,84,85
 568.909 -17 568.909 -17 556.877 -5.60645 c 2,86,-1
 556.463 -5.21582 l 1,87,88
 266.811 380.487 266.811 380.487 219.424 452.529 c 0,89,90
 193.013 492.685 193.013 492.685 179.773 510.38 c 1,91,92
 178.545 494.178 178.545 494.178 178.545 467 c 0,93,94
 178.545 371.685 178.545 371.685 175.58 261.952 c 0,95,96
 172.631 152.708 172.631 152.708 172.631 143 c 0,97,98
 172.631 102.501 172.631 102.501 182.258 82.7588 c 0,99,100
 191.055 64.7207 191.055 64.7207 199.59 62.7959 c 0,101,102
 213.209 59.7256 213.209 59.7256 224.978 56.1318 c 0,103,104
 245.084 49.9902 245.084 49.9902 245.084 28 c 0,105,106
 245.084 10.1016 245.084 10.1016 238.624 2.61133 c 0,107,108
 232.921 -4 232.921 -4 222.165 -4 c 0,109,110
 216.764 -4 216.764 -4 198.424 -2.9873 c 0,111,112
 180.537 -2 180.537 -2 139.067 -2 c 0,113,114
 129.844 -2 129.844 -2 101.557 -3 c 128,-1,115
 73.2686 -4 73.2686 -4 53 -4 c 0,116,117
 38 -4 38 -4 27 4 c 0,118,119
 16 11.6689 16 11.6689 16 26.0488 c 0,120,121
 16 36.502 16 36.502 23.5967 42.9287 c 128,-1,122
 31.1924 49.3545 31.1924 49.3545 41.1484 51.1904 c 128,-1,123
 51.1035 53.0254 51.1035 53.0254 67.5293 63.7998 c 0,124,125
 82.0117 73.2988 82.0117 73.2988 90.5156 102.645 c 0,126,127
 96.1055 123.188 96.1055 123.188 105.022 278.005 c 0,128,129
 114 433.867 114 433.867 114 492.905 c 0,130,131
 114 571.569 114 571.569 91.9385 609.02 c 0,132,133
 71.7119 643.354 71.7119 643.354 25.5957 648.266 c 0,134,0
 14.0156 649.119 14.0156 649.119 6.50781 657.438 c 128,-1,1
EndSplineSet
Validated: 524289
Substitution2: "'c2sc' Capitals to Small Capitals in Latin lookup 13 subtable" n.sc
AlternateSubs2: "'aalt' Access All Alternates in Latin lookup 1 subtable" n.sc
AlternateSubs2: "'aalt' Access All Alternates lookup 0 subtable" n.sc
Position2: "'cpsp' Capital Spacing in Latin lookup 0 subtable" dx=10 dy=0 dh=20 dv=0
EndChar

StartChar: O
Encoding: 79 79 50
Width: 745
GlyphClass: 2
Flags: W
HStem: -16 74<263.933 424.127> 652 70<227.294 399.322>
VStem: 15.7998 106.24<254.505 483.586> 589.428 112<237.934 443.435>
LayerCount: 2
Fore
SplineSet
57.9521 167.689 m 0,0,1
 15.7998 246.701 15.7998 246.701 15.7998 339.547 c 0,2,3
 15.7998 506.688 15.7998 506.688 112.987 614.155 c 0,4,5
 190.219 722 190.219 722 331.51 722 c 0,6,7
 396.906 722 396.906 722 462.435 696.104 c 0,8,9
 538.116 671.141 538.116 671.141 582.538 634.188 c 0,10,11
 624.272 597.646 624.272 597.646 652.436 550.602 c 0,12,13
 680.464 503.779 680.464 503.779 690.946 464.049 c 128,-1,14
 701.428 424.319 701.428 424.319 701.428 389.9 c 0,15,16
 701.428 255.606 701.428 255.606 646.477 162.58 c 0,17,18
 591.199 68.998 591.199 68.998 496.17 26.2568 c 0,19,20
 407.128 -16 407.128 -16 321.18 -16 c 0,21,22
 230.307 -16 230.307 -16 163.853 36.0293 c 0,23,24
 98.6631 88.1172 98.6631 88.1172 57.9521 167.689 c 0,0,1
175.723 585.51 m 0,25,26
 122.04 519.283 122.04 519.283 122.04 388.317 c 0,27,28
 122.04 351.906 122.04 351.906 129.819 309.273 c 128,-1,29
 137.599 266.641 137.599 266.641 155.418 221.122 c 128,-1,30
 173.236 175.604 173.236 175.604 198.445 139.415 c 0,31,32
 223.136 103.973 223.136 103.973 261.311 80.9287 c 128,-1,33
 299.293 58 299.293 58 344.791 58 c 0,34,35
 368.358 58 368.358 58 394.807 67.4756 c 128,-1,36
 421.255 76.9512 421.255 76.9512 458.362 96.877 c 128,-1,37
 495.469 116.802 495.469 116.802 524.472 145.253 c 0,38,39
 553.102 173.339 553.102 173.339 571.525 214.258 c 0,40,41
 589.428 254.984 589.428 254.984 589.428 302.645 c 0,42,43
 589.428 469.267 589.428 469.267 494.047 560.802 c 0,44,45
 404.95 652 404.95 652 306.424 652 c 0,46,47
 229.695 652 229.695 652 175.723 585.51 c 0,25,26
EndSplineSet
Validated: 524289
Substitution2: "'c2sc' Capitals to Small Capitals in Latin lookup 13 subtable" o.sc
AlternateSubs2: "'aalt' Access All Alternates in Latin lookup 1 subtable" o.sc
AlternateSubs2: "'aalt' Access All Alternates lookup 0 subtable" o.sc
Position2: "'cpsp' Capital Spacing in Latin lookup 0 subtable" dx=10 dy=0 dh=20 dv=0
EndChar

StartChar: P
Encoding: 80 80 51
Width: 548
GlyphClass: 2
Flags: HW
LayerCount: 2
Fore
SplineSet
252.043 311.873 m 0,0,1
 225.791 318.995 225.791 318.995 217.94 330.212 c 1,2,3
 217.131 300.505 217.131 300.505 217.131 162.992 c 0,4,5
 217.131 86.8496 217.131 86.8496 245.74 65.4219 c 0,6,7
 252.468 60.5537 252.468 60.5537 263.46 59.0381 c 0,8,9
 276.244 57.2754 276.244 57.2754 284.415 57.6982 c 0,10,11
 297.052 58.3516 297.052 58.3516 307.2 52.2412 c 0,12,13
 321.007 43.9277 321.007 43.9277 321.007 23.8896 c 0,14,15
 321.007 9.59863 321.007 9.59863 311.792 1.5 c 0,16,17
 302.577 -7 302.577 -7 289.174 -7 c 0,18,19
 269.635 -7 269.635 -7 220.778 -4.48633 c 0,20,21
 153.319 -2 153.319 -2 148.918 -2 c 0,22,23
 137.559 -2 137.559 -2 105.515 -3.96582 c 0,24,25
 75.5078 -6 75.5078 -6 51 -6 c 0,26,27
 5 -6 5 -6 5 18.8643 c 0,28,29
 5 27.2041 5 27.2041 7.45508 33.4648 c 0,30,31
 9.43457 38.5137 9.43457 38.5137 11.6377 42.0244 c 0,32,33
 15.7373 48.5596 15.7373 48.5596 25.4287 52.2666 c 0,34,35
 29.8496 53.958 29.8496 53.958 31.292 54.6475 c 0,36,37
 35.0889 56.4629 35.0889 56.4629 44.5586 58.2734 c 0,38,39
 49.9883 59.3125 49.9883 59.3125 52.6094 60.0195 c 0,40,41
 56.9355 61.6445 56.9355 61.6445 62.1396 62.2666 c 0,42,43
 62.8086 62.3467 62.8086 62.3467 64.8867 62.6309 c 1,44,45
 66.0059 63.7607 66.0059 63.7607 66.293 64.3789 c 0,46,47
 68.3486 68.8008 68.3486 68.8008 71.9072 76.0947 c 0,48,49
 75.042 82.5195 75.042 82.5195 78.8438 93.4258 c 0,50,51
 85.082 109.618 85.082 109.618 89.0068 232.564 c 0,52,53
 93 357.635 93 357.635 93 426.262 c 0,54,55
 93 485.497 93 485.497 92.5 535.705 c 128,-1,56
 92 585.914 92 585.914 92 588.839 c 0,57,58
 92 610.454 92 610.454 77.375 632.257 c 0,59,60
 64.8008 651 64.8008 651 34 651 c 0,61,62
 20 651 20 651 9.5 658 c 128,-1,63
 -1 665 -1 665 -1 679 c 0,64,65
 -1 694 -1 694 10.5 702 c 128,-1,66
 22 710 22 710 37 710 c 0,67,68
 39.5322 710 39.5322 710 47.0645 710.471 c 0,69,70
 55.5312 711 55.5312 711 74 711 c 0,71,72
 79.5029 711 79.5029 711 102.498 709.467 c 0,73,74
 126.152 708 126.152 708 138.516 708 c 0,75,76
 166.911 708 166.911 708 239.189 709.496 c 0,77,78
 283.413 711 283.413 711 295.439 711 c 0,79,80
 381.126 711 381.126 711 448.029 662.581 c 0,81,82
 522.439 612.453 522.439 612.453 522.439 519.073 c 0,83,84
 522.439 468.601 522.439 468.601 503.054 428.61 c 128,-1,85
 483.668 388.62 483.668 388.62 455.738 365.381 c 0,86,87
 428.633 342.828 428.633 342.828 397.885 327.99 c 0,88,89
 370.065 313.247 370.065 313.247 347.989 308.578 c 0,90,91
 326.342 304 326.342 304 309.278 304 c 0,92,93
 281.062 304 281.062 304 252.043 311.873 c 0,0,1
224.942 558.595 m 0,94,95
 224.942 414.214 224.942 414.214 224.452 359.793 c 1,96,97
 232.16 372 232.16 372 244.339 372 c 0,98,99
 249.172 372 249.172 372 261.312 367.524 c 0,100,101
 270.872 364 270.872 364 280.039 364 c 0,102,103
 294.846 364 294.846 364 315.718 369.741 c 0,104,105
 336.809 375.503 336.809 375.503 359.76 388.493 c 0,106,107
 380.832 400.42 380.832 400.42 394.561 425.009 c 0,108,109
 407.439 449.58 407.439 449.58 407.439 482.579 c 0,110,111
 407.439 540.503 407.439 540.503 364.936 590.942 c 0,112,113
 321.922 641 321.922 641 254.839 641 c 0,114,115
 239.089 641 239.089 641 233.041 630.424 c 0,116,117
 224.942 616.257 224.942 616.257 224.942 558.595 c 0,94,95
EndSplineSet
Validated: 524289
Substitution2: "'c2sc' Capitals to Small Capitals in Latin lookup 13 subtable" p.sc
AlternateSubs2: "'aalt' Access All Alternates in Latin lookup 1 subtable" p.sc
AlternateSubs2: "'aalt' Access All Alternates lookup 0 subtable" p.sc
Position2: "'cpsp' Capital Spacing in Latin lookup 0 subtable" dx=10 dy=0 dh=20 dv=0
EndChar

StartChar: Q
Encoding: 81 81 52
Width: 741
GlyphClass: 2
Flags: HW
LayerCount: 2
Fore
SplineSet
148.058 77.7432 m 0,0,1
 16.5 171.419 16.5 171.419 16.5 340.023 c 0,2,3
 16.5 509.622 16.5 509.622 114.804 615.451 c 0,4,5
 193.277 722 193.277 722 342.871 722 c 0,6,7
 405.657 722 405.657 722 456.304 694.991 c 128,-1,8
 506.949 667.983 506.949 667.983 536.684 627.913 c 0,9,10
 577.017 588.461 577.017 588.461 605.23 538.074 c 0,11,12
 633.324 487.906 633.324 487.906 643.155 445.722 c 0,13,14
 652.896 403.921 652.896 403.921 652.896 366.883 c 0,15,16
 652.896 296.383 652.896 296.383 627.031 225.534 c 0,17,18
 600.971 154.159 600.971 154.159 546.184 96.8037 c 0,19,20
 505.317 38.3877 505.317 38.3877 454.695 19.9756 c 0,21,22
 432.052 11.5977 432.052 11.5977 418.983 6.19238 c 1,23,24
 423.027 3.53711 423.027 3.53711 439.063 -6.31641 c 0,25,26
 456.997 -17.3359 456.997 -17.3359 463.555 -21.3242 c 128,-1,27
 470.112 -25.3135 470.112 -25.3135 488.311 -36.2705 c 0,28,29
 506.281 -47.0908 506.281 -47.0908 515.835 -51.9336 c 0,30,31
 525.808 -56.9883 525.808 -56.9883 543.778 -66.0312 c 0,32,33
 567.124 -74.7832 567.124 -74.7832 582.626 -79.0947 c 0,34,35
 598.62 -83.543 598.62 -83.543 618.259 -88.4941 c 0,36,37
 637.116 -93.2471 637.116 -93.2471 652.295 -95.124 c 128,-1,38
 667.474 -97 667.474 -97 679.95 -97 c 0,39,40
 705.409 -97 705.409 -97 719.242 -90.084 c 0,41,42
 734.65 -82.3789 734.65 -82.3789 742.788 -75.5264 c 0,43,44
 756.475 -64 756.475 -64 772.95 -64 c 0,45,46
 783.286 -64 783.286 -64 791.29 -74.291 c 0,47,48
 797.95 -82.8535 797.95 -82.8535 797.95 -91 c 0,49,50
 797.95 -135.347 797.95 -135.347 735.558 -165.966 c 0,51,52
 678.433 -194 678.433 -194 605.924 -194 c 0,53,54
 537.828 -194 537.828 -194 452.035 -141.702 c 0,55,56
 368.104 -90.5391 368.104 -90.5391 294.435 -39.376 c 0,57,58
 223.337 10 223.337 10 204.038 10 c 0,59,60
 176.191 10 176.191 10 163.382 -15.498 c 0,61,62
 149.235 -43.6592 149.235 -43.6592 149.235 -81 c 2,63,-1
 149.235 -99 l 2,64,65
 149.235 -116 149.235 -116 142.868 -128 c 128,-1,66
 136.5 -140 136.5 -140 120.5 -140 c 0,67,68
 101.54 -140 101.54 -140 90.293 -119.111 c 0,69,70
 81.5 -102.781 81.5 -102.781 81.5 -83 c 0,71,72
 81.5 -35.3779 81.5 -35.3779 103.152 6.84473 c 0,73,74
 124.83 47.4141 124.83 47.4141 147.959 65.7168 c 0,75,76
 151.277 68.8867 151.277 68.8867 154.35 71.9219 c 1,77,78
 151.357 74.7871 151.357 74.7871 148.058 77.7432 c 0,0,1
189.824 582.334 m 128,-1,80
 137.544 512.668 137.544 512.668 137.544 375 c 0,81,82
 137.544 243.866 137.544 243.866 189.562 145.742 c 0,83,84
 216.441 93.8652 216.441 93.8652 266.838 61.0449 c 0,85,86
 317.579 28 317.579 28 354.562 28 c 0,87,88
 403.061 28 403.061 28 454.737 64.3154 c 0,89,90
 482.823 84.4502 482.823 84.4502 511.58 145.616 c 0,91,92
 540.161 206.41 540.161 206.41 540.161 285 c 0,93,94
 540.161 440.529 540.161 440.529 474.78 546.841 c 0,95,96
 410.108 652 410.108 652 318.027 652 c 0,97,79
 242.104 652 242.104 652 189.824 582.334 c 128,-1,80
EndSplineSet
Validated: 524289
Substitution2: "'c2sc' Capitals to Small Capitals in Latin lookup 13 subtable" q.sc
AlternateSubs2: "'aalt' Access All Alternates in Latin lookup 1 subtable" q.sc
AlternateSubs2: "'aalt' Access All Alternates lookup 0 subtable" q.sc
Position2: "'cpsp' Capital Spacing in Latin lookup 0 subtable" dx=10 dy=0 dh=20 dv=0
EndChar

StartChar: R
Encoding: 82 82 53
Width: 706
GlyphClass: 2
Flags: W
HStem: -7 57.7617<224.387 291.935> -4 58.5332<22.8292 85.422 612.302 688.265> 318 68<209.628 288.156> 644 71<212.242 317.768> 654.925 57.0752<-0.0811996 83.7589>
VStem: 96 111.771<66.1973 318 391.433 632.247> 392.224 121.08<449.306 569.772>
LayerCount: 2
Fore
SplineSet
25.1348 654.925 m 0,0,1
 -1 661.611 -1 661.611 -1 682.26 c 0,2,3
 -1 712 -1 712 43 712 c 2,4,-1
 206.284 712 l 2,5,6
 223.1 712 223.1 712 245.131 713.481 c 0,7,8
 267.72 715 267.72 715 280.632 715 c 0,9,10
 366.505 715 366.505 715 438.629 668.837 c 0,11,12
 513.304 621.04 513.304 621.04 513.304 540.003 c 0,13,14
 513.304 487.808 513.304 487.808 490.861 447.913 c 128,-1,15
 468.418 408.018 468.418 408.018 440.329 389.722 c 0,16,17
 415.011 373.232 415.011 373.232 393.917 361.059 c 0,18,19
 387.24 357.204 387.24 357.204 382.919 354.287 c 1,20,21
 397.777 328.771 397.777 328.771 466.786 241.861 c 0,22,23
 555.388 130.275 555.388 130.275 586.964 99.4219 c 0,24,-1
 587.695 98.6191 l 1,25,26
 621.193 59 621.193 59 668.031 59 c 0,27,28
 680.031 59 680.031 59 688.531 51.5 c 128,-1,29
 697.031 44 697.031 44 697.031 32 c 0,30,31
 697.031 7 697.031 7 675.801 -1.8457 c 0,32,33
 661.031 -8 661.031 -8 608.031 -8 c 0,34,35
 555.689 -8 555.689 -8 510.572 15.9492 c 0,36,37
 454.012 45.4766 454.012 45.4766 325.596 234.891 c 0,38,39
 318.128 245.455 318.128 245.455 314.966 250.324 c 0,40,41
 303.849 273.554 303.849 273.554 293.401 289.958 c 128,-1,42
 282.955 306.362 282.955 306.362 277.363 312.181 c 128,-1,43
 271.771 318 271.771 318 269.48 318 c 2,44,-1
 208.515 318 l 2,45,46
 207.027 318 207.027 318 207.027 264.534 c 2,47,-1
 207.027 189.108 l 2,48,49
 207.027 159.934 207.027 159.934 207.38 152.237 c 0,50,51
 207.771 143.7 207.771 143.7 207.771 138.029 c 2,52,-1
 207.771 129.914 l 2,53,54
 207.771 96.0068 207.771 96.0068 219.224 78.5898 c 128,-1,55
 230.676 61.1738 230.676 61.1738 243.986 58.6289 c 0,56,57
 261.924 55.1982 261.924 55.1982 276.511 50.7617 c 0,58,59
 299.219 43.8555 299.219 43.8555 299.219 22.9814 c 0,60,61
 299.219 9.61523 299.219 9.61523 292.156 1.5 c 0,62,63
 285.093 -7 285.093 -7 274.684 -7 c 0,64,65
 273.653 -7 273.653 -7 222.811 -3.48047 c 0,66,67
 166.386 0 166.386 0 160.422 0 c 0,68,69
 130.018 0 130.018 0 89.6963 -2 c 128,-1,70
 49.375 -4 49.375 -4 48 -4 c 0,71,72
 33 -4 33 -4 22.5 4 c 0,73,74
 12 11.6748 12 11.6748 12 26.0654 c 0,75,76
 12 46.8643 12 46.8643 35.0938 54.5332 c 0,77,78
 49.5791 59.3438 49.5791 59.3438 67.1396 61.4502 c 0,79,80
 76.2227 62.5391 76.2227 62.5391 85.4238 76.1191 c 0,81,82
 96 91.7295 96 91.7295 96 122.959 c 0,83,84
 96 147.947 96 147.947 96.5 257.312 c 128,-1,85
 97 366.679 97 366.679 97 425.154 c 0,86,87
 97 484.546 97 484.546 96.5 533.965 c 128,-1,88
 96 583.384 96 583.384 96 587.284 c 0,89,90
 96 617.887 96 617.887 84.1104 632.714 c 0,91,92
 72.874 646.729 72.874 646.729 60.4912 648.333 c 0,93,94
 41.0488 650.854 41.0488 650.854 25.1348 654.925 c 0,0,1
207.027 554.22 m 2,95,-1
 207.027 527.758 l 2,96,97
 207.027 430.704 207.027 430.704 207.762 407.842 c 0,98,99
 208.116 396.812 208.116 396.812 209.349 391.258 c 1,100,101
 218.223 386 218.223 386 233.793 386 c 2,102,-1
 262.789 386 l 2,103,104
 323.711 386 323.711 386 357.756 418.368 c 0,105,106
 392.224 451.138 392.224 451.138 392.224 503.188 c 0,107,108
 392.224 556.114 392.224 556.114 345.098 600.209 c 0,109,110
 303.357 644 303.357 644 235.279 644 c 0,111,112
 215.25 644 215.25 644 212.141 634.367 c 0,113,114
 207.027 618.523 207.027 618.523 207.027 554.22 c 2,95,-1
EndSplineSet
Validated: 524289
Substitution2: "'c2sc' Capitals to Small Capitals in Latin lookup 13 subtable" r.sc
AlternateSubs2: "'aalt' Access All Alternates in Latin lookup 1 subtable" r.sc
AlternateSubs2: "'aalt' Access All Alternates lookup 0 subtable" r.sc
Position2: "'cpsp' Capital Spacing in Latin lookup 0 subtable" dx=10 dy=0 dh=20 dv=0
EndChar

StartChar: S
Encoding: 83 83 54
Width: 531
GlyphClass: 2
Flags: W
HStem: -13 74<151.373 317.967> 652.864 69.1357<160.83 306.523>
VStem: 26.2998 45.5176<155.385 237.824> 46.2998 80.3223<492.575 614.732> 379.66 94<115.962 243.026> 402.136 57.1953<504.005 567.266>
LayerCount: 2
Fore
SplineSet
43.3115 114.265 m 0,0,1
 26.2998 186.102 26.2998 186.102 26.2998 202 c 0,2,3
 26.2998 216 26.2998 216 33.2402 227 c 128,-1,4
 40.1807 238 40.1807 238 50.6807 238 c 0,5,6
 66.7334 238 66.7334 238 71.8174 217.933 c 1,7,8
 78.5859 194.785 78.5859 194.785 84.2754 178.054 c 0,9,10
 89.793 161.826 89.793 161.826 102.5 137.462 c 0,11,12
 114.952 113.699 114.952 113.699 130.668 98.5498 c 128,-1,13
 146.385 83.4004 146.385 83.4004 171.513 72.167 c 128,-1,14
 196.493 61 196.493 61 226.422 61 c 0,15,16
 291.857 61 291.857 61 337.729 95.2715 c 0,17,18
 379.66 128.767 379.66 128.767 379.66 183.442 c 0,19,20
 379.66 222.525 379.66 222.525 352.891 248.47 c 0,21,22
 321.224 276.164 321.224 276.164 280.524 287.985 c 0,23,24
 241.225 300.958 241.225 300.958 209.677 322.543 c 0,25,26
 160.825 344.515 160.825 344.515 129.677 367.192 c 0,27,28
 46.2998 423.027 46.2998 423.027 46.2998 520.16 c 0,29,30
 46.2998 612.037 46.2998 612.037 109.769 667.518 c 0,31,32
 160.846 722 160.846 722 245.198 722 c 0,33,34
 276.553 722 276.553 722 333.317 704.81 c 0,35,36
 374.445 692.831 374.445 692.831 385.539 689.513 c 1,37,38
 387.781 690.496 387.781 690.496 389.623 691.416 c 0,39,40
 400.79 697 400.79 697 408.331 697 c 0,41,42
 433.043 697 433.043 697 437.884 678.423 c 2,43,-1
 438.018 677.912 l 1,44,45
 459.331 560.07 459.331 560.07 459.331 544.446 c 0,46,47
 459.331 503.189 459.331 503.189 430.331 503.189 c 0,48,49
 411.438 503.189 411.438 503.189 402.136 526.289 c 0,50,51
 390.978 552.16 390.978 552.16 380.19 568.359 c 0,52,53
 369.57 584.309 369.57 584.309 365.726 587.999 c 0,54,55
 360.721 592.55 360.721 592.55 337.748 610.489 c 0,56,57
 283.555 652.865 283.555 652.865 228.081 652.864 c 0,58,59
 183.58 652.865 183.58 652.865 153.945 626.762 c 0,60,61
 126.622 602.283 126.622 602.283 126.622 560.757 c 0,62,63
 126.622 522.847 126.622 522.847 142.46 499.045 c 0,64,65
 159.61 474.012 159.61 474.012 188.751 459.988 c 0,66,67
 220.271 444.82 220.271 444.82 254.891 431.539 c 0,68,69
 292.846 417.771 292.846 417.771 350.165 393.276 c 0,70,71
 404.399 368.144 404.399 368.144 439.277 332.65 c 0,72,73
 473.66 287.213 473.66 287.213 473.66 220.148 c 0,74,75
 473.66 113.08 473.66 113.08 401.804 49.7959 c 0,76,77
 327.918 -13 327.918 -13 224.088 -13 c 0,78,79
 169.367 -13 169.367 -13 135.671 -5.2666 c 0,80,81
 102.547 2.63867 102.547 2.63867 70.3164 26.707 c 0,82,-1
 69.6777 27.2256 l 2,83,84
 61.1113 34.7559 61.1113 34.7559 55.9688 53.6377 c 128,-1,85
 50.8252 72.5186 50.8252 72.5186 43.3115 114.265 c 0,0,1
EndSplineSet
Validated: 524321
Substitution2: "'c2sc' Capitals to Small Capitals in Latin lookup 13 subtable" s.sc
AlternateSubs2: "'aalt' Access All Alternates in Latin lookup 1 subtable" s.sc
AlternateSubs2: "'aalt' Access All Alternates lookup 0 subtable" s.sc
Position2: "'cpsp' Capital Spacing in Latin lookup 0 subtable" dx=10 dy=0 dh=20 dv=0
EndChar

StartChar: T
Encoding: 84 84 55
Width: 625
GlyphClass: 2
Flags: W
HStem: -3 62.6738<181.479 250.625 360.351 413.775> 628 82<87.4492 260.724 358.643 536.012>
VStem: 263.909 89.1299<199.011 625.379>
LayerCount: 2
Fore
SplineSet
5.5 549.42 m 128,-1,1
 -1 559.011 -1 559.011 -1 570.52 c 0,2,3
 -1 609.637 -1 609.637 9.01758 670.538 c 0,4,5
 9.17969 673.666 9.17969 673.666 9.57422 677.447 c 0,6,7
 10.0928 682.417 10.0928 682.417 11.8389 689.396 c 0,8,9
 12.6318 695.667 12.6318 695.667 15.5195 699.82 c 0,10,11
 16.3213 701.023 16.3213 701.023 17.6377 703.218 c 0,12,13
 21.3848 709.463 21.3848 709.463 27.292 712.416 c 0,14,15
 30.2451 713.894 30.2451 713.894 34.2568 715.23 c 0,16,17
 38.666 716.7 38.666 716.7 44.1396 717.384 c 0,18,19
 49.0664 718 49.0664 718 55 718 c 0,20,21
 71.4297 718 71.4297 718 134.953 713.975 c 0,22,23
 185.759 710 185.759 710 309.75 710 c 0,24,25
 473.601 710 473.601 710 557.293 714.976 c 0,26,27
 558.106 715.089 558.106 715.089 558.703 715.209 c 0,28,29
 562.659 716 562.659 716 565.145 716 c 0,30,31
 584.171 716 584.171 716 592.624 703.32 c 0,32,33
 599.145 693.542 599.145 693.542 599.145 684 c 0,34,35
 599.145 677.646 599.145 677.646 602.089 643.281 c 0,36,37
 605.145 607.636 605.145 607.636 605.145 603 c 0,38,39
 605.145 574.705 605.145 574.705 600.764 565.214 c 0,40,41
 593.742 550 593.742 550 574.088 550 c 128,-1,42
 554.434 550 554.434 550 548.636 573.186 c 0,43,44
 541.186 600.195 541.186 600.195 536.121 609.058 c 0,45,46
 532.716 615.016 532.716 615.016 517.573 621.073 c 0,47,48
 500.256 628 500.256 628 467.979 628 c 2,49,-1
 370.952 628 l 2,50,51
 362.056 628 362.056 628 358.531 625.697 c 1,52,53
 356.024 615.698 356.024 615.698 356.024 581.238 c 2,54,-1
 356.024 534.476 l 2,55,56
 356.024 406.456 356.024 406.456 354.903 309.044 c 0,57,58
 353.785 211.842 353.785 211.842 353.785 185.191 c 0,59,60
 353.785 171.66 353.785 171.66 353.409 150.98 c 0,61,62
 353.039 130.633 353.039 130.633 353.039 123.16 c 0,63,64
 353.039 88.5186 353.039 88.5186 360.091 79.04 c 1,65,66
 368.392 69.4404 368.392 69.4404 378.15 64.3711 c 0,67,68
 388.528 58.9795 388.528 58.9795 395.432 58.2119 c 0,69,70
 406.142 57.0215 406.142 57.0215 414.022 51.9834 c 0,71,72
 426.182 44.209 426.182 44.209 426.182 26.7734 c 0,73,74
 426.182 8.1709 426.182 8.1709 417.016 1.1377 c 0,75,76
 410.624 -4 410.624 -4 397.073 -4 c 0,77,78
 387.572 -4 387.572 -4 356.431 0.0712891 c 0,79,80
 326.371 4 326.371 4 314.228 4 c 0,81,82
 305.807 4 305.807 4 271.3 0.568359 c 0,83,84
 231.622 -3 231.622 -3 212.729 -3 c 0,85,86
 171.245 -3 171.245 -3 171.245 26.7305 c 0,87,88
 171.245 44.584 171.245 44.584 181.277 52.1045 c 0,89,90
 187.646 56.8789 187.646 56.8789 202.875 59.6738 c 0,91,92
 219.907 61.9141 219.907 61.9141 225.381 62.8594 c 0,93,94
 250.531 68.5039 250.531 68.5039 253.358 88.8545 c 0,95,96
 263.909 172.36 263.909 172.36 263.909 449.639 c 1,97,-1
 262.843 621.312 l 2,98,99
 262.843 628.304 262.843 628.304 261.053 630.572 c 1,100,101
 250.863 633.817 250.863 633.817 199.606 633.817 c 0,102,103
 147.997 633.817 147.997 633.817 122.119 630.071 c 0,104,105
 94.4316 626.966 94.4316 626.966 87.2188 624.547 c 1,106,107
 83.4395 622.104 83.4395 622.104 77.8594 615.415 c 0,108,109
 70.2725 605.714 70.2725 605.714 65.5254 593.71 c 0,110,111
 60.5742 581.192 60.5742 581.192 59.3164 573.551 c 0,112,113
 57.2822 561.195 57.2822 561.195 50.833 552.261 c 0,114,115
 41.8594 539.829 41.8594 539.829 25 539.829 c 0,116,0
 12 539.829 12 539.829 5.5 549.42 c 128,-1,1
EndSplineSet
Validated: 524289
Substitution2: "'c2sc' Capitals to Small Capitals in Latin lookup 13 subtable" t.sc
AlternateSubs2: "'aalt' Access All Alternates in Latin lookup 1 subtable" t.sc
AlternateSubs2: "'aalt' Access All Alternates lookup 0 subtable" t.sc
Position2: "'cpsp' Capital Spacing in Latin lookup 0 subtable" dx=10 dy=0 dh=20 dv=0
EndChar

StartChar: U
Encoding: 85 85 56
Width: 740
GlyphClass: 2
Flags: W
HStem: -19 77<276.566 480.802> 655.691 52.3086<218.603 249.175 482.856 565.685>
VStem: 93 112.199<142.884 629.703> 585.923 76.7451<272.86 633.801>
LayerCount: 2
Fore
SplineSet
9.13477 660.366 m 128,-1,1
 -1 668.754 -1 668.754 -1 682.553 c 0,2,3
 -1 690.749 -1 690.749 1.58398 695.708 c 0,4,5
 5.13379 702.809 5.13379 702.809 15.4287 706.927 c 0,6,7
 23.1113 710 23.1113 710 37 710 c 0,8,9
 48.4395 710 48.4395 710 83.8555 707.976 c 0,10,11
 118.417 706 118.417 706 151.646 706 c 0,12,13
 172.228 706 172.228 706 187.944 706.973 c 0,14,15
 200.443 708 200.443 708 231 708 c 0,16,17
 241.32 708 241.32 708 249.429 701 c 0,18,19
 257.538 694.312 257.538 694.312 257.538 679.98 c 0,20,21
 257.538 660.571 257.538 660.571 244.357 655.691 c 0,22,23
 238.219 653.418 238.219 653.418 229.468 652.338 c 0,24,25
 224.099 651.676 224.099 651.676 218.426 647.474 c 0,26,27
 214.531 644.59 214.531 644.59 210.636 627.641 c 0,28,29
 205.936 607.19 205.936 607.19 205.936 571.062 c 2,30,-1
 205.936 544.311 l 2,31,32
 205.936 499.396 205.936 499.396 205.567 431.051 c 128,-1,33
 205.199 362.706 205.199 362.706 205.199 337.939 c 0,34,35
 205.199 308.545 205.199 308.545 205.562 293.494 c 128,-1,36
 205.924 278.443 205.924 278.443 207.387 249.545 c 0,37,38
 208.813 221.349 208.813 221.349 211.264 205.467 c 128,-1,39
 213.715 189.585 213.715 189.585 219.436 165.953 c 0,40,41
 224.747 144.008 224.747 144.008 232.035 131.688 c 0,42,43
 240.117 118.024 240.117 118.024 252.565 101.43 c 0,44,45
 263.872 86.3564 263.872 86.3564 278.714 78.4111 c 0,46,47
 294.721 69.8428 294.721 69.8428 316.51 63.9219 c 128,-1,48
 338.298 58 338.298 58 365.164 58 c 0,49,50
 388.446 58 388.446 58 401.409 58.9336 c 0,51,52
 414.029 59.8418 414.029 59.8418 436.61 64.9512 c 0,53,54
 461.507 69.7783 461.507 69.7783 478.606 78.583 c 0,55,56
 496.54 87.8154 496.54 87.8154 519.972 107.264 c 0,57,58
 542.158 125.678 542.158 125.678 554.506 152.387 c 0,59,60
 567.549 180.604 567.549 180.604 576.736 225.057 c 128,-1,61
 585.923 269.509 585.923 269.509 585.923 326.446 c 0,62,63
 585.923 422.922 585.923 422.922 585.396 473.455 c 128,-1,64
 584.87 523.989 584.87 523.989 584.87 528.975 c 0,65,66
 584.87 561.869 584.87 561.869 583.334 580.445 c 0,67,68
 581.913 597.644 581.913 597.644 573.665 618.768 c 0,69,70
 566.426 637.309 566.426 637.309 553.755 645.211 c 0,71,72
 546.166 650.03 546.166 650.03 532.936 651.905 c 0,73,74
 516.022 654.301 516.022 654.301 505.65 655.714 c 0,75,76
 496.6 656.945 496.6 656.945 489.133 662.688 c 128,-1,77
 481.666 668.429 481.666 668.429 481.666 678.005 c 0,78,79
 481.666 691.38 481.666 691.38 492.723 699.5 c 0,80,81
 503.781 708 503.781 708 518.523 708 c 0,82,83
 525.066 708 525.066 708 560.073 706.993 c 0,84,85
 594.67 705.998 594.67 705.998 599.613 706.003 c 0,86,87
 623.254 706 623.254 706 649.834 707.477 c 0,88,89
 677.245 709 677.245 709 684.666 709 c 0,90,91
 720.666 709 720.666 709 720.666 682.144 c 0,92,93
 720.666 674.443 720.666 674.443 715.455 667.786 c 128,-1,94
 710.245 661.13 710.245 661.13 705.878 658.32 c 128,-1,95
 701.511 655.51 701.511 655.51 691.705 650.042 c 0,96,97
 674.078 640.212 674.078 640.212 671.019 634.342 c 0,98,99
 661.666 617.216 661.666 617.216 661.666 577.594 c 0,100,101
 661.666 571.043 661.666 571.043 662.162 550.592 c 0,102,103
 662.665 529.836 662.665 529.836 662.668 513.328 c 0,104,105
 662.666 328.045 662.666 328.045 646.484 229.102 c 0,106,107
 629.947 127.979 629.947 127.979 595.185 80.6523 c 0,108,109
 558.386 32.6982 558.386 32.6982 485.714 4.18457 c 0,110,111
 433.714 -19 433.714 -19 365.164 -19 c 0,112,113
 237.764 -19 237.764 -19 182.016 46.2275 c 0,114,115
 120.196 98.4688 120.196 98.4688 106.242 171.808 c 0,116,117
 93 241.704 93 241.704 93 410.953 c 2,118,-1
 93 427.268 l 2,119,120
 93 464.849 93 464.849 94.0029 510.109 c 0,121,122
 95 555.064 95 555.064 95 565.467 c 0,123,124
 95 614.072 95 614.072 84.332 630.216 c 0,125,126
 75.0195 644.31 75.0195 644.31 33.8994 650.062 c 0,127,0
 19.2686 651.979 19.2686 651.979 9.13477 660.366 c 128,-1,1
EndSplineSet
Validated: 524321
Substitution2: "'c2sc' Capitals to Small Capitals in Latin lookup 13 subtable" u.sc
AlternateSubs2: "'aalt' Access All Alternates in Latin lookup 1 subtable" u.sc
AlternateSubs2: "'aalt' Access All Alternates lookup 0 subtable" u.sc
Position2: "'cpsp' Capital Spacing in Latin lookup 0 subtable" dx=10 dy=0 dh=20 dv=0
EndChar

StartChar: V
Encoding: 86 86 57
Width: 669
GlyphClass: 2
Flags: HW
LayerCount: 2
Fore
SplineSet
15.9873 654.084 m 0,0,1
 -1 661.22 -1 661.22 -1 682.158 c 0,2,3
 -1 710 -1 710 42 710 c 0,4,5
 47.4336 710 47.4336 710 81.3936 707.974 c 0,6,7
 114.461 706 114.461 706 142.1 706 c 0,8,9
 148.157 706 148.157 706 163.684 706.985 c 0,10,11
 179.677 708 179.677 708 187.6 708 c 0,12,13
 205.723 708 205.723 708 211.1 704.927 c 0,14,15
 221.2 699.155 221.2 699.155 221.2 682 c 0,16,17
 221.2 666.729 221.2 666.729 208.396 657.584 c 0,18,19
 202.418 653.314 202.418 653.314 195.957 645.842 c 0,20,21
 192.5 641.844 192.5 641.844 192.5 635 c 0,22,23
 192.5 623.913 192.5 623.913 194.614 612.265 c 0,24,25
 196.864 599.863 196.864 599.863 204.951 572.909 c 0,26,27
 213.32 545.013 213.32 545.013 222.022 517.162 c 128,-1,28
 230.725 489.311 230.725 489.311 250.711 426.697 c 128,-1,29
 270.697 364.083 270.697 364.083 289.614 303.027 c 0,30,31
 330.81 167.813 330.81 167.813 348.218 128.603 c 1,32,33
 358.238 157.287 358.238 157.287 380.617 230.971 c 0,34,35
 417.277 351.67 417.277 351.67 452.905 483.406 c 0,36,37
 491.237 612.792 491.237 612.792 491.237 634 c 0,38,39
 491.237 642.435 491.237 642.435 486.015 646.438 c 0,40,41
 478.312 652.558 478.312 652.558 471.996 653.599 c 0,42,43
 461.954 655.255 461.954 655.255 452.993 659.15 c 0,44,45
 437.5 665.886 437.5 665.886 437.5 685 c 0,46,47
 437.5 701.891 437.5 701.891 446.313 707.287 c 0,48,49
 450.745 710 450.745 710 462.7 710 c 0,50,51
 464.915 710 464.915 710 479.062 709.495 c 0,52,53
 498.168 709.001 498.168 709.001 517.272 709 c 0,54,55
 536.176 709 536.176 709 566.734 709.985 c 0,56,57
 589.581 711 589.581 711 615.9 711 c 0,58,59
 629.9 711 629.9 711 639.9 703.5 c 0,60,61
 649.9 696.3 649.9 696.3 649.9 682.858 c 0,62,63
 649.9 669.048 649.9 669.048 637.546 659.923 c 0,64,65
 629.629 654.076 629.629 654.076 618.992 649.537 c 0,66,67
 612.822 646.904 612.822 646.904 602.922 636.608 c 0,68,69
 592.671 625.947 592.671 625.947 584.661 608.002 c 2,70,-1
 391.107 120.209 l 2,71,72
 374.348 68.4902 374.348 68.4902 358.318 14.96 c 0,73,74
 350.32 -11.9658 350.32 -11.9658 347.804 -17.7178 c 0,75,76
 342.646 -30 342.646 -30 333.2 -30 c 0,77,78
 320.219 -30 320.219 -30 311.602 -10.9238 c 0,79,80
 302.983 7.38965 302.983 7.38965 291.938 46.1064 c 0,81,82
 273.856 108.099 273.856 108.099 220.059 268.126 c 0,83,84
 193.45 347.832 193.45 347.832 171.695 415.205 c 128,-1,85
 149.94 482.579 149.94 482.579 140.432 514.458 c 0,86,87
 131.037 545.953 131.037 545.953 123.048 570.729 c 0,88,89
 113.533 595.144 113.533 595.144 107.832 605.179 c 0,90,91
 102.651 614.297 102.651 614.297 95.8008 621.695 c 0,92,93
 81.0215 637.556 81.0215 637.556 65.6152 643.951 c 128,-1,94
 50.209 650.347 50.209 650.347 42.1514 650.011 c 0,95,96
 27.1758 649.385 27.1758 649.385 15.9873 654.084 c 0,0,1
EndSplineSet
Validated: 524289
Substitution2: "'c2sc' Capitals to Small Capitals in Latin lookup 13 subtable" v.sc
AlternateSubs2: "'aalt' Access All Alternates in Latin lookup 1 subtable" v.sc
AlternateSubs2: "'aalt' Access All Alternates lookup 0 subtable" v.sc
Position2: "'cpsp' Capital Spacing in Latin lookup 0 subtable" dx=10 dy=0 dh=20 dv=0
EndChar

StartChar: W
Encoding: 87 87 58
Width: 903
GlyphClass: 2
Flags: W
HStem: 653.335 55.665<-0.34375 84.7647 257.94 296.198> 659.15 50.8496<444.728 481.511 678.232 722.726>
VStem: 486.5 114.879<630.33 693> 728.196 155.504<621.549 689.603>
LayerCount: 2
Fore
SplineSet
16.7334 653.335 m 0,0,1
 -1 659.712 -1 659.712 -1 681.189 c 0,2,3
 -1 709 -1 709 41 709 c 0,4,5
 47.3291 709 47.3291 709 80.1914 707.484 c 0,6,7
 112.363 706 112.363 706 141.4 706 c 0,8,9
 160.719 706 160.719 706 180.038 707.479 c 0,10,11
 199.926 709 199.926 709 201.6 708.997 c 0,12,13
 212.249 709 212.249 709 217.074 702.106 c 128,-1,14
 221.9 695.213 221.9 695.213 221.9 682 c 0,15,16
 221.9 677.648 221.9 677.648 220.794 673.799 c 128,-1,17
 219.688 669.95 219.688 669.95 218.583 667.579 c 128,-1,18
 217.479 665.208 217.479 665.208 214.566 662.281 c 128,-1,19
 211.653 659.355 211.653 659.355 210.487 658.378 c 128,-1,20
 209.321 657.401 209.321 657.401 205.482 654.711 c 128,-1,21
 201.644 652.02 201.644 652.02 201.133 651.646 c 0,22,23
 191.8 644.825 191.8 644.825 191.8 635 c 0,24,25
 191.8 628.256 191.8 628.256 194.136 617.411 c 0,26,27
 196.772 605.172 196.772 605.172 204.951 577.909 c 0,28,29
 213.311 550.043 213.311 550.043 222.747 520.088 c 128,-1,30
 232.183 490.133 232.183 490.133 251.799 427.579 c 128,-1,31
 271.416 365.026 271.416 365.026 290.319 303.013 c 0,32,33
 295.244 286.928 295.244 286.928 304.7 255.412 c 128,-1,34
 314.155 223.896 314.155 223.896 320.097 203.926 c 128,-1,35
 326.037 183.956 326.037 183.956 332.996 161.592 c 0,36,37
 337.414 147.389 337.414 147.389 340.852 137.832 c 1,38,39
 346.116 152.874 346.116 152.874 354.431 179.174 c 0,40,41
 373.932 240.859 373.932 240.859 389.324 295.834 c 0,42,43
 392.301 305.397 392.301 305.397 396.259 316.708 c 0,44,45
 399.775 326.756 399.775 326.756 401.289 333.243 c 0,46,47
 402.419 338.086 402.419 338.086 402.496 343.352 c 1,48,49
 399.771 361.55 399.771 361.55 361.411 484.389 c 0,50,51
 320.076 616.753 320.076 616.753 309.274 633.998 c 0,52,-1
 308.9 634.63 l 2,53,54
 306.934 638.143 306.934 638.143 305.2 640 c 0,55,56
 302.496 642.896 302.496 642.896 300.146 645.294 c 0,57,58
 298.322 647.156 298.322 647.156 296.871 648.445 c 0,59,60
 296.561 648.551 296.561 648.551 296.198 648.616 c 2,61,-1
 295.303 648.878 l 2,62,63
 291.275 649.118 291.275 649.118 288.291 649.592 c 0,64,65
 286.555 649.867 286.555 649.867 285.443 650 c 2,66,-1
 285.039 650 l 1,67,-1
 284.481 650.085 l 2,68,69
 263.368 653.316 263.368 653.316 257.761 656.654 c 0,70,71
 247.1 663.001 247.1 663.001 247.1 681 c 0,72,73
 247.1 710 247.1 710 277.9 710 c 0,74,75
 282.414 710 282.414 710 305.835 707.973 c 0,76,77
 328.305 706.027 328.305 706.027 354.789 706 c 0,78,79
 356.98 706.125 356.98 706.125 372.963 707.952 c 0,80,81
 390.875 710 390.875 710 401.1 710 c 0,82,83
 401.8 725 401.8 725 404.6 710 c 0,84,85
 407.4 725 407.4 725 408.8 710 c 0,86,87
 410.2 725 410.2 725 413.35 710 c 0,88,89
 416.5 710 416.5 710 418.25 709 c 128,-1,90
 420 708 420 708 422.45 707 c 128,-1,91
 424.9 706 424.9 706 426.65 704.5 c 128,-1,92
 428.4 703 428.4 703 429.8 700.5 c 128,-1,93
 431.2 698 431.2 698 431.9 694.5 c 128,-1,94
 432.6 691 432.6 691 432.6 687 c 0,95,96
 432.6 672.097 432.6 672.097 419.428 661.832 c 0,97,98
 412.82 656.682 412.82 656.682 406.395 648.377 c 0,99,100
 402.5 643.343 402.5 643.343 402.5 636 c 0,101,102
 402.5 620.369 402.5 620.369 423.198 553.402 c 0,103,104
 424.69 549.14 424.69 549.14 432.91 519.529 c 0,105,106
 440.556 491.99 440.556 491.99 446.567 473.232 c 1,107,108
 453.458 494.585 453.458 494.585 464.738 538.652 c 0,109,110
 486.5 623.66 486.5 623.66 486.5 637 c 0,111,112
 486.5 645.729 486.5 645.729 481.805 649.084 c 0,113,114
 472.41 655.793 472.41 655.793 463.114 658.893 c 0,115,116
 444.5 665.098 444.5 665.098 444.5 685 c 0,117,118
 444.5 711 444.5 711 470.4 711 c 0,119,120
 474.816 711 474.816 711 491.837 709.987 c 0,121,122
 510.325 709 510.325 709 517.882 709 c 2,123,-1
 531.147 709 l 2,124,125
 541.633 709 541.633 709 571.608 711.956 c 0,126,-1
 579.528 712 l 2,127,128
 588.112 712 588.112 712 594.746 705.5 c 128,-1,129
 601.379 699 601.379 699 601.379 687 c 0,130,131
 601.379 666.008 601.379 666.008 578.371 656.696 c 0,132,133
 566.273 651.8 566.273 651.8 562.834 647.394 c 0,134,135
 552.048 633.571 552.048 633.571 543.554 606.356 c 0,136,137
 527.147 555.296 527.147 555.296 504.449 487.091 c 0,138,139
 482.279 417.519 482.279 417.519 478.889 403.955 c 0,140,141
 476.325 393.701 476.325 393.701 476.014 385.289 c 1,142,143
 479.748 367.276 479.748 367.276 520.758 246.139 c 0,144,145
 551.296 158.891 551.296 158.891 565.656 128.066 c 1,146,147
 586.323 176.337 586.323 176.337 646.356 362.236 c 0,148,149
 726.978 608.949 726.978 608.949 728.196 634.148 c 0,150,151
 727.993 642.588 727.993 642.588 722.974 646.438 c 0,152,153
 715.037 652.52 715.037 652.52 707.281 653.585 c 0,154,155
 696.496 655.235 696.496 655.235 686.54 659.15 c 0,156,157
 669.269 665.886 669.269 665.886 669.269 685 c 0,158,159
 669.269 701.271 669.269 701.271 678.08 706.916 c 0,160,161
 682.892 710 682.892 710 695.8 710 c 0,162,163
 698.015 710 698.015 710 712.162 709.495 c 0,164,165
 731.269 709.001 731.269 709.001 750.372 709 c 0,166,167
 768.98 709 768.98 709 799.53 709.985 c 0,168,169
 822.38 711 822.38 711 848.7 711 c 0,170,171
 862.7 711 862.7 711 873.2 703.5 c 0,172,173
 883.7 696.312 883.7 696.312 883.7 682.893 c 0,174,175
 883.7 668.861 883.7 668.861 872.02 660.721 c 0,176,177
 865.74 656.34 865.74 656.34 853.88 650.142 c 0,178,179
 844.78 645.383 844.78 645.383 838.31 639.178 c 0,180,181
 834.24 635.277 834.24 635.277 831.49 631.515 c 0,182,183
 828.51 627.438 828.51 627.438 824.94 621.012 c 0,184,185
 821.03 613.997 821.03 613.997 818.655 609.443 c 128,-1,186
 816.28 604.889 816.28 604.889 810.93 593.232 c 0,187,188
 805.44 581.273 805.44 581.273 802.44 574.567 c 0,189,190
 717.168 409.301 717.168 409.301 644.076 204.53 c 0,191,192
 584.667 38.4277 584.667 38.4277 573.683 10.4785 c 0,193,194
 573.267 9.37207 573.267 9.37207 571.329 4.12012 c 128,-1,195
 569.393 -1.13184 569.393 -1.13184 568.756 -2.72363 c 128,-1,196
 568.118 -4.31445 568.118 -4.31445 566.201 -8.72656 c 128,-1,197
 564.283 -13.1387 564.283 -13.1387 563.14 -14.8066 c 128,-1,198
 561.996 -16.4746 561.996 -16.4746 559.861 -19.4902 c 128,-1,199
 557.728 -22.5049 557.728 -22.5049 555.842 -23.6924 c 128,-1,200
 553.956 -24.8799 553.956 -24.8799 551.371 -25.9404 c 128,-1,201
 548.785 -27 548.785 -27 545.975 -27 c 0,202,203
 535.212 -27 535.212 -27 526.396 -6.8291 c 0,204,205
 520.619 6.39453 520.619 6.39453 510.615 36.6475 c 0,206,207
 501.081 65.4844 501.081 65.4844 499.314 71.0967 c 0,208,209
 491.406 93.5752 491.406 93.5752 479.98 132.155 c 0,210,211
 468.433 171.144 468.433 171.144 460.389 198.125 c 128,-1,212
 452.345 225.106 452.345 225.106 443.949 253.091 c 0,213,214
 436.784 276.975 436.784 276.975 431.712 290.786 c 1,215,216
 419.594 258.802 419.594 258.802 394.342 172.23 c 0,217,218
 354.399 35.293 354.399 35.293 351.786 20.3623 c 0,219,220
 350.941 15.5322 350.941 15.5322 349.682 10.7334 c 0,221,222
 348.7 6.99414 348.7 6.99414 348.061 4.25684 c 2,223,-1
 346.661 -1.74316 l 2,224,225
 345.726 -5.75488 345.726 -5.75488 344.691 -8.70801 c 0,226,227
 344.507 -9.23535 344.507 -9.23535 344.437 -9.6377 c 0,228,229
 343.646 -14.1582 343.646 -14.1582 341.936 -17.8203 c 0,230,231
 340.66 -20.5566 340.66 -20.5566 339.225 -22.6064 c 0,232,233
 337.32 -25.3281 337.32 -25.3281 335.096 -26.916 c 2,234,-1
 333.695 -27.916 l 2,235,236
 330.778 -30 330.778 -30 326.9 -30 c 0,237,238
 320.48 -30 320.48 -30 315.213 -23.126 c 128,-1,239
 309.945 -16.252 309.945 -16.252 308.027 -11.0049 c 128,-1,240
 306.108 -5.75781 306.108 -5.75781 301.947 7.27539 c 0,241,242
 292.749 34.9004 292.749 34.9004 268.875 115.228 c 0,243,244
 245.172 194.984 245.172 194.984 220.748 268.597 c 0,245,246
 180.066 390.633 180.066 390.633 134.454 544.453 c 0,247,248
 121.718 588.535 121.718 588.535 102.287 613.225 c 0,249,250
 82.707 636.696 82.707 636.696 69.2891 641.994 c 0,251,252
 54.5205 647.826 54.5205 647.826 42.9316 648.619 c 0,253,254
 26.7666 649.727 26.7666 649.727 16.7334 653.335 c 0,0,1
EndSplineSet
Validated: 524289
Substitution2: "'c2sc' Capitals to Small Capitals in Latin lookup 13 subtable" w.sc
AlternateSubs2: "'aalt' Access All Alternates in Latin lookup 1 subtable" w.sc
AlternateSubs2: "'aalt' Access All Alternates lookup 0 subtable" w.sc
Position2: "'cpsp' Capital Spacing in Latin lookup 0 subtable" dx=10 dy=0 dh=20 dv=0
EndChar

StartChar: X
Encoding: 88 88 59
Width: 630
GlyphClass: 2
Flags: HW
LayerCount: 2
Fore
SplineSet
9.62988 666.188 m 0,0,1
 -1 674.343 -1 674.343 -1 687.011 c 0,2,3
 -1 704.818 -1 704.818 15.9551 710.626 c 0,4,5
 25.4014 714 25.4014 714 56 714 c 0,6,7
 75.7939 714 75.7939 714 95.5703 711.916 c 0,8,9
 113.789 710 113.789 710 138.29 710 c 0,10,11
 142.604 710 142.604 710 177.748 710.995 c 0,12,13
 213.101 712 213.101 712 216.19 711.999 c 0,14,15
 243.642 712 243.642 712 243.642 688 c 0,16,17
 243.642 670.295 243.642 670.295 232.842 661.977 c 0,18,19
 225.383 656.232 225.383 656.232 216.474 655.525 c 0,20,21
 213.371 655.28 213.371 655.28 210.789 652.794 c 1,22,-1
 210.251 649.117 l 0,23,24
 211.087 633.066 211.087 633.066 248.414 560.395 c 1,25,26
 303.771 447.097 303.771 447.097 313.897 430.654 c 1,27,28
 317.321 435.681 317.321 435.681 321.274 443.496 c 0,29,30
 328.023 456.634 328.023 456.634 342.831 485.075 c 128,-1,31
 357.638 513.516 357.638 513.516 369.118 535.978 c 128,-1,32
 380.599 558.439 380.599 558.439 392.811 582.879 c 0,33,34
 404.793 606.861 404.793 606.861 411.616 623.317 c 0,35,36
 416.648 635.454 416.648 635.454 417.254 640.226 c 0,37,38
 417.111 649.396 417.111 649.396 414.71 652.252 c 0,39,40
 411.068 656.584 411.068 656.584 407.554 657.082 c 0,41,42
 398.913 658.309 398.913 658.309 391.127 662.63 c 0,43,44
 377.929 669.954 377.929 669.954 377.929 689 c 0,45,46
 377.929 702 377.929 702 384.977 708 c 128,-1,47
 392.025 714 392.025 714 400.187 714 c 0,48,49
 417.033 714 417.033 714 433.144 711.933 c 0,50,51
 448.201 710 448.201 710 460.281 710 c 0,52,53
 504.842 710 504.842 710 521.497 711.903 c 0,54,55
 539.848 714 539.848 714 543.7 714 c 0,56,57
 574.7 714 574.7 714 574.7 690.025 c 0,58,59
 574.7 670.596 574.7 670.596 556.137 663.673 c 0,60,61
 546.88 660.221 546.88 660.221 526.655 653.434 c 0,62,63
 508.638 647.387 508.638 647.387 493.26 636.977 c 0,64,65
 479.986 625.822 479.986 625.822 455.862 583.636 c 0,66,67
 361.28 419.586 361.28 419.586 344.444 389.073 c 1,68,69
 350.028 375.916 350.028 375.916 367.743 343.479 c 0,70,71
 402.751 278.98 402.751 278.98 434.57 219.669 c 0,72,73
 505.003 94.0146 505.003 94.0146 541.846 64.6768 c 1,74,75
 545.569 63.291 545.569 63.291 554.884 61.667 c 0,76,77
 572.676 58.5645 572.676 58.5645 587.411 53.3311 c 0,78,79
 610.7 45.0596 610.7 45.0596 610.7 27.376 c 0,80,81
 610.7 18.5967 610.7 18.5967 607.062 12.7822 c 0,82,83
 602.436 5.07227 602.436 5.07227 589.065 1.50684 c 0,84,85
 579.666 -1 579.666 -1 563.7 -1 c 0,86,87
 544.084 -1 544.084 -1 500.969 2.55078 c 0,88,89
 469.114 5.79199 469.114 5.79199 465.385 6 c 0,90,91
 444.009 5.9707 444.009 5.9707 428.007 4.5332 c 0,92,93
 411.635 3.0625 411.635 3.0625 403.05 1.61621 c 0,94,95
 393.46 0 393.46 0 389.799 0 c 0,96,97
 380.896 0 380.896 0 374.961 8 c 128,-1,98
 369.026 16 369.026 16 369.026 28 c 0,99,100
 369.026 51.8799 369.026 51.8799 396.524 60.6016 c 0,101,102
 406.864 63.8799 406.864 63.8799 406.864 71 c 0,103,104
 406.864 74.459 406.864 74.459 403.216 84.292 c 0,105,106
 398.63 96.6533 398.63 96.6533 387.782 120.05 c 0,107,108
 376.78 143.776 376.78 143.776 365.426 165.99 c 0,109,110
 353.915 188.513 353.915 188.513 331.99 231.589 c 128,-1,111
 310.065 274.664 310.065 274.664 292.953 309.763 c 0,112,-1
 292.662 310.395 l 1,113,-1
 291.427 313.13 l 1,114,115
 288.054 306.068 288.054 306.068 283.516 296.09 c 0,116,117
 266.922 260.504 266.922 260.504 235.861 204.518 c 0,118,119
 205.37 149.556 205.37 149.556 190.047 116.117 c 0,120,121
 176.128 85.7412 176.128 85.7412 176.128 70 c 0,122,123
 176.128 58 176.128 58 205.062 58 c 0,124,125
 214.707 58 214.707 58 219.9 48 c 128,-1,126
 225.094 38 225.094 38 225.094 26 c 0,127,128
 225.094 0 225.094 0 190.966 0 c 0,129,130
 183.324 0 183.324 0 155.28 1.51172 c 0,131,132
 127.681 3 127.681 3 125.678 3 c 0,133,134
 119.371 3 119.371 3 89.998 1.0332 c 0,135,136
 59.499 -1 59.499 -1 48 -1 c 0,137,138
 35.5146 -1 35.5146 -1 29.0586 0.291016 c 0,139,140
 19.6045 2.18164 19.6045 2.18164 12.3936 9.39355 c 0,141,142
 4 17.4424 4 17.4424 4 32.0312 c 0,143,144
 4 48.334 4 48.334 19.2305 54.4199 c 0,145,146
 27.5791 57.7559 27.5791 57.7559 38.6191 58.3789 c 0,147,148
 45.0596 58.7422 45.0596 58.7422 57.6104 62.8916 c 0,149,150
 69.7949 66.9209 69.7949 66.9209 80.7412 74.9961 c 0,151,152
 90.1113 82.1846 90.1113 82.1846 101.132 92.293 c 0,153,154
 111.933 102.2 111.933 102.2 122.579 116.341 c 0,155,156
 131.906 131.291 131.906 131.291 139.386 142.892 c 0,157,158
 146.58 154.051 146.58 154.051 157.501 173.344 c 0,159,160
 168.594 192.938 168.594 192.938 174.13 202.955 c 128,-1,161
 179.665 212.973 179.665 212.973 191.873 235.448 c 0,162,163
 204.216 258.169 204.216 258.169 208.694 265.887 c 0,164,165
 219.849 286.072 219.849 286.072 235.539 312.631 c 0,166,167
 251.003 338.805 251.003 338.805 257.189 350.095 c 0,168,169
 259.226 353.81 259.226 353.81 260.615 356.692 c 0,170,171
 260.363 357.248 260.363 357.248 260.131 357.736 c 0,172,173
 257.355 363.564 257.355 363.564 249.405 378.047 c 0,174,175
 241.296 392.817 241.296 392.817 231.308 410.505 c 128,-1,176
 221.32 428.192 221.32 428.192 201.973 462.82 c 128,-1,177
 182.625 497.449 182.625 497.449 162.496 535.034 c 0,178,179
 102.058 641.923 102.058 641.923 51.9404 653.532 c 0,180,181
 48.5 653.807 48.5 653.807 40.5342 655.08 c 0,182,183
 30.5967 656.669 30.5967 656.669 24.6895 658.368 c 0,184,185
 16.9023 660.608 16.9023 660.608 9.62988 666.188 c 0,0,1
EndSplineSet
Validated: 524321
Substitution2: "'c2sc' Capitals to Small Capitals in Latin lookup 13 subtable" x.sc
AlternateSubs2: "'aalt' Access All Alternates in Latin lookup 1 subtable" x.sc
AlternateSubs2: "'aalt' Access All Alternates lookup 0 subtable" x.sc
Position2: "'cpsp' Capital Spacing in Latin lookup 0 subtable" dx=10 dy=0 dh=20 dv=0
EndChar

StartChar: Y
Encoding: 89 89 60
Width: 633
GlyphClass: 2
Flags: W
HStem: -3 55.3916<203.774 270.377> 0 61<393.332 432.286> 645 58<0.181641 91.762 394.526 444.664>
VStem: 278.494 96.8027<63.5934 359.687> 448.352 164.728<615.051 688.67>
LayerCount: 2
Fore
SplineSet
39 645 m 0,0,1
 -1 645 -1 645 -1 673 c 0,2,3
 -1 683.295 -1 683.295 5.42871 691.119 c 128,-1,4
 11.8574 698.943 11.8574 698.943 21.7139 701.515 c 0,5,6
 35.0742 705 35.0742 705 76 705 c 0,7,8
 82.3438 705 82.3438 705 104.197 703.983 c 0,9,10
 123.737 703 123.737 703 130.182 703 c 0,11,12
 138.313 703 138.313 703 160.183 703.498 c 128,-1,13
 182.227 704 182.227 704 193.545 704.001 c 0,14,15
 237.86 704.001 237.86 704.001 248.778 691.753 c 0,16,17
 254 685.895 254 685.895 254 677 c 0,18,19
 254 655.43 254 655.43 221.035 644.374 c 0,20,21
 213.504 641.776 213.504 641.776 210.825 639.315 c 1,22,23
 211.494 632.279 211.494 632.279 215.021 621.646 c 0,24,25
 221.368 606.973 221.368 606.973 227.458 598.175 c 0,26,27
 234.279 588.321 234.279 588.321 248.016 569.471 c 0,28,29
 261.271 551.278 261.271 551.278 264.7 545.432 c 0,30,31
 300.514 492.092 300.514 492.092 330.965 443.961 c 0,32,33
 346.18 416.56 346.18 416.56 354.015 404.613 c 1,34,35
 354.759 405.801 354.759 405.801 355.311 406.744 c 0,36,37
 361.574 417.482 361.574 417.482 373.132 443.647 c 0,38,39
 385.006 470.526 385.006 470.526 393.479 487.133 c 0,40,41
 396.031 492.755 396.031 492.755 404.427 509.404 c 0,42,43
 412.933 526.271 412.933 526.271 416.226 533.144 c 128,-1,44
 419.519 540.015 419.519 540.015 426.179 554.41 c 0,45,46
 432.694 568.492 432.694 568.492 435.504 575.559 c 0,47,48
 438.468 583.014 438.468 583.014 442.547 593.46 c 0,49,50
 446.115 602.6 446.115 602.6 447.291 608.121 c 0,51,52
 448.352 613.102 448.352 613.102 448.352 617 c 0,53,54
 448.352 628.101 448.352 628.101 444.777 633.738 c 128,-1,55
 441.202 639.376 441.202 639.376 431.552 642.423 c 0,56,57
 429.104 643.243 429.104 643.243 424.138 644.132 c 0,58,59
 417.738 645.276 417.738 645.276 414.343 646.577 c 0,60,61
 411.185 647.788 411.185 647.788 406.926 650.073 c 0,62,63
 399.578 654.016 399.578 654.016 396.152 662.058 c 0,64,65
 393.188 669.017 393.188 669.017 393.188 678 c 0,66,67
 393.188 705 393.188 705 425.243 705 c 0,68,69
 429.171 705 429.171 705 439.447 704.49 c 0,70,71
 449.311 704 449.311 704 455.807 704 c 0,72,73
 473.062 704 473.062 704 498.81 703.497 c 0,74,75
 531.242 702.999 531.242 702.999 549.079 703.001 c 0,76,77
 613.079 703 613.079 703 613.079 674.34 c 0,78,79
 613.079 661.661 613.079 661.661 598.787 654.834 c 0,80,81
 592.545 651.854 592.545 651.854 581.286 646.963 c 0,82,83
 571.893 642.884 571.893 642.884 564.309 637.248 c 0,84,85
 525.237 608.114 525.237 608.114 458.792 495.416 c 0,86,87
 399.268 380.271 399.268 380.271 390.769 366.409 c 0,88,89
 380.63 350.167 380.63 350.167 378.127 330.921 c 0,90,91
 375.297 309.162 375.297 309.162 375.297 254.938 c 0,92,93
 375.297 242.643 375.297 242.643 375.67 201.995 c 128,-1,94
 376.043 161.348 376.043 161.348 376.043 144.116 c 2,95,-1
 376.043 121.188 l 2,96,97
 376.043 93.6602 376.043 93.6602 382.999 78.9297 c 0,98,99
 389.492 65.1826 389.492 65.1826 393.155 63.5391 c 0,100,101
 398.815 61 398.815 61 404.37 61 c 0,102,103
 406.211 61 406.211 61 412.521 60.4707 c 0,104,105
 418.138 60 418.138 60 419.279 60 c 0,106,107
 429.52 60 429.52 60 435.837 50.4658 c 0,108,109
 441.643 41.7031 441.643 41.7031 441.643 31 c 0,110,111
 441.643 12.5068 441.643 12.5068 432.487 5.1377 c 0,112,113
 426.104 0 426.104 0 412.57 0 c 0,114,115
 408.77 0 408.77 0 379.998 0.500977 c 128,-1,116
 351.371 1 351.371 1 338.024 1 c 0,117,118
 312.058 1 312.058 1 281.724 -0.964844 c 0,119,120
 250.292 -3 250.292 -3 231.638 -3 c 0,121,122
 194.291 -3 194.291 -3 194.291 21.8496 c 0,123,124
 194.291 38.3213 194.291 38.3213 203.569 45.8916 c 0,125,126
 210.028 51.1611 210.028 51.1611 226.152 52.3916 c 0,127,128
 238.036 53.2119 238.036 53.2119 242.724 54.6143 c 0,129,130
 276.364 63.959 276.364 63.959 276.364 99.2656 c 0,131,132
 276.364 105.268 276.364 105.268 276.908 118.434 c 0,133,134
 277.434 131.167 277.434 131.167 277.964 173.098 c 128,-1,135
 278.494 215.029 278.494 215.029 278.494 293.283 c 0,136,137
 278.494 307.035 278.494 307.035 276.196 316.521 c 0,138,139
 273.692 326.858 273.692 326.858 270.193 336.724 c 0,140,141
 267.108 345.429 267.108 345.429 253.875 363.902 c 0,142,143
 239.565 383.879 239.565 383.879 226.088 402.425 c 128,-1,144
 212.611 420.97 212.611 420.97 189.119 464.953 c 128,-1,145
 165.626 508.938 165.626 508.938 143.956 551.089 c 0,146,147
 121.505 594.731 121.505 594.731 98.501 617.079 c 0,148,149
 75.9746 638.18 75.9746 638.18 65.7568 641.435 c 0,150,151
 54.5654 645 54.5654 645 39 645 c 0,0,1
EndSplineSet
Validated: 524321
Substitution2: "'c2sc' Capitals to Small Capitals in Latin lookup 13 subtable" y.sc
AlternateSubs2: "'aalt' Access All Alternates in Latin lookup 1 subtable" y.sc
AlternateSubs2: "'aalt' Access All Alternates lookup 0 subtable" y.sc
Position2: "'cpsp' Capital Spacing in Latin lookup 0 subtable" dx=10 dy=0 dh=20 dv=0
EndChar

